{
copyright = "Copyright (c) 2015, Cadson Demak (info@cadsondemak.com)";
customParameters = (
{
name = vendorID;
value = CDK;
},
{
name = description;
value = "Copyright (c) 2015, Cadson Demak (info@cadsondemak.com)";
},
{
name = license;

glyphs = (
{
glyphname = A;
lastChange = "2015-10-29 01:07:26 +0000";
layers = (
{
layerId = "3EB4D4D8-7151-4DFB-AE23-ECE37F7A1310";
name = Bold;
paths = (
{
closed = 1;
nodes = (
"202 0 LINE",
"283 133 LINE",
"512 133 LINE",
"536 0 LINE",
"738 0 LINE",
"607 699 LINE",
"408 699 LINE",
"-20 0 LINE"
);
},
{
closed = 1;
nodes = (
"472 486 LINE",
"497 290 LINE",
"363 290 LINE"
);
}
);
width = 798;
}
);
leftKerningGroup = A;
note = A;
rightKerningGroup = A;
unicode = 0041;
},
{
glyphname = Aacute;
lastChange = "2015-10-29 01:07:25 +0000";
layers = (
{
layerId = "3EB4D4D8-7151-4DFB-AE23-ECE37F7A1310";
name = Bold;
paths = (
{
closed = 1;
nodes = (
"202 0 LINE",
"283 133 LINE",
"512 133 LINE",
"536 0 LINE",
"738 0 LINE",
"607 699 LINE",
"408 699 LINE",
"-20 0 LINE"
);
},
{
closed = 1;
nodes = (
"472 486 LINE",
"497 290 LINE",
"363 290 LINE"
);
},
{
closed = 1;
nodes = (
"594 737 LINE",
"725 917 LINE",
"524 917 LINE",
"417 737 LINE"
);
}
);
width = 798;
}
);
leftKerningGroup = A;
note = Aacute;
rightKerningGroup = A;
unicode = 00C1;
},
{
glyphname = Abreve;
lastChange = "2015-10-29 01:07:26 +0000";
layers = (
{
layerId = "3EB4D4D8-7151-4DFB-AE23-ECE37F7A1310";
name = Bold;
paths = (
{
closed = 1;
nodes = (
"202 0 LINE",
"283 133 LINE",
"512 133 LINE",
"536 0 LINE",
"738 0 LINE",
"607 699 LINE",
"408 699 LINE",
"-20 0 LINE"
);
},
{
closed = 1;
nodes = (
"472 486 LINE",
"497 290 LINE",
"363 290 LINE"
);
},
{
closed = 1;
nodes = (
"620 742 OFFCURVE",
"704 813 OFFCURVE",
"728 926 CURVE",
"574 926 LINE",
"566 886 OFFCURVE",
"546 866 OFFCURVE",
"517 866 CURVE SMOOTH",
"487 866 OFFCURVE",
"476 886 OFFCURVE",
"484 926 CURVE",
"341 926 LINE",
"317 813 OFFCURVE",
"371 742 OFFCURVE",
"495 742 CURVE SMOOTH"
);
}
);
width = 798;
}
);
leftKerningGroup = A;
note = Abreve;
rightKerningGroup = A;
unicode = 0102;
},
{
glyphname = Abreveacute;
lastChange = "2015-10-29 01:07:26 +0000";
layers = (
{
layerId = "3EB4D4D8-7151-4DFB-AE23-ECE37F7A1310";
name = Bold;
paths = (
{
closed = 1;
nodes = (
"202 0 LINE",
"283 133 LINE",
"512 133 LINE",
"536 0 LINE",
"738 0 LINE",
"607 699 LINE",
"408 699 LINE",
"-20 0 LINE"
);
},
{
closed = 1;
nodes = (
"472 486 LINE",
"497 290 LINE",
"363 290 LINE"
);
},
{
closed = 1;
nodes = (
"624 741 OFFCURVE",
"710 800 OFFCURVE",
"730 897 CURVE",
"604 897 LINE",
"597 862 OFFCURVE",
"575 844 OFFCURVE",
"539 844 CURVE SMOOTH",
"502 844 OFFCURVE",
"488 862 OFFCURVE",
"495 897 CURVE",
"368 897 LINE",
"348 800 OFFCURVE",
"410 741 OFFCURVE",
"517 741 CURVE SMOOTH"
);
},
{
closed = 1;
nodes = (
"625 917 LINE",
"727 1051 LINE",
"563 1051 LINE",
"483 917 LINE"
);
}
);
width = 798;
}
);
leftKerningGroup = A;
note = Abreveacute;
rightKerningGroup = A;
unicode = 1EAE;
},
{
glyphname = Abrevedotbelow;
lastChange = "2015-10-29 01:07:25 +0000";
layers = (
{
layerId = "3EB4D4D8-7151-4DFB-AE23-ECE37F7A1310";
name = Bold;
paths = (
{
closed = 1;
nodes = (
"202 0 LINE",
"283 133 LINE",
"512 133 LINE",
"536 0 LINE",
"738 0 LINE",
"607 699 LINE",
"408 699 LINE",
"-20 0 LINE"
);
},
{
closed = 1;
nodes = (
"360 -210 OFFCURVE",
"404 -174 OFFCURVE",
"413 -128 CURVE SMOOTH",
"423 -82 OFFCURVE",
"395 -46 OFFCURVE",
"351 -46 CURVE SMOOTH",
"306 -46 OFFCURVE",
"260 -82 OFFCURVE",
"250 -128 CURVE SMOOTH",
"241 -174 OFFCURVE",
"271 -210 OFFCURVE",
"316 -210 CURVE SMOOTH"
);
},
{
closed = 1;
nodes = (
"472 486 LINE",
"497 290 LINE",
"363 290 LINE"
);
},
{
closed = 1;
nodes = (
"620 741 OFFCURVE",
"704 812 OFFCURVE",
"728 925 CURVE",
"574 925 LINE",
"566 885 OFFCURVE",
"546 865 OFFCURVE",
"517 865 CURVE SMOOTH",
"487 865 OFFCURVE",
"476 885 OFFCURVE",
"484 925 CURVE",
"341 925 LINE",
"317 812 OFFCURVE",
"371 741 OFFCURVE",
"495 741 CURVE SMOOTH"
);
}
);
width = 798;
}
);
leftKerningGroup = A;
note = Abrevedotbelow;
rightKerningGroup = A;
unicode = 1EB6;
},
{
glyphname = Abrevegrave;
lastChange = "2015-10-29 01:07:26 +0000";
layers = (
{
layerId = "3EB4D4D8-7151-4DFB-AE23-ECE37F7A1310";
name = Bold;
paths = (
{
closed = 1;
nodes = (
"202 0 LINE",
"283 133 LINE",
"512 133 LINE",
"536 0 LINE",
"738 0 LINE",
"607 699 LINE",
"408 699 LINE",
"-20 0 LINE"
);
},
{
closed = 1;
nodes = (
"472 486 LINE",
"497 290 LINE",
"363 290 LINE"
);
},
{
closed = 1;
nodes = (
"624 741 OFFCURVE",
"710 800 OFFCURVE",
"730 897 CURVE",
"604 897 LINE",
"597 862 OFFCURVE",
"575 844 OFFCURVE",
"539 844 CURVE SMOOTH",
"502 844 OFFCURVE",
"489 862 OFFCURVE",
"496 897 CURVE",
"368 897 LINE",
"348 800 OFFCURVE",
"410 741 OFFCURVE",
"517 741 CURVE SMOOTH"
);
},
{
closed = 1;
nodes = (
"627 917 LINE",
"603 1051 LINE",
"438 1051 LINE",
"484 917 LINE"
);
}
);
width = 798;
}
);
leftKerningGroup = A;
note = Abrevegrave;
rightKerningGroup = A;
unicode = 1EB0;
},
{
glyphname = Abrevehookabove;
lastChange = "2015-10-29 01:07:26 +0000";
layers = (
{
layerId = "3EB4D4D8-7151-4DFB-AE23-ECE37F7A1310";
name = Bold;
paths = (
{
closed = 1;
nodes = (
"202 0 LINE",
"283 133 LINE",
"512 133 LINE",
"536 0 LINE",
"738 0 LINE",
"607 699 LINE",
"408 699 LINE",
"-20 0 LINE"
);
},
{
closed = 1;
nodes = (
"472 486 LINE",
"497 290 LINE",
"363 290 LINE"
);
},
{
closed = 1;
nodes = (
"624 741 OFFCURVE",
"710 800 OFFCURVE",
"730 897 CURVE",
"604 897 LINE",
"597 862 OFFCURVE",
"575 844 OFFCURVE",
"539 844 CURVE SMOOTH",
"502 844 OFFCURVE",
"489 862 OFFCURVE",
"496 897 CURVE",
"368 897 LINE",
"348 800 OFFCURVE",
"410 741 OFFCURVE",
"517 741 CURVE SMOOTH"
);
},
{
closed = 1;
nodes = (
"618 911 LINE",
"623 931 LINE",
"663 941 OFFCURVE",
"687 963 OFFCURVE",
"695 998 CURVE SMOOTH",
"704 1043 OFFCURVE",
"674 1073 OFFCURVE",
"598 1073 CURVE SMOOTH",
"569 1073 OFFCURVE",
"527 1068 OFFCURVE",
"503 1061 CURVE",
"490 997 LINE",
"497 1001 OFFCURVE",
"514 1003 OFFCURVE",
"525 1003 CURVE SMOOTH",
"551 1003 OFFCURVE",
"562 996 OFFCURVE",
"559 982 CURVE",
"556 964 OFFCURVE",
"535 958 OFFCURVE",
"505 958 CURVE",
"495 911 LINE"
);
}
);
width = 798;
}
);
leftKerningGroup = A;
note = Abrevehookabove;
rightKerningGroup = A;
unicode = 1EB2;
},
{
glyphname = Abrevetilde;
lastChange = "2015-10-29 01:07:26 +0000";
layers = (
{
layerId = "3EB4D4D8-7151-4DFB-AE23-ECE37F7A1310";
name = Bold;
paths = (
{
closed = 1;
nodes = (
"202 0 LINE",
"283 133 LINE",
"512 133 LINE",
"536 0 LINE",
"738 0 LINE",
"607 699 LINE",
"408 699 LINE",
"-20 0 LINE"
);
},
{
closed = 1;
nodes = (
"472 486 LINE",
"497 290 LINE",
"363 290 LINE"
);
},
{
closed = 1;
nodes = (
"624 741 OFFCURVE",
"710 800 OFFCURVE",
"730 897 CURVE",
"604 897 LINE",
"597 862 OFFCURVE",
"575 844 OFFCURVE",
"539 844 CURVE SMOOTH",
"502 844 OFFCURVE",
"489 862 OFFCURVE",
"496 897 CURVE",
"368 897 LINE",
"348 800 OFFCURVE",
"410 741 OFFCURVE",
"517 741 CURVE SMOOTH"
);
},
{
closed = 1;
nodes = (
"671 920 OFFCURVE",
"702 929 OFFCURVE",
"727 952 CURVE",
"750 1060 LINE",
"720 1032 OFFCURVE",
"688 1020 OFFCURVE",
"657 1020 CURVE SMOOTH",
"605 1020 OFFCURVE",
"557 1061 OFFCURVE",
"503 1061 CURVE SMOOTH",
"467 1061 OFFCURVE",
"436 1051 OFFCURVE",
"411 1028 CURVE",
"388 921 LINE",
"418 949 OFFCURVE",
"450 961 OFFCURVE",
"482 961 CURVE SMOOTH",
"533 961 OFFCURVE",
"578 920 OFFCURVE",
"636 920 CURVE SMOOTH"
);
}
);
width = 798;
}
);
leftKerningGroup = A;
note = Abrevetilde;
rightKerningGroup = A;
unicode = 1EB4;
},
{
glyphname = Acaron;
lastChange = "2015-10-29 01:07:25 +0000";
layers = (
{
layerId = "3EB4D4D8-7151-4DFB-AE23-ECE37F7A1310";
name = Bold;
paths = (
{
closed = 1;
nodes = (
"202 0 LINE",
"283 133 LINE",
"512 133 LINE",
"536 0 LINE",
"738 0 LINE",
"607 699 LINE",
"408 699 LINE",
"-20 0 LINE"
);
},
{
closed = 1;
nodes = (
"472 486 LINE",
"497 290 LINE",
"363 290 LINE"
);
},
{
closed = 1;
nodes = (
"580 748 LINE",
"765 920 LINE",
"588 920 LINE",
"515 849 LINE",
"472 920 LINE",
"305 920 LINE",
"415 748 LINE"
);
}
);
width = 798;
}
);
leftKerningGroup = A;
note = Acaron;
rightKerningGroup = A;
unicode = 01CD;
},
{
glyphname = Acircumflex;
lastChange = "2015-10-29 01:07:26 +0000";
layers = (
{
layerId = "3EB4D4D8-7151-4DFB-AE23-ECE37F7A1310";
name = Bold;
paths = (
{
closed = 1;
nodes = (
"202 0 LINE",
"283 133 LINE",
"512 133 LINE",
"536 0 LINE",
"738 0 LINE",
"607 699 LINE",
"408 699 LINE",
"-20 0 LINE"
);
},
{
closed = 1;
nodes = (
"472 486 LINE",
"497 290 LINE",
"363 290 LINE"
);
},
{
closed = 1;
nodes = (
"445 748 LINE",
"518 819 LINE",
"561 748 LINE",
"728 748 LINE",
"617 920 LINE",
"452 920 LINE",
"268 748 LINE"
);
}
);
width = 798;
}
);
leftKerningGroup = A;
note = Acircumflex;
rightKerningGroup = A;
unicode = 00C2;
},
{
glyphname = Acircumflexacute;
lastChange = "2015-10-29 01:07:27 +0000";
layers = (
{
layerId = "3EB4D4D8-7151-4DFB-AE23-ECE37F7A1310";
name = Bold;
paths = (
{
closed = 1;
nodes = (
"202 0 LINE",
"283 133 LINE",
"512 133 LINE",
"536 0 LINE",
"738 0 LINE",
"607 699 LINE",
"408 699 LINE",
"-20 0 LINE"
);
},
{
closed = 1;
nodes = (
"472 486 LINE",
"497 290 LINE",
"363 290 LINE"
);
},
{
closed = 1;
nodes = (
"454 744 LINE",
"530 812 LINE",
"576 744 LINE",
"739 744 LINE",
"615 903 LINE",
"482 903 LINE",
"290 744 LINE"
);
},
{
closed = 1;
nodes = (
"815 868 LINE",
"928 1012 LINE",
"764 1012 LINE",
"675 868 LINE"
);
}
);
width = 797;
}
);
leftKerningGroup = A;
note = Acircumflexacute;
rightKerningGroup = A;
unicode = 1EA4;
},
{
glyphname = Acircumflexdotbelow;
lastChange = "2015-10-29 01:07:25 +0000";
layers = (
{
layerId = "3EB4D4D8-7151-4DFB-AE23-ECE37F7A1310";
name = Bold;
paths = (
{
closed = 1;
nodes = (
"202 0 LINE",
"283 133 LINE",
"512 133 LINE",
"536 0 LINE",
"738 0 LINE",
"607 699 LINE",
"408 699 LINE",
"-20 0 LINE"
);
},
{
closed = 1;
nodes = (
"360 -210 OFFCURVE",
"404 -174 OFFCURVE",
"413 -128 CURVE SMOOTH",
"423 -82 OFFCURVE",
"395 -46 OFFCURVE",
"351 -46 CURVE SMOOTH",
"306 -46 OFFCURVE",
"260 -82 OFFCURVE",
"250 -128 CURVE SMOOTH",
"241 -174 OFFCURVE",
"271 -210 OFFCURVE",
"316 -210 CURVE SMOOTH"
);
},
{
closed = 1;
nodes = (
"472 486 LINE",
"497 290 LINE",
"363 290 LINE"
);
},
{
closed = 1;
nodes = (
"445 748 LINE",
"518 819 LINE",
"561 748 LINE",
"728 748 LINE",
"617 920 LINE",
"452 920 LINE",
"268 748 LINE"
);
}
);
width = 798;
}
);
leftKerningGroup = A;
note = Acircumflexdotbelow;
rightKerningGroup = A;
unicode = 1EAC;
},
{
glyphname = Acircumflexgrave;
lastChange = "2015-10-29 01:07:25 +0000";
layers = (
{
layerId = "3EB4D4D8-7151-4DFB-AE23-ECE37F7A1310";
name = Bold;
paths = (
{
closed = 1;
nodes = (
"198 0 LINE",
"279 133 LINE",
"508 133 LINE",
"532 0 LINE",
"734 0 LINE",
"603 699 LINE",
"404 699 LINE",
"-24 0 LINE"
);
},
{
closed = 1;
nodes = (
"468 486 LINE",
"493 290 LINE",
"359 290 LINE"
);
},
{
closed = 1;
nodes = (
"404 865 LINE",
"377 1009 LINE",
"213 1009 LINE",
"264 865 LINE"
);
},
{
closed = 1;
nodes = (
"452 741 LINE",
"528 809 LINE",
"574 741 LINE",
"737 741 LINE",
"613 900 LINE",
"481 900 LINE",
"288 741 LINE"
);
}
);
width = 795;
}
);
leftKerningGroup = A;
note = Acircumflexgrave;
rightKerningGroup = A;
unicode = 1EA6;
},
{
glyphname = Acircumflexhookabove;
lastChange = "2015-10-29 01:07:26 +0000";
layers = (
{
layerId = "3EB4D4D8-7151-4DFB-AE23-ECE37F7A1310";
name = Bold;
paths = (
{
closed = 1;
nodes = (
"202 0 LINE",
"283 133 LINE",
"512 133 LINE",
"536 0 LINE",
"738 0 LINE",
"607 699 LINE",
"408 699 LINE",
"-20 0 LINE"
);
},
{
closed = 1;
nodes = (
"472 486 LINE",
"497 290 LINE",
"363 290 LINE"
);
},
{
closed = 1;
nodes = (
"460 744 LINE",
"536 812 LINE",
"582 744 LINE",
"745 744 LINE",
"621 903 LINE",
"488 903 LINE",
"296 744 LINE"
);
},
{
closed = 1;
nodes = (
"796 857 LINE",
"801 882 LINE",
"841 893 OFFCURVE",
"868 915 OFFCURVE",
"875 948 CURVE SMOOTH",
"885 993 OFFCURVE",
"852 1023 OFFCURVE",
"777 1023 CURVE SMOOTH",
"748 1023 OFFCURVE",
"706 1017 OFFCURVE",
"682 1011 CURVE",
"668 947 LINE",
"678 951 OFFCURVE",
"694 953 OFFCURVE",
"705 953 CURVE SMOOTH",
"731 953 OFFCURVE",
"742 946 OFFCURVE",
"739 932 CURVE SMOOTH",
"735 914 OFFCURVE",
"715 908 OFFCURVE",
"685 908 CURVE",
"674 857 LINE"
);
}
);
width = 798;
}
);
leftKerningGroup = A;
note = Acircumflexhookabove;
rightKerningGroup = A;
unicode = 1EA8;
},
{
glyphname = Acircumflextilde;
lastChange = "2015-10-29 01:07:26 +0000";
layers = (
{
layerId = "3EB4D4D8-7151-4DFB-AE23-ECE37F7A1310";
name = Bold;
paths = (
{
closed = 1;
nodes = (
"202 0 LINE",
"283 133 LINE",
"512 133 LINE",
"536 0 LINE",
"738 0 LINE",
"607 699 LINE",
"408 699 LINE",
"-20 0 LINE"
);
},
{
closed = 1;
nodes = (
"472 486 LINE",
"497 290 LINE",
"363 290 LINE"
);
},
{
closed = 1;
nodes = (
"455 741 LINE",
"531 809 LINE",
"577 741 LINE",
"740 741 LINE",
"616 900 LINE",
"483 900 LINE",
"291 741 LINE"
);
},
{
closed = 1;
nodes = (
"678 911 OFFCURVE",
"709 920 OFFCURVE",
"734 943 CURVE",
"757 1051 LINE",
"727 1023 OFFCURVE",
"695 1011 OFFCURVE",
"662 1011 CURVE SMOOTH",
"612 1011 OFFCURVE",
"564 1052 OFFCURVE",
"510 1052 CURVE SMOOTH",
"474 1052 OFFCURVE",
"443 1042 OFFCURVE",
"418 1019 CURVE",
"395 912 LINE",
"425 940 OFFCURVE",
"457 952 OFFCURVE",
"489 952 CURVE SMOOTH",
"540 952 OFFCURVE",
"585 911 OFFCURVE",
"642 911 CURVE SMOOTH"
);
}
);
width = 798;
}
);
leftKerningGroup = A;
note = Acircumflextilde;
rightKerningGroup = A;
unicode = 1EAA;
},
{
glyphname = Adieresis;
lastChange = "2015-10-29 01:07:26 +0000";
layers = (
{
layerId = "3EB4D4D8-7151-4DFB-AE23-ECE37F7A1310";
name = Bold;
paths = (
{
closed = 1;
nodes = (
"202 0 LINE",
"283 133 LINE",
"512 133 LINE",
"536 0 LINE",
"738 0 LINE",
"607 699 LINE",
"408 699 LINE",
"-20 0 LINE"
);
},
{
closed = 1;
nodes = (
"472 486 LINE",
"497 290 LINE",
"363 290 LINE"
);
},
{
closed = 1;
nodes = (
"424 742 OFFCURVE",
"468 777 OFFCURVE",
"478 823 CURVE SMOOTH",
"488 869 OFFCURVE",
"459 906 OFFCURVE",
"414 906 CURVE SMOOTH",
"371 906 OFFCURVE",
"324 869 OFFCURVE",
"314 823 CURVE SMOOTH",
"304 777 OFFCURVE",
"336 742 OFFCURVE",
"379 742 CURVE SMOOTH"
);
},
{
closed = 1;
nodes = (
"659 742 OFFCURVE",
"703 777 OFFCURVE",
"713 823 CURVE SMOOTH",
"723 869 OFFCURVE",
"694 906 OFFCURVE",
"650 906 CURVE SMOOTH",
"605 906 OFFCURVE",
"559 869 OFFCURVE",
"549 823 CURVE SMOOTH",
"539 777 OFFCURVE",
"570 742 OFFCURVE",
"615 742 CURVE SMOOTH"
);
}
);
width = 798;
}
);
leftKerningGroup = A;
note = Adieresis;
rightKerningGroup = A;
unicode = 00C4;
},
{
glyphname = Adotbelow;
lastChange = "2015-10-29 01:07:26 +0000";
layers = (
{
layerId = "3EB4D4D8-7151-4DFB-AE23-ECE37F7A1310";
name = Bold;
paths = (
{
closed = 1;
nodes = (
"202 0 LINE",
"283 133 LINE",
"512 133 LINE",
"536 0 LINE",
"738 0 LINE",
"607 699 LINE",
"408 699 LINE",
"-20 0 LINE"
);
},
{
closed = 1;
nodes = (
"360 -210 OFFCURVE",
"404 -174 OFFCURVE",
"413 -128 CURVE SMOOTH",
"423 -82 OFFCURVE",
"395 -46 OFFCURVE",
"351 -46 CURVE SMOOTH",
"306 -46 OFFCURVE",
"260 -82 OFFCURVE",
"250 -128 CURVE SMOOTH",
"241 -174 OFFCURVE",
"271 -210 OFFCURVE",
"316 -210 CURVE SMOOTH"
);
},
{
closed = 1;
nodes = (
"472 486 LINE",
"497 290 LINE",
"363 290 LINE"
);
}
);
width = 798;
}
);
leftKerningGroup = A;
note = Adotbelow;
rightKerningGroup = A;
unicode = 1EA0;
},
{
glyphname = Agrave;
lastChange = "2015-10-29 01:07:26 +0000";
layers = (
{
layerId = "3EB4D4D8-7151-4DFB-AE23-ECE37F7A1310";
name = Bold;
paths = (
{
closed = 1;
nodes = (
"202 0 LINE",
"283 133 LINE",
"512 133 LINE",
"536 0 LINE",
"738 0 LINE",
"607 699 LINE",
"408 699 LINE",
"-20 0 LINE"
);
},
{
closed = 1;
nodes = (
"472 486 LINE",
"497 290 LINE",
"363 290 LINE"
);
},
{
closed = 1;
nodes = (
"580 737 LINE",
"549 917 LINE",
"348 917 LINE",
"403 737 LINE"
);
}
);
width = 798;
}
);
leftKerningGroup = A;
note = Agrave;
rightKerningGroup = A;
unicode = 00C0;
},
{
glyphname = Ahookabove;
lastChange = "2015-10-29 01:07:26 +0000";
layers = (
{
layerId = "3EB4D4D8-7151-4DFB-AE23-ECE37F7A1310";
name = Bold;
paths = (
{
closed = 1;
nodes = (
"202 0 LINE",
"283 133 LINE",
"512 133 LINE",
"536 0 LINE",
"738 0 LINE",
"607 699 LINE",
"408 699 LINE",
"-20 0 LINE"
);
},
{
closed = 1;
nodes = (
"472 486 LINE",
"497 290 LINE",
"363 290 LINE"
);
},
{
closed = 1;
nodes = (
"572 742 LINE",
"578 772 LINE",
"647 783 OFFCURVE",
"685 820 OFFCURVE",
"696 868 CURVE SMOOTH",
"709 933 OFFCURVE",
"664 978 OFFCURVE",
"551 978 CURVE SMOOTH",
"499 978 OFFCURVE",
"450 970 OFFCURVE",
"417 960 CURVE",
"399 876 LINE",
"412 881 OFFCURVE",
"440 886 OFFCURVE",
"463 886 CURVE SMOOTH",
"510 886 OFFCURVE",
"522 871 OFFCURVE",
"518 853 CURVE SMOOTH",
"512 825 OFFCURVE",
"476 814 OFFCURVE",
"421 814 CURVE",
"406 742 LINE"
);
}
);
width = 798;
}
);
leftKerningGroup = A;
note = Ahookabove;
rightKerningGroup = A;
unicode = 1EA2;
},
{
glyphname = Amacron;
lastChange = "2015-10-29 01:07:26 +0000";
layers = (
{
layerId = "3EB4D4D8-7151-4DFB-AE23-ECE37F7A1310";
name = Bold;
paths = (
{
closed = 1;
nodes = (
"202 0 LINE",
"283 133 LINE",
"512 133 LINE",
"536 0 LINE",
"738 0 LINE",
"607 699 LINE",
"408 699 LINE",
"-20 0 LINE"
);
},
{
closed = 1;
nodes = (
"472 486 LINE",
"497 290 LINE",
"363 290 LINE"
);
},
{
closed = 1;
nodes = (
"676 752 LINE",
"701 870 LINE",
"346 870 LINE",
"321 752 LINE"
);
}
);
width = 798;
}
);
leftKerningGroup = A;
note = Amacron;
rightKerningGroup = A;
unicode = 0100;
},
{
glyphname = Aogonek;
lastChange = "2015-10-29 01:07:25 +0000";
layers = (
{
layerId = "3EB4D4D8-7151-4DFB-AE23-ECE37F7A1310";
name = Bold;
paths = (
{
closed = 1;
nodes = (
"202 0 LINE",
"283 133 LINE",
"512 133 LINE",
"536 0 LINE",
"738 0 LINE",
"607 699 LINE",
"408 699 LINE",
"-20 0 LINE"
);
},
{
closed = 1;
nodes = (
"588 -218 OFFCURVE",
"634 -211 OFFCURVE",
"665 -202 CURVE",
"688 -94 LINE",
"670 -102 OFFCURVE",
"652 -106 OFFCURVE",
"636 -106 CURVE SMOOTH",
"617 -106 OFFCURVE",
"604 -95 OFFCURVE",
"608 -78 CURVE SMOOTH",
"614 -50 OFFCURVE",
"647 -28 OFFCURVE",
"708 0 CURVE",
"526 0 LINE",
"479 -25 OFFCURVE",
"443 -65 OFFCURVE",
"431 -118 CURVE SMOOTH",
"417 -188 OFFCURVE",
"469 -218 OFFCURVE",
"546 -218 CURVE SMOOTH"
);
},
{
closed = 1;
nodes = (
"472 486 LINE",
"497 290 LINE",
"363 290 LINE"
);
}
);
width = 798;
}
);
leftKerningGroup = A;
note = Aogonek;
rightKerningGroup = A;
unicode = 0104;
},
{
glyphname = Aring;
lastChange = "2015-10-29 01:07:26 +0000";
layers = (
{
layerId = "3EB4D4D8-7151-4DFB-AE23-ECE37F7A1310";
name = Bold;
paths = (
{
closed = 1;
nodes = (
"202 0 LINE",
"283 133 LINE",
"512 133 LINE",
"536 0 LINE",
"738 0 LINE",
"607 699 LINE",
"408 699 LINE",
"-20 0 LINE"
);
},
{
closed = 1;
nodes = (
"472 486 LINE",
"497 290 LINE",
"363 290 LINE"
);
},
{
closed = 1;
nodes = (
"562 626 OFFCURVE",
"635 690 OFFCURVE",
"652 772 CURVE SMOOTH",
"670 855 OFFCURVE",
"616 919 OFFCURVE",
"533 919 CURVE SMOOTH",
"441 919 OFFCURVE",
"371 855 OFFCURVE",
"353 772 CURVE SMOOTH",
"337 690 OFFCURVE",
"389 626 OFFCURVE",
"471 626 CURVE SMOOTH"
);
},
{
closed = 1;
nodes = (
"457 721 OFFCURVE",
"445 744 OFFCURVE",
"451 772 CURVE SMOOTH",
"458 802 OFFCURVE",
"485 824 OFFCURVE",
"513 824 CURVE SMOOTH",
"550 824 OFFCURVE",
"561 802 OFFCURVE",
"554 772 CURVE SMOOTH",
"548 744 OFFCURVE",
"521 721 OFFCURVE",
"491 721 CURVE SMOOTH"
);
}
);
width = 798;
}
);
leftKerningGroup = A;
note = Aring;
rightKerningGroup = A;
unicode = 00C5;
},
{
glyphname = Aringacute;
lastChange = "2015-10-29 01:07:25 +0000";
layers = (
{
layerId = "3EB4D4D8-7151-4DFB-AE23-ECE37F7A1310";
name = Bold;
paths = (
{
closed = 1;
nodes = (
"202 0 LINE",
"283 133 LINE",
"512 133 LINE",
"536 0 LINE",
"738 0 LINE",
"607 699 LINE",
"408 699 LINE",
"-20 0 LINE"
);
},
{
closed = 1;
nodes = (
"472 486 LINE",
"497 290 LINE",
"363 290 LINE"
);
},
{
closed = 1;
nodes = (
"562 626 OFFCURVE",
"635 690 OFFCURVE",
"652 772 CURVE SMOOTH",
"670 855 OFFCURVE",
"616 919 OFFCURVE",
"533 919 CURVE SMOOTH",
"441 919 OFFCURVE",
"371 855 OFFCURVE",
"353 772 CURVE SMOOTH",
"337 690 OFFCURVE",
"389 626 OFFCURVE",
"471 626 CURVE SMOOTH"
);
},
{
closed = 1;
nodes = (
"457 721 OFFCURVE",
"445 744 OFFCURVE",
"451 772 CURVE SMOOTH",
"458 802 OFFCURVE",
"485 824 OFFCURVE",
"513 824 CURVE SMOOTH",
"550 824 OFFCURVE",
"561 802 OFFCURVE",
"554 772 CURVE SMOOTH",
"548 744 OFFCURVE",
"521 721 OFFCURVE",
"491 721 CURVE SMOOTH"
);
},
{
closed = 1;
nodes = (
"646 935 LINE",
"777 1079 LINE",
"576 1079 LINE",
"469 935 LINE"
);
}
);
width = 798;
}
);
leftKerningGroup = A;
note = Aringacute;
rightKerningGroup = A;
unicode = 01FA;
},
{
glyphname = Atilde;
lastChange = "2015-10-29 01:07:25 +0000";
layers = (
{
layerId = "3EB4D4D8-7151-4DFB-AE23-ECE37F7A1310";
name = Bold;
paths = (
{
closed = 1;
nodes = (
"202 0 LINE",
"283 133 LINE",
"512 133 LINE",
"536 0 LINE",
"738 0 LINE",
"607 699 LINE",
"408 699 LINE",
"-20 0 LINE"
);
},
{
closed = 1;
nodes = (
"472 486 LINE",
"497 290 LINE",
"363 290 LINE"
);
},
{
closed = 1;
nodes = (
"328 778 OFFCURVE",
"366 792 OFFCURVE",
"406 792 CURVE SMOOTH",
"470 792 OFFCURVE",
"524 742 OFFCURVE",
"597 742 CURVE SMOOTH",
"642 742 OFFCURVE",
"681 753 OFFCURVE",
"712 783 CURVE",
"741 923 LINE",
"704 888 OFFCURVE",
"666 874 OFFCURVE",
"625 874 CURVE SMOOTH",
"560 874 OFFCURVE",
"503 924 OFFCURVE",
"435 924 CURVE SMOOTH",
"391 924 OFFCURVE",
"350 912 OFFCURVE",
"319 883 CURVE",
"289 742 LINE"
);
}
);
width = 798;
}
);
leftKerningGroup = A;
note = Atilde;
rightKerningGroup = A;
unicode = 00C3;
},
{
glyphname = AE;
lastChange = "2015-10-29 01:07:26 +0000";
layers = (
{
layerId = "3EB4D4D8-7151-4DFB-AE23-ECE37F7A1310";
name = Bold;
paths = (
{
closed = 1;
nodes = (
"196 0 LINE",
"279 133 LINE",
"420 133 LINE",
"392 0 LINE",
"858 0 LINE",
"894 174 LINE",
"614 174 LINE",
"635 270 LINE",
"832 270 LINE",
"866 429 LINE",
"669 429 LINE",
"689 525 LINE",
"969 525 LINE",
"1006 699 LINE",
"421 699 LINE",
"-20 0 LINE"
);
},
{
closed = 1;
nodes = (
"497 525 LINE",
"503 525 LINE",
"454 292 LINE",
"356 292 LINE"
);
}
);
width = 908;
}
);
leftKerningGroup = A;
note = AE;
rightKerningGroup = E;
unicode = 00C6;
},
{
glyphname = AEacute;
lastChange = "2015-10-29 01:07:26 +0000";
layers = (
{
layerId = "3EB4D4D8-7151-4DFB-AE23-ECE37F7A1310";
name = Bold;
paths = (
{
closed = 1;
nodes = (
"196 0 LINE",
"279 133 LINE",
"420 133 LINE",
"392 0 LINE",
"858 0 LINE",
"894 174 LINE",
"614 174 LINE",
"635 270 LINE",
"832 270 LINE",
"866 429 LINE",
"669 429 LINE",
"689 525 LINE",
"969 525 LINE",
"1006 699 LINE",
"421 699 LINE",
"-20 0 LINE"
);
},
{
closed = 1;
nodes = (
"497 525 LINE",
"503 525 LINE",
"454 292 LINE",
"356 292 LINE"
);
},
{
closed = 1;
nodes = (
"728 737 LINE",
"859 917 LINE",
"658 917 LINE",
"551 737 LINE"
);
}
);
width = 918;
}
);
leftKerningGroup = A;
note = AEacute;
rightKerningGroup = E;
unicode = 01FC;
},
{
glyphname = B;
lastChange = "2015-10-29 01:07:26 +0000";
layers = (
{
layerId = "3EB4D4D8-7151-4DFB-AE23-ECE37F7A1310";
name = Bold;
paths = (
{
closed = 1;
nodes = (
"381 0 LINE SMOOTH",
"527 0 OFFCURVE",
"628 79 OFFCURVE",
"657 213 CURVE SMOOTH",
"673 291 OFFCURVE",
"654 336 OFFCURVE",
"595 365 CURVE",
"649 396 OFFCURVE",
"685 449 OFFCURVE",
"697 504 CURVE SMOOTH",
"724 632 OFFCURVE",
"632 699 OFFCURVE",
"513 699 CURVE SMOOTH",
"148 699 LINE",
"0 0 LINE"
);
},
{
closed = 1;
nodes = (
"267 284 LINE",
"381 284 LINE SMOOTH",
"436 284 OFFCURVE",
"457 263 OFFCURVE",
"447 214 CURVE SMOOTH",
"436 163 OFFCURVE",
"407 147 OFFCURVE",
"354 147 CURVE SMOOTH",
"238 147 LINE"
);
},
{
closed = 1;
nodes = (
"324 552 LINE",
"427 552 LINE SMOOTH",
"478 552 OFFCURVE",
"494 539 OFFCURVE",
"484 491 CURVE SMOOTH",
"474 445 OFFCURVE",
"445 428 OFFCURVE",
"401 428 CURVE SMOOTH",
"297 428 LINE"
);
}
);
width = 672;
}
);
note = B;
unicode = 0042;
},
{
glyphname = C;
lastChange = "2015-10-29 01:07:25 +0000";
layers = (
{
layerId = "3EB4D4D8-7151-4DFB-AE23-ECE37F7A1310";
name = Bold;
paths = (
{
closed = 1;
nodes = (
"460 -15 OFFCURVE",
"549 4 OFFCURVE",
"625 46 CURVE",
"666 236 LINE",
"590 190 OFFCURVE",
"512 169 OFFCURVE",
"417 169 CURVE SMOOTH",
"269 169 OFFCURVE",
"239 229 OFFCURVE",
"265 349 CURVE SMOOTH",
"290 468 OFFCURVE",
"370 528 OFFCURVE",
"494 528 CURVE SMOOTH",
"588 528 OFFCURVE",
"656 510 OFFCURVE",
"706 464 CURVE",
"747 655 LINE",
"687 696 OFFCURVE",
"615 714 OFFCURVE",
"515 714 CURVE SMOOTH",
"261 714 OFFCURVE",
"102 575 OFFCURVE",
"54 349 CURVE SMOOTH",
"6 123 OFFCURVE",
"134 -15 OFFCURVE",
"360 -15 CURVE SMOOTH"
);
}
);
width = 676;
}
);
leftKerningGroup = C;
note = C;
rightKerningGroup = C;
unicode = 0043;
},
{
glyphname = Cacute;
lastChange = "2015-10-29 01:07:26 +0000";
layers = (
{
layerId = "3EB4D4D8-7151-4DFB-AE23-ECE37F7A1310";
name = Bold;
paths = (
{
closed = 1;
nodes = (
"460 -15 OFFCURVE",
"549 4 OFFCURVE",
"625 46 CURVE",
"666 236 LINE",
"590 190 OFFCURVE",
"512 169 OFFCURVE",
"417 169 CURVE SMOOTH",
"269 169 OFFCURVE",
"239 229 OFFCURVE",
"265 349 CURVE SMOOTH",
"290 468 OFFCURVE",
"370 528 OFFCURVE",
"494 528 CURVE SMOOTH",
"588 528 OFFCURVE",
"656 510 OFFCURVE",
"706 464 CURVE",
"747 655 LINE",
"687 696 OFFCURVE",
"615 714 OFFCURVE",
"515 714 CURVE SMOOTH",
"261 714 OFFCURVE",
"102 575 OFFCURVE",
"54 349 CURVE SMOOTH",
"6 123 OFFCURVE",
"134 -15 OFFCURVE",
"360 -15 CURVE SMOOTH"
);
},
{
closed = 1;
nodes = (
"591 737 LINE",
"722 917 LINE",
"521 917 LINE",
"414 737 LINE"
);
}
);
width = 676;
}
);
leftKerningGroup = C;
note = Cacute;
rightKerningGroup = C;
unicode = 0106;
},
{
glyphname = Ccaron;
lastChange = "2015-10-29 01:07:26 +0000";
layers = (
{
layerId = "3EB4D4D8-7151-4DFB-AE23-ECE37F7A1310";
name = Bold;
paths = (
{
closed = 1;
nodes = (
"460 -15 OFFCURVE",
"549 4 OFFCURVE",
"625 46 CURVE",
"666 236 LINE",
"590 190 OFFCURVE",
"512 169 OFFCURVE",
"417 169 CURVE SMOOTH",
"269 169 OFFCURVE",
"239 229 OFFCURVE",
"265 349 CURVE SMOOTH",
"290 468 OFFCURVE",
"370 528 OFFCURVE",
"494 528 CURVE SMOOTH",
"588 528 OFFCURVE",
"656 510 OFFCURVE",
"706 464 CURVE",
"747 655 LINE",
"687 696 OFFCURVE",
"615 714 OFFCURVE",
"515 714 CURVE SMOOTH",
"261 714 OFFCURVE",
"102 575 OFFCURVE",
"54 349 CURVE SMOOTH",
"6 123 OFFCURVE",
"134 -15 OFFCURVE",
"360 -15 CURVE SMOOTH"
);
},
{
closed = 1;
nodes = (
"588 748 LINE",
"773 920 LINE",
"596 920 LINE",
"523 849 LINE",
"480 920 LINE",
"313 920 LINE",
"423 748 LINE"
);
}
);
width = 676;
}
);
leftKerningGroup = C;
note = Ccaron;
rightKerningGroup = C;
unicode = 010C;
},
{
glyphname = Ccedilla;
lastChange = "2015-10-29 01:07:24 +0000";
layers = (
{
layerId = "3EB4D4D8-7151-4DFB-AE23-ECE37F7A1310";
name = Bold;
paths = (
{
closed = 1;
nodes = (
"460 -15 OFFCURVE",
"549 4 OFFCURVE",
"625 46 CURVE",
"666 236 LINE",
"590 190 OFFCURVE",
"512 169 OFFCURVE",
"417 169 CURVE SMOOTH",
"269 169 OFFCURVE",
"239 229 OFFCURVE",
"265 349 CURVE SMOOTH",
"290 468 OFFCURVE",
"370 528 OFFCURVE",
"494 528 CURVE SMOOTH",
"588 528 OFFCURVE",
"656 510 OFFCURVE",
"706 464 CURVE",
"747 655 LINE",
"687 696 OFFCURVE",
"615 714 OFFCURVE",
"515 714 CURVE SMOOTH",
"261 714 OFFCURVE",
"102 575 OFFCURVE",
"54 349 CURVE SMOOTH",
"6 123 OFFCURVE",
"134 -15 OFFCURVE",
"360 -15 CURVE SMOOTH"
);
},
{
closed = 1;
nodes = (
"400 -248 OFFCURVE",
"461 -203 OFFCURVE",
"475 -139 CURVE SMOOTH",
"485 -90 OFFCURVE",
"460 -54 OFFCURVE",
"402 -46 CURVE",
"430 0 LINE",
"299 0 LINE",
"248 -87 LINE",
"324 -87 OFFCURVE",
"347 -100 OFFCURVE",
"341 -131 CURVE",
"334 -160 OFFCURVE",
"309 -168 OFFCURVE",
"269 -168 CURVE SMOOTH",
"246 -168 OFFCURVE",
"220 -162 OFFCURVE",
"206 -153 CURVE",
"189 -233 LINE",
"210 -242 OFFCURVE",
"242 -248 OFFCURVE",
"295 -248 CURVE SMOOTH"
);
}
);
width = 676;
}
);
leftKerningGroup = C;
note = Ccedilla;
rightKerningGroup = C;
unicode = 00C7;
},
{
glyphname = Ccircumflex;
lastChange = "2015-10-29 01:07:25 +0000";
layers = (
{
layerId = "3EB4D4D8-7151-4DFB-AE23-ECE37F7A1310";
name = Bold;
paths = (
{
closed = 1;
nodes = (
"460 -15 OFFCURVE",
"549 4 OFFCURVE",
"625 46 CURVE",
"666 236 LINE",
"590 190 OFFCURVE",
"512 169 OFFCURVE",
"417 169 CURVE SMOOTH",
"269 169 OFFCURVE",
"239 229 OFFCURVE",
"265 349 CURVE SMOOTH",
"290 468 OFFCURVE",
"370 528 OFFCURVE",
"494 528 CURVE SMOOTH",
"588 528 OFFCURVE",
"656 510 OFFCURVE",
"706 464 CURVE",
"747 655 LINE",
"687 696 OFFCURVE",
"615 714 OFFCURVE",
"515 714 CURVE SMOOTH",
"261 714 OFFCURVE",
"102 575 OFFCURVE",
"54 349 CURVE SMOOTH",
"6 123 OFFCURVE",
"134 -15 OFFCURVE",
"360 -15 CURVE SMOOTH"
);
},
{
closed = 1;
nodes = (
"435 748 LINE",
"508 819 LINE",
"551 748 LINE",
"718 748 LINE",
"607 920 LINE",
"442 920 LINE",
"258 748 LINE"
);
}
);
width = 676;
}
);
leftKerningGroup = C;
note = Ccircumflex;
rightKerningGroup = C;
unicode = 0108;
},
{
glyphname = Cdotaccent;
lastChange = "2015-10-29 01:07:25 +0000";
layers = (
{
layerId = "3EB4D4D8-7151-4DFB-AE23-ECE37F7A1310";
name = Bold;
paths = (
{
closed = 1;
nodes = (
"460 -15 OFFCURVE",
"549 4 OFFCURVE",
"625 46 CURVE",
"666 236 LINE",
"590 190 OFFCURVE",
"512 169 OFFCURVE",
"417 169 CURVE SMOOTH",
"269 169 OFFCURVE",
"239 229 OFFCURVE",
"265 349 CURVE SMOOTH",
"290 468 OFFCURVE",
"370 528 OFFCURVE",
"494 528 CURVE SMOOTH",
"588 528 OFFCURVE",
"656 510 OFFCURVE",
"706 464 CURVE",
"747 655 LINE",
"687 696 OFFCURVE",
"615 714 OFFCURVE",
"515 714 CURVE SMOOTH",
"261 714 OFFCURVE",
"102 575 OFFCURVE",
"54 349 CURVE SMOOTH",
"6 123 OFFCURVE",
"134 -15 OFFCURVE",
"360 -15 CURVE SMOOTH"
);
},
{
closed = 1;
nodes = (
"562 742 OFFCURVE",
"605 777 OFFCURVE",
"615 823 CURVE SMOOTH",
"625 869 OFFCURVE",
"597 906 OFFCURVE",
"552 906 CURVE SMOOTH",
"507 906 OFFCURVE",
"461 869 OFFCURVE",
"451 823 CURVE SMOOTH",
"441 777 OFFCURVE",
"472 742 OFFCURVE",
"517 742 CURVE SMOOTH"
);
}
);
width = 676;
}
);
leftKerningGroup = C;
note = Cdotaccent;
rightKerningGroup = C;
unicode = 010A;
},
{
glyphname = D;
lastChange = "2015-10-29 01:07:27 +0000";
layers = (
{
layerId = "3EB4D4D8-7151-4DFB-AE23-ECE37F7A1310";
name = Bold;
paths = (
{
closed = 1;
nodes = (
"270 0 LINE SMOOTH",
"512 0 OFFCURVE",
"667 116 OFFCURVE",
"718 353 CURVE SMOOTH",
"760 550 OFFCURVE",
"632 699 OFFCURVE",
"407 699 CURVE SMOOTH",
"148 699 LINE",
"0 0 LINE"
);
},
{
closed = 1;
nodes = (
"318 525 LINE",
"386 525 LINE SMOOTH",
"514 525 OFFCURVE",
"529 455 OFFCURVE",
"507 353 CURVE SMOOTH",
"484 245 OFFCURVE",
"412 174 OFFCURVE",
"308 174 CURVE SMOOTH",
"243 174 LINE"
);
}
);
width = 703;
}
);
note = D;
rightKerningGroup = D;
unicode = 0044;
},
{
glyphname = Eth;
lastChange = "2015-10-29 01:07:25 +0000";
layers = (
{
layerId = "3EB4D4D8-7151-4DFB-AE23-ECE37F7A1310";
name = Bold;
paths = (
{
closed = 1;
nodes = (
"306 0 LINE SMOOTH",
"548 0 OFFCURVE",
"703 116 OFFCURVE",
"754 353 CURVE SMOOTH",
"796 550 OFFCURVE",
"668 699 OFFCURVE",
"443 699 CURVE SMOOTH",
"184 699 LINE",
"126 424 LINE",
"80 424 LINE",
"48 274 LINE",
"94 274 LINE",
"36 0 LINE"
);
},
{
closed = 1;
nodes = (
"300 274 LINE",
"425 274 LINE",
"457 424 LINE",
"332 424 LINE",
"354 525 LINE",
"422 525 LINE SMOOTH",
"550 525 OFFCURVE",
"565 455 OFFCURVE",
"543 353 CURVE SMOOTH",
"520 245 OFFCURVE",
"448 174 OFFCURVE",
"344 174 CURVE SMOOTH",
"279 174 LINE"
);
}
);
width = 739;
}
);
note = Eth;
rightKerningGroup = D;
unicode = 00D0;
},
{
glyphname = Dcaron;
lastChange = "2015-10-29 01:07:25 +0000";
layers = (
{
layerId = "3EB4D4D8-7151-4DFB-AE23-ECE37F7A1310";
name = Bold;
paths = (
{
closed = 1;
nodes = (
"270 0 LINE SMOOTH",
"512 0 OFFCURVE",
"667 116 OFFCURVE",
"718 353 CURVE SMOOTH",
"760 550 OFFCURVE",
"632 699 OFFCURVE",
"407 699 CURVE SMOOTH",
"148 699 LINE",
"0 0 LINE"
);
},
{
closed = 1;
nodes = (
"318 525 LINE",
"386 525 LINE SMOOTH",
"514 525 OFFCURVE",
"529 455 OFFCURVE",
"507 353 CURVE SMOOTH",
"484 245 OFFCURVE",
"412 174 OFFCURVE",
"308 174 CURVE SMOOTH",
"243 174 LINE"
);
},
{
closed = 1;
nodes = (
"507 748 LINE",
"692 920 LINE",
"515 920 LINE",
"442 849 LINE",
"399 920 LINE",
"232 920 LINE",
"342 748 LINE"
);
}
);
width = 703;
}
);
note = Dcaron;
rightKerningGroup = D;
unicode = 010E;
},
{
glyphname = Dcroat;
lastChange = "2015-10-29 01:07:26 +0000";
layers = (
{
layerId = "3EB4D4D8-7151-4DFB-AE23-ECE37F7A1310";
name = Bold;
paths = (
{
closed = 1;
nodes = (
"306 0 LINE SMOOTH",
"548 0 OFFCURVE",
"703 116 OFFCURVE",
"754 353 CURVE SMOOTH",
"796 550 OFFCURVE",
"668 699 OFFCURVE",
"443 699 CURVE SMOOTH",
"184 699 LINE",
"126 424 LINE",
"80 424 LINE",
"48 274 LINE",
"94 274 LINE",
"36 0 LINE"
);
},
{
closed = 1;
nodes = (
"300 274 LINE",
"425 274 LINE",
"457 424 LINE",
"332 424 LINE",
"354 525 LINE",
"422 525 LINE SMOOTH",
"550 525 OFFCURVE",
"565 455 OFFCURVE",
"543 353 CURVE SMOOTH",
"520 245 OFFCURVE",
"448 174 OFFCURVE",
"344 174 CURVE SMOOTH",
"279 174 LINE"
);
}
);
width = 739;
}
);
note = Dcroat;
rightKerningGroup = D;
unicode = 0110;
},
{
glyphname = Ddotbelow;
lastChange = "2015-10-29 01:07:25 +0000";
layers = (
{
layerId = "3EB4D4D8-7151-4DFB-AE23-ECE37F7A1310";
name = Bold;
paths = (
{
closed = 1;
nodes = (
"270 0 LINE SMOOTH",
"512 0 OFFCURVE",
"667 116 OFFCURVE",
"718 353 CURVE SMOOTH",
"760 550 OFFCURVE",
"632 699 OFFCURVE",
"407 699 CURVE SMOOTH",
"148 699 LINE",
"0 0 LINE"
);
},
{
closed = 1;
nodes = (
"274 -210 OFFCURVE",
"318 -174 OFFCURVE",
"327 -128 CURVE SMOOTH",
"337 -82 OFFCURVE",
"309 -46 OFFCURVE",
"265 -46 CURVE SMOOTH",
"220 -46 OFFCURVE",
"174 -82 OFFCURVE",
"164 -128 CURVE SMOOTH",
"155 -174 OFFCURVE",
"185 -210 OFFCURVE",
"230 -210 CURVE SMOOTH"
);
},
{
closed = 1;
nodes = (
"318 525 LINE",
"386 525 LINE SMOOTH",
"514 525 OFFCURVE",
"529 455 OFFCURVE",
"507 353 CURVE SMOOTH",
"484 245 OFFCURVE",
"412 174 OFFCURVE",
"308 174 CURVE SMOOTH",
"243 174 LINE"
);
}
);
width = 703;
}
);
note = Ddotbelow;
rightKerningGroup = D;
unicode = 1E0C;
},
{
glyphname = Dlinebelow;
lastChange = "2015-10-29 01:07:25 +0000";
layers = (
{
layerId = "3EB4D4D8-7151-4DFB-AE23-ECE37F7A1310";
name = Bold;
paths = (
{
closed = 1;
nodes = (
"270 0 LINE SMOOTH",
"512 0 OFFCURVE",
"667 116 OFFCURVE",
"718 353 CURVE SMOOTH",
"760 550 OFFCURVE",
"632 699 OFFCURVE",
"407 699 CURVE SMOOTH",
"148 699 LINE",
"0 0 LINE"
);
},
{
closed = 1;
nodes = (
"413 -172 LINE",
"438 -54 LINE",
"83 -54 LINE",
"58 -172 LINE"
);
},
{
closed = 1;
nodes = (
"318 525 LINE",
"386 525 LINE SMOOTH",
"514 525 OFFCURVE",
"529 455 OFFCURVE",
"507 353 CURVE SMOOTH",
"484 245 OFFCURVE",
"412 174 OFFCURVE",
"308 174 CURVE SMOOTH",
"243 174 LINE"
);
}
);
width = 703;
}
);
note = Dlinebelow;
rightKerningGroup = D;
unicode = 1E0E;
},
{
glyphname = E;
lastChange = "2015-10-29 01:07:24 +0000";
layers = (
{
layerId = "3EB4D4D8-7151-4DFB-AE23-ECE37F7A1310";
name = Bold;
paths = (
{
closed = 1;
nodes = (
"507 0 LINE",
"543 174 LINE",
"243 174 LINE",
"264 270 LINE",
"480 270 LINE",
"514 429 LINE",
"298 429 LINE",
"318 525 LINE",
"618 525 LINE",
"655 699 LINE",
"148 699 LINE",
"0 0 LINE"
);
}
);
width = 557;
}
);
leftKerningGroup = E;
note = E;
rightKerningGroup = E;
unicode = 0045;
},
{
glyphname = Eacute;
lastChange = "2015-10-29 01:07:25 +0000";
layers = (
{
layerId = "3EB4D4D8-7151-4DFB-AE23-ECE37F7A1310";
name = Bold;
paths = (
{
closed = 1;
nodes = (
"507 0 LINE",
"543 174 LINE",
"243 174 LINE",
"264 270 LINE",
"480 270 LINE",
"514 429 LINE",
"298 429 LINE",
"318 525 LINE",
"618 525 LINE",
"655 699 LINE",
"148 699 LINE",
"0 0 LINE"
);
},
{
closed = 1;
nodes = (
"470 737 LINE",
"601 917 LINE",
"400 917 LINE",
"293 737 LINE"
);
}
);
width = 557;
}
);
leftKerningGroup = E;
note = Eacute;
rightKerningGroup = E;
unicode = 00C9;
},
{
glyphname = Ebreve;
lastChange = "2015-10-29 01:07:26 +0000";
layers = (
{
layerId = "3EB4D4D8-7151-4DFB-AE23-ECE37F7A1310";
name = Bold;
paths = (
{
closed = 1;
nodes = (
"507 0 LINE",
"543 174 LINE",
"243 174 LINE",
"264 270 LINE",
"480 270 LINE",
"514 429 LINE",
"298 429 LINE",
"318 525 LINE",
"618 525 LINE",
"655 699 LINE",
"148 699 LINE",
"0 0 LINE"
);
},
{
closed = 1;
nodes = (
"518 741 OFFCURVE",
"602 812 OFFCURVE",
"626 925 CURVE",
"472 925 LINE",
"464 885 OFFCURVE",
"444 865 OFFCURVE",
"415 865 CURVE SMOOTH",
"385 865 OFFCURVE",
"374 885 OFFCURVE",
"382 925 CURVE",
"239 925 LINE",
"215 812 OFFCURVE",
"269 741 OFFCURVE",
"393 741 CURVE SMOOTH"
);
}
);
width = 557;
}
);
leftKerningGroup = E;
note = Ebreve;
rightKerningGroup = E;
unicode = 0114;
},
{
glyphname = Ecaron;
lastChange = "2015-10-29 01:07:26 +0000";
layers = (
{
layerId = "3EB4D4D8-7151-4DFB-AE23-ECE37F7A1310";
name = Bold;
paths = (
{
closed = 1;
nodes = (
"507 0 LINE",
"543 174 LINE",
"243 174 LINE",
"264 270 LINE",
"480 270 LINE",
"514 429 LINE",
"298 429 LINE",
"318 525 LINE",
"618 525 LINE",
"655 699 LINE",
"148 699 LINE",
"0 0 LINE"
);
},
{
closed = 1;
nodes = (
"486 748 LINE",
"671 920 LINE",
"494 920 LINE",
"421 849 LINE",
"378 920 LINE",
"211 920 LINE",
"321 748 LINE"
);
}
);
width = 557;
}
);
leftKerningGroup = E;
note = Ecaron;
rightKerningGroup = E;
unicode = 011A;
},
{
glyphname = Ecircumflex;
lastChange = "2015-10-29 01:07:25 +0000";
layers = (
{
layerId = "3EB4D4D8-7151-4DFB-AE23-ECE37F7A1310";
name = Bold;
paths = (
{
closed = 1;
nodes = (
"507 0 LINE",
"543 174 LINE",
"243 174 LINE",
"264 270 LINE",
"480 270 LINE",
"514 429 LINE",
"298 429 LINE",
"318 525 LINE",
"618 525 LINE",
"655 699 LINE",
"148 699 LINE",
"0 0 LINE"
);
},
{
closed = 1;
nodes = (
"336 744 LINE",
"409 815 LINE",
"452 744 LINE",
"619 744 LINE",
"508 916 LINE",
"343 916 LINE",
"159 744 LINE"
);
}
);
width = 557;
}
);
leftKerningGroup = E;
note = Ecircumflex;
rightKerningGroup = E;
unicode = 00CA;
},
{
glyphname = Ecircumflexacute;
lastChange = "2015-10-29 01:07:25 +0000";
layers = (
{
layerId = "3EB4D4D8-7151-4DFB-AE23-ECE37F7A1310";
name = Bold;
paths = (
{
closed = 1;
nodes = (
"507 0 LINE",
"543 174 LINE",
"243 174 LINE",
"264 270 LINE",
"480 270 LINE",
"514 429 LINE",
"298 429 LINE",
"318 525 LINE",
"618 525 LINE",
"655 699 LINE",
"148 699 LINE",
"0 0 LINE"
);
},
{
closed = 1;
nodes = (
"353 741 LINE",
"429 809 LINE",
"475 741 LINE",
"638 741 LINE",
"514 900 LINE",
"381 900 LINE",
"189 741 LINE"
);
},
{
closed = 1;
nodes = (
"714 865 LINE",
"827 1009 LINE",
"663 1009 LINE",
"574 865 LINE"
);
}
);
width = 557;
}
);
leftKerningGroup = E;
note = Ecircumflexacute;
rightKerningGroup = E;
unicode = 1EBE;
},
{
glyphname = Ecircumflexdotbelow;
lastChange = "2015-10-29 01:07:26 +0000";
layers = (
{
layerId = "3EB4D4D8-7151-4DFB-AE23-ECE37F7A1310";
name = Bold;
paths = (
{
closed = 1;
nodes = (
"507 0 LINE",
"543 174 LINE",
"243 174 LINE",
"264 270 LINE",
"480 270 LINE",
"514 429 LINE",
"298 429 LINE",
"318 525 LINE",
"618 525 LINE",
"655 699 LINE",
"148 699 LINE",
"0 0 LINE"
);
},
{
closed = 1;
nodes = (
"263 -210 OFFCURVE",
"307 -174 OFFCURVE",
"316 -128 CURVE SMOOTH",
"326 -82 OFFCURVE",
"298 -46 OFFCURVE",
"254 -46 CURVE SMOOTH",
"209 -46 OFFCURVE",
"163 -82 OFFCURVE",
"153 -128 CURVE SMOOTH",
"144 -174 OFFCURVE",
"174 -210 OFFCURVE",
"219 -210 CURVE SMOOTH"
);
},
{
closed = 1;
nodes = (
"347 748 LINE",
"420 819 LINE",
"463 748 LINE",
"630 748 LINE",
"519 920 LINE",
"354 920 LINE",
"170 748 LINE"
);
}
);
width = 557;
}
);
leftKerningGroup = E;
note = Ecircumflexdotbelow;
rightKerningGroup = E;
unicode = 1EC6;
},
{
glyphname = Ecircumflexgrave;
lastChange = "2015-10-29 01:07:27 +0000";
layers = (
{
layerId = "3EB4D4D8-7151-4DFB-AE23-ECE37F7A1310";
name = Bold;
paths = (
{
closed = 1;
nodes = (
"507 0 LINE",
"543 174 LINE",
"243 174 LINE",
"264 270 LINE",
"480 270 LINE",
"514 429 LINE",
"298 429 LINE",
"318 525 LINE",
"618 525 LINE",
"655 699 LINE",
"148 699 LINE",
"0 0 LINE"
);
},
{
closed = 1;
nodes = (
"310 865 LINE",
"283 1009 LINE",
"119 1009 LINE",
"170 865 LINE"
);
},
{
closed = 1;
nodes = (
"358 741 LINE",
"434 809 LINE",
"480 741 LINE",
"643 741 LINE",
"519 900 LINE",
"387 900 LINE",
"194 741 LINE"
);
}
);
width = 557;
}
);
leftKerningGroup = E;
note = Ecircumflexgrave;
rightKerningGroup = E;
unicode = 1EC0;
},
{
glyphname = Ecircumflexhookabove;
lastChange = "2015-10-29 01:07:25 +0000";
layers = (
{
layerId = "3EB4D4D8-7151-4DFB-AE23-ECE37F7A1310";
name = Bold;
paths = (
{
closed = 1;
nodes = (
"507 0 LINE",
"543 174 LINE",
"243 174 LINE",
"264 270 LINE",
"480 270 LINE",
"514 429 LINE",
"298 429 LINE",
"318 525 LINE",
"618 525 LINE",
"655 699 LINE",
"148 699 LINE",
"0 0 LINE"
);
},
{
closed = 1;
nodes = (
"345 741 LINE",
"421 809 LINE",
"467 741 LINE",
"630 741 LINE",
"506 900 LINE",
"373 900 LINE",
"181 741 LINE"
);
},
{
closed = 1;
nodes = (
"681 854 LINE",
"686 879 LINE",
"726 890 OFFCURVE",
"753 912 OFFCURVE",
"760 945 CURVE SMOOTH",
"770 990 OFFCURVE",
"737 1020 OFFCURVE",
"662 1020 CURVE SMOOTH",
"633 1020 OFFCURVE",
"591 1014 OFFCURVE",
"567 1008 CURVE",
"553 944 LINE",
"563 948 OFFCURVE",
"579 950 OFFCURVE",
"590 950 CURVE SMOOTH",
"616 950 OFFCURVE",
"627 943 OFFCURVE",
"624 929 CURVE SMOOTH",
"620 911 OFFCURVE",
"600 905 OFFCURVE",
"570 905 CURVE",
"559 854 LINE"
);
}
);
width = 560;
}
);
leftKerningGroup = E;
note = Ecircumflexhookabove;
rightKerningGroup = E;
unicode = 1EC2;
},
{
glyphname = Ecircumflextilde;
lastChange = "2015-10-29 01:07:26 +0000";
layers = (
{
layerId = "3EB4D4D8-7151-4DFB-AE23-ECE37F7A1310";
name = Bold;
paths = (
{
closed = 1;
nodes = (
"507 0 LINE",
"543 174 LINE",
"243 174 LINE",
"264 270 LINE",
"480 270 LINE",
"514 429 LINE",
"298 429 LINE",
"318 525 LINE",
"618 525 LINE",
"655 699 LINE",
"148 699 LINE",
"0 0 LINE"
);
},
{
closed = 1;
nodes = (
"351 741 LINE",
"427 809 LINE",
"473 741 LINE",
"636 741 LINE",
"512 900 LINE",
"379 900 LINE",
"187 741 LINE"
);
},
{
closed = 1;
nodes = (
"574 911 OFFCURVE",
"605 920 OFFCURVE",
"630 943 CURVE",
"653 1051 LINE",
"623 1023 OFFCURVE",
"591 1011 OFFCURVE",
"558 1011 CURVE SMOOTH",
"508 1011 OFFCURVE",
"460 1052 OFFCURVE",
"406 1052 CURVE SMOOTH",
"370 1052 OFFCURVE",
"339 1042 OFFCURVE",
"314 1019 CURVE",
"291 912 LINE",
"321 940 OFFCURVE",
"353 952 OFFCURVE",
"385 952 CURVE SMOOTH",
"436 952 OFFCURVE",
"481 911 OFFCURVE",
"538 911 CURVE SMOOTH"
);
}
);
width = 557;
}
);
leftKerningGroup = E;
note = Ecircumflextilde;
rightKerningGroup = E;
unicode = 1EC4;
},
{
glyphname = Edieresis;
lastChange = "2015-10-29 01:07:27 +0000";
layers = (
{
layerId = "3EB4D4D8-7151-4DFB-AE23-ECE37F7A1310";
name = Bold;
paths = (
{
closed = 1;
nodes = (
"507 0 LINE",
"543 174 LINE",
"243 174 LINE",
"264 270 LINE",
"480 270 LINE",
"514 429 LINE",
"298 429 LINE",
"318 525 LINE",
"618 525 LINE",
"655 699 LINE",
"148 699 LINE",
"0 0 LINE"
);
},
{
closed = 1;
nodes = (
"327 747 OFFCURVE",
"371 782 OFFCURVE",
"381 828 CURVE SMOOTH",
"391 874 OFFCURVE",
"362 911 OFFCURVE",
"317 911 CURVE SMOOTH",
"274 911 OFFCURVE",
"227 874 OFFCURVE",
"217 828 CURVE SMOOTH",
"207 782 OFFCURVE",
"239 747 OFFCURVE",
"282 747 CURVE SMOOTH"
);
},
{
closed = 1;
nodes = (
"562 747 OFFCURVE",
"606 782 OFFCURVE",
"616 828 CURVE SMOOTH",
"626 874 OFFCURVE",
"597 911 OFFCURVE",
"553 911 CURVE SMOOTH",
"508 911 OFFCURVE",
"462 874 OFFCURVE",
"452 828 CURVE SMOOTH",
"442 782 OFFCURVE",
"473 747 OFFCURVE",
"518 747 CURVE SMOOTH"
);
}
);
width = 557;
}
);
leftKerningGroup = E;
note = Edieresis;
rightKerningGroup = E;
unicode = 00CB;
},
{
glyphname = Edotaccent;
lastChange = "2015-10-29 01:07:26 +0000";
layers = (
{
layerId = "3EB4D4D8-7151-4DFB-AE23-ECE37F7A1310";
name = Bold;
paths = (
{
closed = 1;
nodes = (
"507 0 LINE",
"543 174 LINE",
"243 174 LINE",
"264 270 LINE",
"480 270 LINE",
"514 429 LINE",
"298 429 LINE",
"318 525 LINE",
"618 525 LINE",
"655 699 LINE",
"148 699 LINE",
"0 0 LINE"
);
},
{
closed = 1;
nodes = (
"439 742 OFFCURVE",
"482 777 OFFCURVE",
"492 823 CURVE SMOOTH",
"502 869 OFFCURVE",
"474 906 OFFCURVE",
"429 906 CURVE SMOOTH",
"384 906 OFFCURVE",
"338 869 OFFCURVE",
"328 823 CURVE SMOOTH",
"318 777 OFFCURVE",
"349 742 OFFCURVE",
"394 742 CURVE SMOOTH"
);
}
);
width = 557;
}
);
leftKerningGroup = E;
note = Edotaccent;
rightKerningGroup = E;
unicode = 0116;
},
{
glyphname = Edotbelow;
lastChange = "2015-10-29 01:07:25 +0000";
layers = (
{
layerId = "3EB4D4D8-7151-4DFB-AE23-ECE37F7A1310";
name = Bold;
paths = (
{
closed = 1;
nodes = (
"507 0 LINE",
"543 174 LINE",
"243 174 LINE",
"264 270 LINE",
"480 270 LINE",
"514 429 LINE",
"298 429 LINE",
"318 525 LINE",
"618 525 LINE",
"655 699 LINE",
"148 699 LINE",
"0 0 LINE"
);
},
{
closed = 1;
nodes = (
"247 -210 OFFCURVE",
"291 -174 OFFCURVE",
"300 -128 CURVE SMOOTH",
"310 -82 OFFCURVE",
"282 -46 OFFCURVE",
"238 -46 CURVE SMOOTH",
"193 -46 OFFCURVE",
"147 -82 OFFCURVE",
"137 -128 CURVE SMOOTH",
"128 -174 OFFCURVE",
"158 -210 OFFCURVE",
"203 -210 CURVE SMOOTH"
);
}
);
width = 557;
}
);
leftKerningGroup = E;
note = Edotbelow;
rightKerningGroup = E;
unicode = 1EB8;
},
{
glyphname = Egrave;
lastChange = "2015-10-29 01:07:26 +0000";
layers = (
{
layerId = "3EB4D4D8-7151-4DFB-AE23-ECE37F7A1310";
name = Bold;
paths = (
{
closed = 1;
nodes = (
"507 0 LINE",
"543 174 LINE",
"243 174 LINE",
"264 270 LINE",
"480 270 LINE",
"514 429 LINE",
"298 429 LINE",
"318 525 LINE",
"618 525 LINE",
"655 699 LINE",
"148 699 LINE",
"0 0 LINE"
);
},
{
closed = 1;
nodes = (
"490 743 LINE",
"459 923 LINE",
"258 923 LINE",
"313 743 LINE"
);
}
);
width = 557;
}
);
leftKerningGroup = E;
note = Egrave;
rightKerningGroup = E;
unicode = 00C8;
},
{
glyphname = Ehookabove;
lastChange = "2015-10-29 01:07:27 +0000";
layers = (
{
layerId = "3EB4D4D8-7151-4DFB-AE23-ECE37F7A1310";
name = Bold;
paths = (
{
closed = 1;
nodes = (
"507 0 LINE",
"543 174 LINE",
"243 174 LINE",
"264 270 LINE",
"480 270 LINE",
"514 429 LINE",
"298 429 LINE",
"318 525 LINE",
"618 525 LINE",
"655 699 LINE",
"148 699 LINE",
"0 0 LINE"
);
},
{
closed = 1;
nodes = (
"459 742 LINE",
"465 772 LINE",
"534 783 OFFCURVE",
"572 820 OFFCURVE",
"583 868 CURVE SMOOTH",
"596 933 OFFCURVE",
"551 978 OFFCURVE",
"438 978 CURVE SMOOTH",
"386 978 OFFCURVE",
"337 970 OFFCURVE",
"304 960 CURVE",
"286 876 LINE",
"299 881 OFFCURVE",
"327 886 OFFCURVE",
"350 886 CURVE SMOOTH",
"397 886 OFFCURVE",
"409 871 OFFCURVE",
"405 853 CURVE SMOOTH",
"399 825 OFFCURVE",
"363 814 OFFCURVE",
"308 814 CURVE",
"293 742 LINE"
);
}
);
width = 557;
}
);
leftKerningGroup = E;
note = Ehookabove;
rightKerningGroup = E;
unicode = 1EBA;
},
{
glyphname = Emacron;
lastChange = "2015-10-29 01:07:26 +0000";
layers = (
{
layerId = "3EB4D4D8-7151-4DFB-AE23-ECE37F7A1310";
name = Bold;
paths = (
{
closed = 1;
nodes = (
"507 0 LINE",
"543 174 LINE",
"243 174 LINE",
"264 270 LINE",
"480 270 LINE",
"514 429 LINE",
"298 429 LINE",
"318 525 LINE",
"618 525 LINE",
"655 699 LINE",
"148 699 LINE",
"0 0 LINE"
);
},
{
closed = 1;
nodes = (
"582 757 LINE",
"607 875 LINE",
"252 875 LINE",
"227 757 LINE"
);
}
);
width = 557;
}
);
leftKerningGroup = E;
note = Emacron;
rightKerningGroup = E;
unicode = 0112;
},
{
glyphname = Eogonek;
lastChange = "2015-10-29 01:07:26 +0000";
layers = (
{
layerId = "3EB4D4D8-7151-4DFB-AE23-ECE37F7A1310";
name = Bold;
paths = (
{
closed = 1;
nodes = (
"507 0 LINE",
"543 174 LINE",
"243 174 LINE",
"264 270 LINE",
"480 270 LINE",
"514 429 LINE",
"298 429 LINE",
"318 525 LINE",
"618 525 LINE",
"655 699 LINE",
"148 699 LINE",
"0 0 LINE"
);
},
{
closed = 1;
nodes = (
"389 -218 OFFCURVE",
"435 -211 OFFCURVE",
"466 -202 CURVE",
"489 -94 LINE",
"471 -102 OFFCURVE",
"453 -106 OFFCURVE",
"437 -106 CURVE SMOOTH",
"418 -106 OFFCURVE",
"405 -95 OFFCURVE",
"409 -78 CURVE SMOOTH",
"415 -50 OFFCURVE",
"448 -28 OFFCURVE",
"509 0 CURVE",
"327 0 LINE",
"280 -25 OFFCURVE",
"244 -65 OFFCURVE",
"232 -118 CURVE SMOOTH",
"218 -188 OFFCURVE",
"270 -218 OFFCURVE",
"347 -218 CURVE SMOOTH"
);
}
);
width = 559;
}
);
leftKerningGroup = E;
note = Eogonek;
rightKerningGroup = E;
unicode = 0118;
},
{
glyphname = Etilde;
lastChange = "2015-10-29 01:07:25 +0000";
layers = (
{
layerId = "3EB4D4D8-7151-4DFB-AE23-ECE37F7A1310";
name = Bold;
paths = (
{
closed = 1;
nodes = (
"507 0 LINE",
"543 174 LINE",
"243 174 LINE",
"264 270 LINE",
"480 270 LINE",
"514 429 LINE",
"298 429 LINE",
"318 525 LINE",
"618 525 LINE",
"655 699 LINE",
"148 699 LINE",
"0 0 LINE"
);
},
{
closed = 1;
nodes = (
"237 778 OFFCURVE",
"275 792 OFFCURVE",
"315 792 CURVE SMOOTH",
"379 792 OFFCURVE",
"433 742 OFFCURVE",
"506 742 CURVE SMOOTH",
"551 742 OFFCURVE",
"590 753 OFFCURVE",
"621 783 CURVE",
"650 923 LINE",
"613 888 OFFCURVE",
"575 874 OFFCURVE",
"534 874 CURVE SMOOTH",
"469 874 OFFCURVE",
"412 924 OFFCURVE",
"344 924 CURVE SMOOTH",
"300 924 OFFCURVE",
"259 912 OFFCURVE",
"228 883 CURVE",
"198 742 LINE"
);
}
);
width = 557;
}
);
leftKerningGroup = E;
note = Etilde;
rightKerningGroup = E;
unicode = 1EBC;
},
{
glyphname = F;
lastChange = "2015-10-29 01:07:24 +0000";
layers = (
{
layerId = "3EB4D4D8-7151-4DFB-AE23-ECE37F7A1310";
name = Bold;
paths = (
{
closed = 1;
nodes = (
"207 0 LINE",
"264 270 LINE",
"480 270 LINE",
"514 429 LINE",
"298 429 LINE",
"318 525 LINE",
"618 525 LINE",
"655 699 LINE",
"148 699 LINE",
"0 0 LINE"
);
}
);
width = 547;
}
);
note = F;
unicode = 0046;
},
{
glyphname = G;
lastChange = "2015-10-29 01:07:26 +0000";
layers = (
{
layerId = "3EB4D4D8-7151-4DFB-AE23-ECE37F7A1310";
name = Bold;
paths = (
{
closed = 1;
nodes = (
"472 -15 OFFCURVE",
"567 10 OFFCURVE",
"641 51 CURVE",
"716 401 LINE",
"431 401 LINE",
"403 270 LINE",
"499 270 LINE",
"480 181 LINE",
"460 173 OFFCURVE",
"435 169 OFFCURVE",
"407 169 CURVE SMOOTH",
"270 169 OFFCURVE",
"238 219 OFFCURVE",
"265 349 CURVE SMOOTH",
"288 460 OFFCURVE",
"354 528 OFFCURVE",
"494 528 CURVE SMOOTH",
"588 528 OFFCURVE",
"656 510 OFFCURVE",
"706 465 CURVE",
"747 656 LINE",
"699 693 OFFCURVE",
"616 714 OFFCURVE",
"515 714 CURVE SMOOTH",
"266 714 OFFCURVE",
"102 575 OFFCURVE",
"54 349 CURVE SMOOTH",
"6 123 OFFCURVE",
"141 -15 OFFCURVE",
"360 -15 CURVE SMOOTH"
);
}
);
width = 691;
}
);
leftKerningGroup = C;
note = G;
unicode = 0047;
},
{
glyphname = Gbreve;
lastChange = "2015-10-29 01:07:27 +0000";
layers = (
{
layerId = "3EB4D4D8-7151-4DFB-AE23-ECE37F7A1310";
name = Bold;
paths = (
{
closed = 1;
nodes = (
"472 -15 OFFCURVE",
"567 10 OFFCURVE",
"641 51 CURVE",
"716 401 LINE",
"431 401 LINE",
"403 270 LINE",
"499 270 LINE",
"480 181 LINE",
"460 173 OFFCURVE",
"435 169 OFFCURVE",
"407 169 CURVE SMOOTH",
"270 169 OFFCURVE",
"238 219 OFFCURVE",
"265 349 CURVE SMOOTH",
"288 460 OFFCURVE",
"354 528 OFFCURVE",
"494 528 CURVE SMOOTH",
"588 528 OFFCURVE",
"656 510 OFFCURVE",
"706 465 CURVE",
"747 656 LINE",
"699 693 OFFCURVE",
"616 714 OFFCURVE",
"515 714 CURVE SMOOTH",
"266 714 OFFCURVE",
"102 575 OFFCURVE",
"54 349 CURVE SMOOTH",
"6 123 OFFCURVE",
"141 -15 OFFCURVE",
"360 -15 CURVE SMOOTH"
);
},
{
closed = 1;
nodes = (
"638 741 OFFCURVE",
"722 812 OFFCURVE",
"746 925 CURVE",
"592 925 LINE",
"584 885 OFFCURVE",
"564 865 OFFCURVE",
"535 865 CURVE SMOOTH",
"505 865 OFFCURVE",
"494 885 OFFCURVE",
"502 925 CURVE",
"359 925 LINE",
"335 812 OFFCURVE",
"389 741 OFFCURVE",
"513 741 CURVE SMOOTH"
);
}
);
width = 691;
}
);
leftKerningGroup = C;
note = Gbreve;
unicode = 011E;
},
{
glyphname = Gcaron;
lastChange = "2015-10-29 01:07:27 +0000";
layers = (
{
layerId = "3EB4D4D8-7151-4DFB-AE23-ECE37F7A1310";
name = Bold;
paths = (
{
closed = 1;
nodes = (
"472 -15 OFFCURVE",
"567 10 OFFCURVE",
"641 51 CURVE",
"716 401 LINE",
"431 401 LINE",
"403 270 LINE",
"499 270 LINE",
"480 181 LINE",
"460 173 OFFCURVE",
"435 169 OFFCURVE",
"407 169 CURVE SMOOTH",
"270 169 OFFCURVE",
"238 219 OFFCURVE",
"265 349 CURVE SMOOTH",
"288 460 OFFCURVE",
"354 528 OFFCURVE",
"494 528 CURVE SMOOTH",
"588 528 OFFCURVE",
"656 510 OFFCURVE",
"706 465 CURVE",
"747 656 LINE",
"699 693 OFFCURVE",
"616 714 OFFCURVE",
"515 714 CURVE SMOOTH",
"266 714 OFFCURVE",
"102 575 OFFCURVE",
"54 349 CURVE SMOOTH",
"6 123 OFFCURVE",
"141 -15 OFFCURVE",
"360 -15 CURVE SMOOTH"
);
},
{
closed = 1;
nodes = (
"531 754 LINE",
"716 926 LINE",
"539 926 LINE",
"466 855 LINE",
"423 926 LINE",
"256 926 LINE",
"366 754 LINE"
);
}
);
width = 691;
}
);
leftKerningGroup = C;
note = Gcaron;
unicode = 01E6;
},
{
glyphname = Gcircumflex;
lastChange = "2015-10-29 01:07:26 +0000";
layers = (
{
layerId = "3EB4D4D8-7151-4DFB-AE23-ECE37F7A1310";
name = Bold;
paths = (
{
closed = 1;
nodes = (
"472 -15 OFFCURVE",
"567 10 OFFCURVE",
"641 51 CURVE",
"716 401 LINE",
"431 401 LINE",
"403 270 LINE",
"499 270 LINE",
"480 181 LINE",
"460 173 OFFCURVE",
"435 169 OFFCURVE",
"407 169 CURVE SMOOTH",
"270 169 OFFCURVE",
"238 219 OFFCURVE",
"265 349 CURVE SMOOTH",
"288 460 OFFCURVE",
"354 528 OFFCURVE",
"494 528 CURVE SMOOTH",
"588 528 OFFCURVE",
"656 510 OFFCURVE",
"706 465 CURVE",
"747 656 LINE",
"699 693 OFFCURVE",
"616 714 OFFCURVE",
"515 714 CURVE SMOOTH",
"266 714 OFFCURVE",
"102 575 OFFCURVE",
"54 349 CURVE SMOOTH",
"6 123 OFFCURVE",
"141 -15 OFFCURVE",
"360 -15 CURVE SMOOTH"
);
},
{
closed = 1;
nodes = (
"440 748 LINE",
"513 819 LINE",
"556 748 LINE",
"723 748 LINE",
"612 920 LINE",
"447 920 LINE",
"263 748 LINE"
);
}
);
width = 691;
}
);
leftKerningGroup = C;
note = Gcircumflex;
unicode = 011C;
},
{
glyphname = Gcommaaccent;
lastChange = "2015-10-29 01:07:26 +0000";
layers = (
{
layerId = "3EB4D4D8-7151-4DFB-AE23-ECE37F7A1310";
name = Bold;
paths = (
{
closed = 1;
nodes = (
"472 -15 OFFCURVE",
"567 10 OFFCURVE",
"641 51 CURVE",
"716 401 LINE",
"431 401 LINE",
"403 270 LINE",
"499 270 LINE",
"480 181 LINE",
"460 173 OFFCURVE",
"435 169 OFFCURVE",
"407 169 CURVE SMOOTH",
"270 169 OFFCURVE",
"238 219 OFFCURVE",
"265 349 CURVE SMOOTH",
"288 460 OFFCURVE",
"354 528 OFFCURVE",
"494 528 CURVE SMOOTH",
"588 528 OFFCURVE",
"656 510 OFFCURVE",
"706 465 CURVE",
"747 656 LINE",
"699 693 OFFCURVE",
"616 714 OFFCURVE",
"515 714 CURVE SMOOTH",
"266 714 OFFCURVE",
"102 575 OFFCURVE",
"54 349 CURVE SMOOTH",
"6 123 OFFCURVE",
"141 -15 OFFCURVE",
"360 -15 CURVE SMOOTH"
);
},
{
closed = 1;
nodes = (
"312 -260 LINE",
"466 -45 LINE",
"269 -45 LINE",
"141 -260 LINE"
);
}
);
width = 691;
}
);
leftKerningGroup = C;
note = Gcommaaccent;
unicode = 0122;
},
{
glyphname = Gdotaccent;
lastChange = "2015-10-29 01:07:25 +0000";
layers = (
{
layerId = "3EB4D4D8-7151-4DFB-AE23-ECE37F7A1310";
name = Bold;
paths = (
{
closed = 1;
nodes = (
"472 -15 OFFCURVE",
"567 10 OFFCURVE",
"641 51 CURVE",
"716 401 LINE",
"431 401 LINE",
"403 270 LINE",
"499 270 LINE",
"480 181 LINE",
"460 173 OFFCURVE",
"435 169 OFFCURVE",
"407 169 CURVE SMOOTH",
"270 169 OFFCURVE",
"238 219 OFFCURVE",
"265 349 CURVE SMOOTH",
"288 460 OFFCURVE",
"354 528 OFFCURVE",
"494 528 CURVE SMOOTH",
"588 528 OFFCURVE",
"656 510 OFFCURVE",
"706 465 CURVE",
"747 656 LINE",
"699 693 OFFCURVE",
"616 714 OFFCURVE",
"515 714 CURVE SMOOTH",
"266 714 OFFCURVE",
"102 575 OFFCURVE",
"54 349 CURVE SMOOTH",
"6 123 OFFCURVE",
"141 -15 OFFCURVE",
"360 -15 CURVE SMOOTH"
);
},
{
closed = 1;
nodes = (
"559 742 OFFCURVE",
"602 777 OFFCURVE",
"612 823 CURVE SMOOTH",
"622 869 OFFCURVE",
"594 906 OFFCURVE",
"549 906 CURVE SMOOTH",
"504 906 OFFCURVE",
"458 869 OFFCURVE",
"448 823 CURVE SMOOTH",
"438 777 OFFCURVE",
"469 742 OFFCURVE",
"514 742 CURVE SMOOTH"
);
}
);
width = 691;
}
);
leftKerningGroup = C;
note = Gdotaccent;
unicode = 0120;
},
{
glyphname = Gmacron;
lastChange = "2015-10-29 01:07:26 +0000";
layers = (
{
layerId = "3EB4D4D8-7151-4DFB-AE23-ECE37F7A1310";
name = Bold;
paths = (
{
closed = 1;
nodes = (
"472 -15 OFFCURVE",
"567 10 OFFCURVE",
"641 51 CURVE",
"716 401 LINE",
"431 401 LINE",
"403 270 LINE",
"499 270 LINE",
"480 181 LINE",
"460 173 OFFCURVE",
"435 169 OFFCURVE",
"407 169 CURVE SMOOTH",
"270 169 OFFCURVE",
"238 219 OFFCURVE",
"265 349 CURVE SMOOTH",
"288 460 OFFCURVE",
"354 528 OFFCURVE",
"494 528 CURVE SMOOTH",
"588 528 OFFCURVE",
"656 510 OFFCURVE",
"706 465 CURVE",
"747 656 LINE",
"699 693 OFFCURVE",
"616 714 OFFCURVE",
"515 714 CURVE SMOOTH",
"266 714 OFFCURVE",
"102 575 OFFCURVE",
"54 349 CURVE SMOOTH",
"6 123 OFFCURVE",
"141 -15 OFFCURVE",
"360 -15 CURVE SMOOTH"
);
},
{
closed = 1;
nodes = (
"680 757 LINE",
"705 875 LINE",
"350 875 LINE",
"325 757 LINE"
);
}
);
width = 691;
}
);
leftKerningGroup = C;
note = Gmacron;
unicode = 1E20;
},
{
glyphname = H;
lastChange = "2015-10-29 01:07:25 +0000";
layers = (
{
layerId = "3EB4D4D8-7151-4DFB-AE23-ECE37F7A1310";
name = Bold;
paths = (
{
closed = 1;
nodes = (
"207 0 LINE",
"263 268 LINE",
"496 268 LINE",
"440 0 LINE",
"647 0 LINE",
"795 699 LINE",
"588 699 LINE",
"533 442 LINE",
"300 442 LINE",
"355 699 LINE",
"148 699 LINE",
"0 0 LINE"
);
}
);
width = 727;
}
);
note = H;
unicode = 0048;
},
{
glyphname = Hbar;
lastChange = "2015-10-29 01:07:26 +0000";
layers = (
{
layerId = "3EB4D4D8-7151-4DFB-AE23-ECE37F7A1310";
name = Bold;
paths = (
{
closed = 1;
nodes = (
"243 0 LINE",
"297 257 LINE",
"522 257 LINE",
"468 0 LINE",
"679 0 LINE",
"788 517 LINE",
"831 517 LINE",
"859 649 LINE",
"816 649 LINE",
"827 699 LINE",
"616 699 LINE",
"605 649 LINE",
"380 649 LINE",
"391 699 LINE",
"180 699 LINE",
"169 649 LINE",
"127 649 LINE",
"99 517 LINE",
"141 517 LINE",
"32 0 LINE"
);
},
{
closed = 1;
nodes = (
"352 517 LINE",
"577 517 LINE",
"564 453 LINE",
"339 453 LINE"
);
}
);
width = 792;
}
);
note = Hbar;
unicode = 0126;
},
{
glyphname = Hbrevebelow;
lastChange = "2015-10-29 01:07:24 +0000";
layers = (
{
layerId = "3EB4D4D8-7151-4DFB-AE23-ECE37F7A1310";
name = Bold;
paths = (
{
closed = 1;
nodes = (
"207 0 LINE",
"263 268 LINE",
"496 268 LINE",
"440 0 LINE",
"647 0 LINE",
"795 699 LINE",
"588 699 LINE",
"533 442 LINE",
"300 442 LINE",
"355 699 LINE",
"148 699 LINE",
"0 0 LINE"
);
},
{
closed = 1;
nodes = (
"397 -236 OFFCURVE",
"481 -165 OFFCURVE",
"505 -52 CURVE",
"351 -52 LINE",
"343 -92 OFFCURVE",
"323 -112 OFFCURVE",
"295 -112 CURVE SMOOTH",
"265 -112 OFFCURVE",
"254 -92 OFFCURVE",
"262 -52 CURVE",
"118 -52 LINE",
"94 -165 OFFCURVE",
"148 -236 OFFCURVE",
"273 -236 CURVE SMOOTH"
);
}
);
width = 727;
}
);
note = Hbrevebelow;
unicode = 1E2A;
},
{
glyphname = Hcircumflex;
lastChange = "2015-10-29 01:07:25 +0000";
layers = (
{
layerId = "3EB4D4D8-7151-4DFB-AE23-ECE37F7A1310";
name = Bold;
paths = (
{
closed = 1;
nodes = (
"207 0 LINE",
"263 268 LINE",
"496 268 LINE",
"440 0 LINE",
"647 0 LINE",
"795 699 LINE",
"588 699 LINE",
"533 442 LINE",
"300 442 LINE",
"355 699 LINE",
"148 699 LINE",
"0 0 LINE"
);
},
{
closed = 1;
nodes = (
"409 748 LINE",
"482 819 LINE",
"525 748 LINE",
"692 748 LINE",
"581 920 LINE",
"416 920 LINE",
"232 748 LINE"
);
}
);
width = 727;
}
);
note = Hcircumflex;
unicode = 0124;
},
{
glyphname = Hdotbelow;
lastChange = "2015-10-29 01:07:27 +0000";
layers = (
{
layerId = "3EB4D4D8-7151-4DFB-AE23-ECE37F7A1310";
name = Bold;
paths = (
{
closed = 1;
nodes = (
"207 0 LINE",
"263 268 LINE",
"496 268 LINE",
"440 0 LINE",
"647 0 LINE",
"795 699 LINE",
"588 699 LINE",
"533 442 LINE",
"300 442 LINE",
"355 699 LINE",
"148 699 LINE",
"0 0 LINE"
);
},
{
closed = 1;
nodes = (
"324 -210 OFFCURVE",
"368 -174 OFFCURVE",
"377 -128 CURVE SMOOTH",
"387 -82 OFFCURVE",
"359 -46 OFFCURVE",
"315 -46 CURVE SMOOTH",
"270 -46 OFFCURVE",
"224 -82 OFFCURVE",
"214 -128 CURVE SMOOTH",
"205 -174 OFFCURVE",
"235 -210 OFFCURVE",
"280 -210 CURVE SMOOTH"
);
}
);
width = 727;
}
);
note = Hdotbelow;
unicode = 1E24;
},
{
glyphname = I;
lastChange = "2015-10-29 01:07:26 +0000";
layers = (
{
layerId = "3EB4D4D8-7151-4DFB-AE23-ECE37F7A1310";
name = Bold;
paths = (
{
closed = 1;
nodes = (
"207 0 LINE",
"355 699 LINE",
"148 699 LINE",
"0 0 LINE"
);
}
);
width = 287;
}
);
note = I;
unicode = 0049;
},
{
glyphname = IJ;
lastChange = "2015-10-29 01:07:26 +0000";
layers = (
{
layerId = "3EB4D4D8-7151-4DFB-AE23-ECE37F7A1310";
name = Bold;
paths = (
{
closed = 1;
nodes = (
"538 -15 OFFCURVE",
"621 76 OFFCURVE",
"652 222 CURVE SMOOTH",
"753 699 LINE",
"546 699 LINE",
"450 246 LINE SMOOTH",
"439 193 OFFCURVE",
"416 172 OFFCURVE",
"360 172 CURVE SMOOTH",
"329 172 OFFCURVE",
"300 178 OFFCURVE",
"281 188 CURVE",
"244 10 LINE",
"265 -4 OFFCURVE",
"323 -15 OFFCURVE",
"367 -15 CURVE SMOOTH"
);
},
{
closed = 1;
nodes = (
"207 0 LINE",
"355 699 LINE",
"148 699 LINE",
"0 0 LINE"
);
}
);
width = 680;
}
);
note = IJ;
rightKerningGroup = J;
unicode = 0132;
},
{
glyphname = Iacute;
lastChange = "2015-10-29 01:07:26 +0000";
layers = (
{
layerId = "3EB4D4D8-7151-4DFB-AE23-ECE37F7A1310";
name = Bold;
paths = (
{
closed = 1;
nodes = (
"207 0 LINE",
"355 699 LINE",
"148 699 LINE",
"0 0 LINE"
);
},
{
closed = 1;
nodes = (
"326 737 LINE",
"457 917 LINE",
"256 917 LINE",
"149 737 LINE"
);
}
);
width = 287;
}
);
note = Iacute;
unicode = 00CD;
},
{
glyphname = Ibreve;
lastChange = "2015-10-29 01:07:25 +0000";
layers = (
{
layerId = "3EB4D4D8-7151-4DFB-AE23-ECE37F7A1310";
name = Bold;
paths = (
{
closed = 1;
nodes = (
"207 0 LINE",
"355 699 LINE",
"148 699 LINE",
"0 0 LINE"
);
},
{
closed = 1;
nodes = (
"364 741 OFFCURVE",
"448 812 OFFCURVE",
"472 925 CURVE",
"318 925 LINE",
"310 885 OFFCURVE",
"290 865 OFFCURVE",
"261 865 CURVE SMOOTH",
"231 865 OFFCURVE",
"220 885 OFFCURVE",
"228 925 CURVE",
"85 925 LINE",
"61 812 OFFCURVE",
"115 741 OFFCURVE",
"239 741 CURVE SMOOTH"
);
}
);
width = 287;
}
);
note = Ibreve;
unicode = 012C;
},
{
glyphname = Icaron;
lastChange = "2015-10-29 01:07:26 +0000";
layers = (
{
layerId = "3EB4D4D8-7151-4DFB-AE23-ECE37F7A1310";
name = Bold;
paths = (
{
closed = 1;
nodes = (
"207 0 LINE",
"355 699 LINE",
"148 699 LINE",
"0 0 LINE"
);
},
{
closed = 1;
nodes = (
"324 751 LINE",
"509 923 LINE",
"332 923 LINE",
"259 852 LINE",
"216 923 LINE",
"49 923 LINE",
"159 751 LINE"
);
}
);
width = 287;
}
);
note = Icaron;
unicode = 01CF;
},
{
glyphname = Icircumflex;
lastChange = "2015-10-29 01:07:26 +0000";
layers = (
{
layerId = "3EB4D4D8-7151-4DFB-AE23-ECE37F7A1310";
name = Bold;
paths = (
{
closed = 1;
nodes = (
"207 0 LINE",
"355 699 LINE",
"148 699 LINE",
"0 0 LINE"
);
},
{
closed = 1;
nodes = (
"187 741 LINE",
"260 812 LINE",
"303 741 LINE",
"470 741 LINE",
"359 913 LINE",
"194 913 LINE",
"10 741 LINE"
);
}
);
width = 287;
}
);
note = Icircumflex;
unicode = 00CE;
},
{
glyphname = Idieresis;
lastChange = "2015-10-29 01:07:27 +0000";
layers = (
{
layerId = "3EB4D4D8-7151-4DFB-AE23-ECE37F7A1310";
name = Bold;
paths = (
{
closed = 1;
nodes = (
"207 0 LINE",
"355 699 LINE",
"148 699 LINE",
"0 0 LINE"
);
},
{
closed = 1;
nodes = (
"168 742 OFFCURVE",
"212 777 OFFCURVE",
"222 823 CURVE SMOOTH",
"232 869 OFFCURVE",
"203 906 OFFCURVE",
"158 906 CURVE SMOOTH",
"115 906 OFFCURVE",
"68 869 OFFCURVE",
"58 823 CURVE SMOOTH",
"48 777 OFFCURVE",
"80 742 OFFCURVE",
"123 742 CURVE SMOOTH"
);
},
{
closed = 1;
nodes = (
"403 742 OFFCURVE",
"447 777 OFFCURVE",
"457 823 CURVE SMOOTH",
"467 869 OFFCURVE",
"438 906 OFFCURVE",
"394 906 CURVE SMOOTH",
"349 906 OFFCURVE",
"303 869 OFFCURVE",
"293 823 CURVE SMOOTH",
"283 777 OFFCURVE",
"314 742 OFFCURVE",
"359 742 CURVE SMOOTH"
);
}
);
width = 287;
}
);
note = Idieresis;
unicode = 00CF;
},
{
glyphname = Idotaccent;
lastChange = "2015-10-29 01:07:26 +0000";
layers = (
{
layerId = "3EB4D4D8-7151-4DFB-AE23-ECE37F7A1310";
name = Bold;
paths = (
{
closed = 1;
nodes = (
"207 0 LINE",
"355 699 LINE",
"148 699 LINE",
"0 0 LINE"
);
},
{
closed = 1;
nodes = (
"286 742 OFFCURVE",
"329 777 OFFCURVE",
"339 823 CURVE SMOOTH",
"349 869 OFFCURVE",
"321 906 OFFCURVE",
"276 906 CURVE SMOOTH",
"231 906 OFFCURVE",
"185 869 OFFCURVE",
"175 823 CURVE SMOOTH",
"165 777 OFFCURVE",
"196 742 OFFCURVE",
"241 742 CURVE SMOOTH"
);
}
);
width = 287;
}
);
note = Idotaccent;
unicode = 0130;
},
{
glyphname = Idotbelow;
lastChange = "2015-10-29 01:07:25 +0000";
layers = (
{
layerId = "3EB4D4D8-7151-4DFB-AE23-ECE37F7A1310";
name = Bold;
paths = (
{
closed = 1;
nodes = (
"207 0 LINE",
"355 699 LINE",
"148 699 LINE",
"0 0 LINE"
);
},
{
closed = 1;
nodes = (
"104 -210 OFFCURVE",
"148 -174 OFFCURVE",
"157 -128 CURVE SMOOTH",
"167 -82 OFFCURVE",
"139 -46 OFFCURVE",
"95 -46 CURVE SMOOTH",
"50 -46 OFFCURVE",
"4 -82 OFFCURVE",
"-6 -128 CURVE SMOOTH",
"-15 -174 OFFCURVE",
"15 -210 OFFCURVE",
"60 -210 CURVE SMOOTH"
);
}
);
width = 287;
}
);
note = Idotbelow;
unicode = 1ECA;
},
{
glyphname = Igrave;
lastChange = "2015-10-29 01:07:25 +0000";
layers = (
{
layerId = "3EB4D4D8-7151-4DFB-AE23-ECE37F7A1310";
name = Bold;
paths = (
{
closed = 1;
nodes = (
"207 0 LINE",
"355 699 LINE",
"148 699 LINE",
"0 0 LINE"
);
},
{
closed = 1;
nodes = (
"330 737 LINE",
"299 917 LINE",
"98 917 LINE",
"153 737 LINE"
);
}
);
width = 287;
}
);
note = Igrave;
unicode = 00CC;
},
{
glyphname = Ihookabove;
lastChange = "2015-10-29 01:07:25 +0000";
layers = (
{
layerId = "3EB4D4D8-7151-4DFB-AE23-ECE37F7A1310";
name = Bold;
paths = (
{
closed = 1;
nodes = (
"207 0 LINE",
"355 699 LINE",
"148 699 LINE",
"0 0 LINE"
);
},
{
closed = 1;
nodes = (
"324 742 LINE",
"330 772 LINE",
"399 783 OFFCURVE",
"437 820 OFFCURVE",
"448 868 CURVE SMOOTH",
"461 933 OFFCURVE",
"416 978 OFFCURVE",
"303 978 CURVE SMOOTH",
"251 978 OFFCURVE",
"202 970 OFFCURVE",
"169 960 CURVE",
"151 876 LINE",
"164 881 OFFCURVE",
"192 886 OFFCURVE",
"215 886 CURVE SMOOTH",
"262 886 OFFCURVE",
"274 871 OFFCURVE",
"270 853 CURVE SMOOTH",
"264 825 OFFCURVE",
"228 814 OFFCURVE",
"173 814 CURVE",
"158 742 LINE"
);
}
);
width = 287;
}
);
note = Ihookabove;
unicode = 1EC8;
},
{
glyphname = Imacron;
lastChange = "2015-10-29 01:07:25 +0000";
layers = (
{
layerId = "3EB4D4D8-7151-4DFB-AE23-ECE37F7A1310";
name = Bold;
paths = (
{
closed = 1;
nodes = (
"207 0 LINE",
"355 699 LINE",
"148 699 LINE",
"0 0 LINE"
);
},
{
closed = 1;
nodes = (
"448 747 LINE",
"476 875 LINE",
"103 875 LINE",
"75 747 LINE"
);
}
);
width = 287;
}
);
note = Imacron;
unicode = 012A;
},
{
glyphname = Iogonek;
lastChange = "2015-10-29 01:07:26 +0000";
layers = (
{
layerId = "3EB4D4D8-7151-4DFB-AE23-ECE37F7A1310";
name = Bold;
paths = (
{
closed = 1;
nodes = (
"207 0 LINE",
"355 699 LINE",
"148 699 LINE",
"0 0 LINE"
);
},
{
closed = 1;
nodes = (
"82 -218 OFFCURVE",
"128 -211 OFFCURVE",
"159 -202 CURVE",
"182 -94 LINE",
"164 -102 OFFCURVE",
"146 -106 OFFCURVE",
"130 -106 CURVE SMOOTH",
"111 -106 OFFCURVE",
"98 -95 OFFCURVE",
"102 -78 CURVE SMOOTH",
"108 -50 OFFCURVE",
"141 -28 OFFCURVE",
"202 0 CURVE",
"20 0 LINE",
"-27 -25 OFFCURVE",
"-63 -65 OFFCURVE",
"-75 -118 CURVE SMOOTH",
"-89 -188 OFFCURVE",
"-37 -218 OFFCURVE",
"40 -218 CURVE SMOOTH"
);
}
);
width = 287;
}
);
note = Iogonek;
unicode = 012E;
},
{
glyphname = Itilde;
lastChange = "2015-10-29 01:07:26 +0000";
layers = (
{
layerId = "3EB4D4D8-7151-4DFB-AE23-ECE37F7A1310";
name = Bold;
paths = (
{
closed = 1;
nodes = (
"207 0 LINE",
"355 699 LINE",
"148 699 LINE",
"0 0 LINE"
);
},
{
closed = 1;
nodes = (
"73 778 OFFCURVE",
"111 792 OFFCURVE",
"151 792 CURVE SMOOTH",
"215 792 OFFCURVE",
"269 742 OFFCURVE",
"342 742 CURVE SMOOTH",
"387 742 OFFCURVE",
"426 753 OFFCURVE",
"457 783 CURVE",
"486 923 LINE",
"449 888 OFFCURVE",
"411 874 OFFCURVE",
"370 874 CURVE SMOOTH",
"305 874 OFFCURVE",
"248 924 OFFCURVE",
"180 924 CURVE SMOOTH",
"136 924 OFFCURVE",
"95 912 OFFCURVE",
"64 883 CURVE",
"34 742 LINE"
);
}
);
width = 287;
}
);
note = Itilde;
unicode = 0128;
},
{
glyphname = J;
lastChange = "2015-10-29 01:07:27 +0000";
layers = (
{
layerId = "3EB4D4D8-7151-4DFB-AE23-ECE37F7A1310";
name = Bold;
paths = (
{
closed = 1;
nodes = (
"256 -15 OFFCURVE",
"339 76 OFFCURVE",
"370 222 CURVE SMOOTH",
"471 699 LINE",
"264 699 LINE",
"168 246 LINE SMOOTH",
"157 193 OFFCURVE",
"134 172 OFFCURVE",
"78 172 CURVE SMOOTH",
"47 172 OFFCURVE",
"18 178 OFFCURVE",
"-1 188 CURVE",
"-38 10 LINE",
"-17 -4 OFFCURVE",
"41 -15 OFFCURVE",
"85 -15 CURVE SMOOTH"
);
}
);
width = 398;
}
);
note = J;
rightKerningGroup = J;
unicode = 004A;
},
{
glyphname = Jcircumflex;
lastChange = "2015-10-29 01:07:25 +0000";
layers = (
{
layerId = "3EB4D4D8-7151-4DFB-AE23-ECE37F7A1310";
name = Bold;
paths = (
{
closed = 1;
nodes = (
"256 -15 OFFCURVE",
"339 76 OFFCURVE",
"370 222 CURVE SMOOTH",
"471 699 LINE",
"264 699 LINE",
"168 246 LINE SMOOTH",
"157 193 OFFCURVE",
"134 172 OFFCURVE",
"78 172 CURVE SMOOTH",
"47 172 OFFCURVE",
"18 178 OFFCURVE",
"-1 188 CURVE",
"-38 10 LINE",
"-17 -4 OFFCURVE",
"41 -15 OFFCURVE",
"85 -15 CURVE SMOOTH"
);
},
{
closed = 1;
nodes = (
"296 741 LINE",
"369 812 LINE",
"412 741 LINE",
"579 741 LINE",
"468 913 LINE",
"303 913 LINE",
"119 741 LINE"
);
}
);
width = 398;
}
);
note = Jcircumflex;
rightKerningGroup = J;
unicode = 0134;
},
{
glyphname = K;
lastChange = "2015-10-29 01:07:26 +0000";
layers = (
{
layerId = "3EB4D4D8-7151-4DFB-AE23-ECE37F7A1310";
name = Bold;
paths = (
{
closed = 1;
nodes = (
"207 0 LINE",
"269 292 LINE",
"441 0 LINE",
"685 0 LINE",
"473 360 LINE",
"814 699 LINE",
"570 699 LINE",
"297 428 LINE",
"355 699 LINE",
"148 699 LINE",
"0 0 LINE"
);
}
);
width = 745;
}
);
leftKerningGroup = K;
note = K;
rightKerningGroup = K;
unicode = 004B;
},
{
glyphname = Kcommaaccent;
lastChange = "2015-10-29 01:07:26 +0000";
layers = (
{
layerId = "3EB4D4D8-7151-4DFB-AE23-ECE37F7A1310";
name = Bold;
paths = (
{
closed = 1;
nodes = (
"207 0 LINE",
"269 292 LINE",
"441 0 LINE",
"685 0 LINE",
"473 360 LINE",
"814 699 LINE",
"570 699 LINE",
"297 428 LINE",
"355 699 LINE",
"148 699 LINE",
"0 0 LINE"
);
},
{
closed = 1;
nodes = (
"256 -260 LINE",
"410 -45 LINE",
"213 -45 LINE",
"85 -260 LINE"
);
}
);
width = 745;
}
);
leftKerningGroup = K;
note = Kcommaaccent;
rightKerningGroup = K;
unicode = 0136;
},
{
glyphname = L;
lastChange = "2015-10-29 01:07:25 +0000";
layers = (
{
layerId = "3EB4D4D8-7151-4DFB-AE23-ECE37F7A1310";
name = Bold;
paths = (
{
closed = 1;
nodes = (
"489 0 LINE",
"525 174 LINE",
"243 174 LINE",
"355 699 LINE",
"148 699 LINE",
"0 0 LINE"
);
}
);
width = 529;
}
);
note = L;
rightKerningGroup = L;
unicode = 004C;
},
{
glyphname = Lacute;
lastChange = "2015-10-29 01:07:25 +0000";
layers = (
{
layerId = "3EB4D4D8-7151-4DFB-AE23-ECE37F7A1310";
name = Bold;
paths = (
{
closed = 1;
nodes = (
"489 0 LINE",
"525 174 LINE",
"243 174 LINE",
"355 699 LINE",
"148 699 LINE",
"0 0 LINE"
);
},
{
closed = 1;
nodes = (
"332 740 LINE",
"463 920 LINE",
"262 920 LINE",
"155 740 LINE"
);
}
);
width = 529;
}
);
note = Lacute;
rightKerningGroup = L;
unicode = 0139;
},
{
glyphname = Lcaron;
lastChange = "2015-10-29 01:07:26 +0000";
layers = (
{
layerId = "3EB4D4D8-7151-4DFB-AE23-ECE37F7A1310";
name = Bold;
paths = (
{
closed = 1;
nodes = (
"489 0 LINE",
"525 174 LINE",
"243 174 LINE",
"355 699 LINE",
"148 699 LINE",
"0 0 LINE"
);
},
{
closed = 1;
nodes = (
"559 503 LINE",
"713 718 LINE",
"516 718 LINE",
"388 503 LINE"
);
}
);
width = 549;
}
);
note = Lcaron;
rightKerningGroup = L;
unicode = 013D;
},
{
glyphname = Lcommaaccent;
lastChange = "2015-10-29 01:07:26 +0000";
layers = (
{
layerId = "3EB4D4D8-7151-4DFB-AE23-ECE37F7A1310";
name = Bold;
paths = (
{
closed = 1;
nodes = (
"489 0 LINE",
"525 174 LINE",
"243 174 LINE",
"355 699 LINE",
"148 699 LINE",
"0 0 LINE"
);
},
{
closed = 1;
nodes = (
"207 -260 LINE",
"361 -45 LINE",
"164 -45 LINE",
"36 -260 LINE"
);
}
);
width = 529;
}
);
note = Lcommaaccent;
rightKerningGroup = L;
unicode = 013B;
},
{
glyphname = Ldot;
lastChange = "2015-10-29 01:07:25 +0000";
layers = (
{
layerId = "3EB4D4D8-7151-4DFB-AE23-ECE37F7A1310";
name = Bold;
paths = (
{
closed = 1;
nodes = (
"489 0 LINE",
"525 174 LINE",
"243 174 LINE",
"355 699 LINE",
"148 699 LINE",
"0 0 LINE"
);
},
{
closed = 1;
nodes = (
"478 317 OFFCURVE",
"521 352 OFFCURVE",
"531 398 CURVE SMOOTH",
"541 444 OFFCURVE",
"513 481 OFFCURVE",
"468 481 CURVE SMOOTH",
"423 481 OFFCURVE",
"377 444 OFFCURVE",
"367 398 CURVE SMOOTH",
"357 352 OFFCURVE",
"388 317 OFFCURVE",
"433 317 CURVE SMOOTH"
);
}
);
width = 529;
}
);
note = Ldot;
rightKerningGroup = L;
unicode = 013F;
},
{
glyphname = Ldotbelow;
lastChange = "2015-10-29 01:07:26 +0000";
layers = (
{
layerId = "3EB4D4D8-7151-4DFB-AE23-ECE37F7A1310";
name = Bold;
paths = (
{
closed = 1;
nodes = (
"489 0 LINE",
"525 174 LINE",
"243 174 LINE",
"355 699 LINE",
"148 699 LINE",
"0 0 LINE"
);
},
{
closed = 1;
nodes = (
"236 -210 OFFCURVE",
"280 -174 OFFCURVE",
"289 -128 CURVE SMOOTH",
"299 -82 OFFCURVE",
"271 -46 OFFCURVE",
"227 -46 CURVE SMOOTH",
"182 -46 OFFCURVE",
"136 -82 OFFCURVE",
"126 -128 CURVE SMOOTH",
"117 -174 OFFCURVE",
"147 -210 OFFCURVE",
"192 -210 CURVE SMOOTH"
);
}
);
width = 529;
}
);
note = Ldotbelow;
rightKerningGroup = L;
unicode = 1E36;
},
{
glyphname = Ldotbelowmacron;
lastChange = "2015-10-29 01:07:26 +0000";
layers = (
{
layerId = "3EB4D4D8-7151-4DFB-AE23-ECE37F7A1310";
name = Bold;
paths = (
{
closed = 1;
nodes = (
"490 0 LINE",
"526 174 LINE",
"244 174 LINE",
"356 699 LINE",
"149 699 LINE",
"1 0 LINE"
);
},
{
closed = 1;
nodes = (
"242 -210 OFFCURVE",
"286 -174 OFFCURVE",
"295 -128 CURVE SMOOTH",
"305 -82 OFFCURVE",
"277 -46 OFFCURVE",
"233 -46 CURVE SMOOTH",
"188 -46 OFFCURVE",
"142 -82 OFFCURVE",
"132 -128 CURVE SMOOTH",
"123 -174 OFFCURVE",
"153 -210 OFFCURVE",
"198 -210 CURVE SMOOTH"
);
},
{
closed = 1;
nodes = (
"457 764 LINE",
"482 882 LINE",
"127 882 LINE",
"102 764 LINE"
);
}
);
width = 530;
}
);
note = Ldotbelowmacron;
rightKerningGroup = L;
unicode = 1E38;
},
{
glyphname = Llinebelow;
lastChange = "2015-10-29 01:07:27 +0000";
layers = (
{
layerId = "3EB4D4D8-7151-4DFB-AE23-ECE37F7A1310";
name = Bold;
paths = (
{
closed = 1;
nodes = (
"489 0 LINE",
"525 174 LINE",
"243 174 LINE",
"355 699 LINE",
"148 699 LINE",
"0 0 LINE"
);
},
{
closed = 1;
nodes = (
"389 -172 LINE",
"414 -54 LINE",
"59 -54 LINE",
"34 -172 LINE"
);
}
);
width = 529;
}
);
note = Llinebelow;
rightKerningGroup = L;
unicode = 1E3A;
},
{
glyphname = Lslash;
lastChange = "2015-10-29 01:07:27 +0000";
layers = (
{
layerId = "3EB4D4D8-7151-4DFB-AE23-ECE37F7A1310";
name = Bold;
paths = (
{
closed = 1;
nodes = (
"497 0 LINE",
"534 177 LINE",
"256 177 LINE",
"290 337 LINE",
"429 394 LINE",
"470 587 LINE",
"331 530 LINE",
"367 699 LINE",
"156 699 LINE",
"100 436 LINE",
"26 406 LINE",
"-15 212 LINE",
"59 242 LINE",
"8 0 LINE"
);
}
);
width = 537;
}
);
note = Lslash;
rightKerningGroup = L;
unicode = 0141;
},
{
glyphname = M;
lastChange = "2015-10-29 01:07:26 +0000";
layers = (
{
layerId = "3EB4D4D8-7151-4DFB-AE23-ECE37F7A1310";
name = Bold;
paths = (
{
closed = 1;
nodes = (
"193 0 LINE",
"258 310 LINE",
"336 0 LINE",
"422 0 LINE",
"630 310 LINE",
"565 0 LINE",
"758 0 LINE",
"906 699 LINE",
"707 699 LINE",
"430 288 LINE",
"327 699 LINE",
"148 699 LINE",
"0 0 LINE"
);
}
);
width = 838;
}
);
note = M;
unicode = 004D;
},
{
glyphname = Mdotbelow;
lastChange = "2015-10-29 01:07:25 +0000";
layers = (
{
layerId = "3EB4D4D8-7151-4DFB-AE23-ECE37F7A1310";
name = Bold;
paths = (
{
closed = 1;
nodes = (
"193 0 LINE",
"258 310 LINE",
"336 0 LINE",
"422 0 LINE",
"630 310 LINE",
"565 0 LINE",
"758 0 LINE",
"906 699 LINE",
"707 699 LINE",
"430 288 LINE",
"327 699 LINE",
"148 699 LINE",
"0 0 LINE"
);
},
{
closed = 1;
nodes = (
"386 -210 OFFCURVE",
"430 -174 OFFCURVE",
"439 -128 CURVE SMOOTH",
"449 -82 OFFCURVE",
"421 -46 OFFCURVE",
"377 -46 CURVE SMOOTH",
"332 -46 OFFCURVE",
"286 -82 OFFCURVE",
"276 -128 CURVE SMOOTH",
"267 -174 OFFCURVE",
"297 -210 OFFCURVE",
"342 -210 CURVE SMOOTH"
);
}
);
width = 838;
}
);
note = Mdotbelow;
unicode = 1E42;
},
{
glyphname = N;
lastChange = "2015-10-29 01:07:25 +0000";
layers = (
{
layerId = "3EB4D4D8-7151-4DFB-AE23-ECE37F7A1310";
name = Bold;
paths = (
{
closed = 1;
nodes = (
"207 0 LINE",
"284 366 LINE",
"426 0 LINE",
"626 0 LINE",
"774 699 LINE",
"567 699 LINE",
"489 333 LINE",
"349 699 LINE",
"148 699 LINE",
"0 0 LINE"
);
}
);
width = 706;
}
);
note = N;
unicode = 004E;
},
{
glyphname = Nacute;
lastChange = "2015-10-29 01:07:27 +0000";
layers = (
{
layerId = "3EB4D4D8-7151-4DFB-AE23-ECE37F7A1310";
name = Bold;
paths = (
{
closed = 1;
nodes = (
"207 0 LINE",
"284 366 LINE",
"426 0 LINE",
"626 0 LINE",
"774 699 LINE",
"567 699 LINE",
"489 333 LINE",
"349 699 LINE",
"148 699 LINE",
"0 0 LINE"
);
},
{
closed = 1;
nodes = (
"536 737 LINE",
"667 917 LINE",
"466 917 LINE",
"359 737 LINE"
);
}
);
width = 706;
}
);
note = Nacute;
unicode = 0143;
},
{
glyphname = Ncaron;
lastChange = "2015-10-29 01:07:25 +0000";
layers = (
{
layerId = "3EB4D4D8-7151-4DFB-AE23-ECE37F7A1310";
name = Bold;
paths = (
{
closed = 1;
nodes = (
"207 0 LINE",
"284 366 LINE",
"426 0 LINE",
"626 0 LINE",
"774 699 LINE",
"567 699 LINE",
"489 333 LINE",
"349 699 LINE",
"148 699 LINE",
"0 0 LINE"
);
},
{
closed = 1;
nodes = (
"541 748 LINE",
"726 920 LINE",
"549 920 LINE",
"476 849 LINE",
"433 920 LINE",
"266 920 LINE",
"376 748 LINE"
);
}
);
width = 706;
}
);
note = Ncaron;
unicode = 0147;
},
{
glyphname = Ncommaaccent;
lastChange = "2015-10-29 01:07:25 +0000";
layers = (
{
layerId = "3EB4D4D8-7151-4DFB-AE23-ECE37F7A1310";
name = Bold;
paths = (
{
closed = 1;
nodes = (
"207 0 LINE",
"284 366 LINE",
"426 0 LINE",
"626 0 LINE",
"774 699 LINE",
"567 699 LINE",
"489 333 LINE",
"349 699 LINE",
"148 699 LINE",
"0 0 LINE"
);
},
{
closed = 1;
nodes = (
"262 -260 LINE",
"416 -45 LINE",
"219 -45 LINE",
"91 -260 LINE"
);
}
);
width = 706;
}
);
note = Ncommaaccent;
unicode = 0145;
},
{
glyphname = Ndotaccent;
lastChange = "2015-10-29 01:07:26 +0000";
layers = (
{
layerId = "3EB4D4D8-7151-4DFB-AE23-ECE37F7A1310";
name = Bold;
paths = (
{
closed = 1;
nodes = (
"207 0 LINE",
"284 366 LINE",
"426 0 LINE",
"626 0 LINE",
"774 699 LINE",
"567 699 LINE",
"489 333 LINE",
"349 699 LINE",
"148 699 LINE",
"0 0 LINE"
);
},
{
closed = 1;
nodes = (
"503 742 OFFCURVE",
"546 777 OFFCURVE",
"556 823 CURVE SMOOTH",
"566 869 OFFCURVE",
"538 906 OFFCURVE",
"493 906 CURVE SMOOTH",
"448 906 OFFCURVE",
"402 869 OFFCURVE",
"392 823 CURVE SMOOTH",
"382 777 OFFCURVE",
"413 742 OFFCURVE",
"458 742 CURVE SMOOTH"
);
}
);
width = 706;
}
);
note = Ndotaccent;
unicode = 1E44;
},
{
glyphname = Ndotbelow;
lastChange = "2015-10-29 01:07:24 +0000";
layers = (
{
layerId = "3EB4D4D8-7151-4DFB-AE23-ECE37F7A1310";
name = Bold;
paths = (
{
closed = 1;
nodes = (
"207 0 LINE",
"284 366 LINE",
"426 0 LINE",
"626 0 LINE",
"774 699 LINE",
"567 699 LINE",
"489 333 LINE",
"349 699 LINE",
"148 699 LINE",
"0 0 LINE"
);
},
{
closed = 1;
nodes = (
"320 -210 OFFCURVE",
"364 -174 OFFCURVE",
"373 -128 CURVE SMOOTH",
"383 -82 OFFCURVE",
"355 -46 OFFCURVE",
"311 -46 CURVE SMOOTH",
"266 -46 OFFCURVE",
"220 -82 OFFCURVE",
"210 -128 CURVE SMOOTH",
"201 -174 OFFCURVE",
"231 -210 OFFCURVE",
"276 -210 CURVE SMOOTH"
);
}
);
width = 706;
}
);
note = Ndotbelow;
unicode = 1E46;
},
{
glyphname = Eng;
lastChange = "2015-10-29 01:07:27 +0000";
layers = (
{
layerId = "3EB4D4D8-7151-4DFB-AE23-ECE37F7A1310";
name = Bold;
paths = (
{
closed = 1;
nodes = (
"493 -231 OFFCURVE",
"591 -161 OFFCURVE",
"621 -20 CURVE SMOOTH",
"774 699 LINE",
"567 699 LINE",
"489 333 LINE",
"349 699 LINE",
"148 699 LINE",
"0 0 LINE",
"207 0 LINE",
"284 366 LINE",
"426 6 LINE",
"424 -1 LINE",
"414 -48 OFFCURVE",
"383 -68 OFFCURVE",
"343 -68 CURVE SMOOTH",
"313 -68 OFFCURVE",
"293 -63 OFFCURVE",
"275 -53 CURVE",
"241 -212 LINE",
"264 -224 OFFCURVE",
"296 -231 OFFCURVE",
"339 -231 CURVE SMOOTH"
);
}
);
width = 706;
}
);
note = Eng;
unicode = 014A;
},
{
glyphname = Nlinebelow;
lastChange = "2015-10-29 01:07:24 +0000";
layers = (
{
layerId = "3EB4D4D8-7151-4DFB-AE23-ECE37F7A1310";
name = Bold;
paths = (
{
closed = 1;
nodes = (
"207 0 LINE",
"284 366 LINE",
"426 0 LINE",
"626 0 LINE",
"774 699 LINE",
"567 699 LINE",
"489 333 LINE",
"349 699 LINE",
"148 699 LINE",
"0 0 LINE"
);
},
{
closed = 1;
nodes = (
"462 -172 LINE",
"487 -54 LINE",
"132 -54 LINE",
"107 -172 LINE"
);
}
);
width = 706;
}
);
note = Nlinebelow;
unicode = 1E48;
},
{
glyphname = Ntilde;
lastChange = "2015-10-29 01:07:25 +0000";
layers = (
{
layerId = "3EB4D4D8-7151-4DFB-AE23-ECE37F7A1310";
name = Bold;
paths = (
{
closed = 1;
nodes = (
"207 0 LINE",
"284 366 LINE",
"426 0 LINE",
"626 0 LINE",
"774 699 LINE",
"567 699 LINE",
"489 333 LINE",
"349 699 LINE",
"148 699 LINE",
"0 0 LINE"
);
},
{
closed = 1;
nodes = (
"295 778 OFFCURVE",
"333 792 OFFCURVE",
"373 792 CURVE SMOOTH",
"437 792 OFFCURVE",
"491 742 OFFCURVE",
"564 742 CURVE SMOOTH",
"609 742 OFFCURVE",
"648 753 OFFCURVE",
"679 783 CURVE",
"708 923 LINE",
"671 888 OFFCURVE",
"633 874 OFFCURVE",
"592 874 CURVE SMOOTH",
"527 874 OFFCURVE",
"470 924 OFFCURVE",
"402 924 CURVE SMOOTH",
"358 924 OFFCURVE",
"317 912 OFFCURVE",
"286 883 CURVE",
"256 742 LINE"
);
}
);
width = 706;
}
);
note = Ntilde;
unicode = 00D1;
},
{
glyphname = O;
lastChange = "2015-10-29 01:07:25 +0000";
layers = (
{
layerId = "3EB4D4D8-7151-4DFB-AE23-ECE37F7A1310";
name = Bold;
paths = (
{
closed = 1;
nodes = (
"577 -15 OFFCURVE",
"761 131 OFFCURVE",
"808 349 CURVE SMOOTH",
"854 568 OFFCURVE",
"721 714 OFFCURVE",
"509 714 CURVE SMOOTH",
"285 714 OFFCURVE",
"100 568 OFFCURVE",
"54 349 CURVE SMOOTH",
"7 131 OFFCURVE",
"141 -15 OFFCURVE",
"354 -15 CURVE SMOOTH"
);
},
{
closed = 1;
nodes = (
"288 179 OFFCURVE",
"242 242 OFFCURVE",
"265 349 CURVE SMOOTH",
"287 454 OFFCURVE",
"374 518 OFFCURVE",
"468 518 CURVE SMOOTH",
"575 518 OFFCURVE",
"619 454 OFFCURVE",
"597 349 CURVE SMOOTH",
"574 242 OFFCURVE",
"487 179 OFFCURVE",
"396 179 CURVE SMOOTH"
);
}
);
width = 794;
}
);
leftKerningGroup = O;
note = O;
rightKerningGroup = O;
unicode = 004F;
},
{
glyphname = Oacute;
lastChange = "2015-10-29 01:07:25 +0000";
layers = (
{
layerId = "3EB4D4D8-7151-4DFB-AE23-ECE37F7A1310";
name = Bold;
paths = (
{
closed = 1;
nodes = (
"577 -15 OFFCURVE",
"761 131 OFFCURVE",
"808 349 CURVE SMOOTH",
"854 568 OFFCURVE",
"721 714 OFFCURVE",
"509 714 CURVE SMOOTH",
"285 714 OFFCURVE",
"100 568 OFFCURVE",
"54 349 CURVE SMOOTH",
"7 131 OFFCURVE",
"141 -15 OFFCURVE",
"354 -15 CURVE SMOOTH"
);
},
{
closed = 1;
nodes = (
"288 179 OFFCURVE",
"242 242 OFFCURVE",
"265 349 CURVE SMOOTH",
"287 454 OFFCURVE",
"374 518 OFFCURVE",
"468 518 CURVE SMOOTH",
"575 518 OFFCURVE",
"619 454 OFFCURVE",
"597 349 CURVE SMOOTH",
"574 242 OFFCURVE",
"487 179 OFFCURVE",
"396 179 CURVE SMOOTH"
);
},
{
closed = 1;
nodes = (
"572 737 LINE",
"703 917 LINE",
"502 917 LINE",
"395 737 LINE"
);
}
);
width = 794;
}
);
leftKerningGroup = O;
note = Oacute;
rightKerningGroup = O;
unicode = 00D3;
},
{
glyphname = Obreve;
lastChange = "2015-10-29 01:07:26 +0000";
layers = (
{
layerId = "3EB4D4D8-7151-4DFB-AE23-ECE37F7A1310";
name = Bold;
paths = (
{
closed = 1;
nodes = (
"577 -15 OFFCURVE",
"761 131 OFFCURVE",
"808 349 CURVE SMOOTH",
"854 568 OFFCURVE",
"721 714 OFFCURVE",
"509 714 CURVE SMOOTH",
"285 714 OFFCURVE",
"100 568 OFFCURVE",
"54 349 CURVE SMOOTH",
"7 131 OFFCURVE",
"141 -15 OFFCURVE",
"354 -15 CURVE SMOOTH"
);
},
{
closed = 1;
nodes = (
"288 179 OFFCURVE",
"242 242 OFFCURVE",
"265 349 CURVE SMOOTH",
"287 454 OFFCURVE",
"374 518 OFFCURVE",
"468 518 CURVE SMOOTH",
"575 518 OFFCURVE",
"619 454 OFFCURVE",
"597 349 CURVE SMOOTH",
"574 242 OFFCURVE",
"487 179 OFFCURVE",
"396 179 CURVE SMOOTH"
);
},
{
closed = 1;
nodes = (
"618 741 OFFCURVE",
"702 812 OFFCURVE",
"726 925 CURVE",
"572 925 LINE",
"564 885 OFFCURVE",
"544 865 OFFCURVE",
"515 865 CURVE SMOOTH",
"485 865 OFFCURVE",
"474 885 OFFCURVE",
"482 925 CURVE",
"339 925 LINE",
"315 812 OFFCURVE",
"369 741 OFFCURVE",
"493 741 CURVE SMOOTH"
);
}
);
width = 794;
}
);
leftKerningGroup = O;
note = Obreve;
rightKerningGroup = O;
unicode = 014E;
},
{
glyphname = Ocaron;
lastChange = "2015-10-29 01:07:25 +0000";
layers = (
{
layerId = "3EB4D4D8-7151-4DFB-AE23-ECE37F7A1310";
name = Bold;
paths = (
{
closed = 1;
nodes = (
"577 -15 OFFCURVE",
"761 131 OFFCURVE",
"808 349 CURVE SMOOTH",
"854 568 OFFCURVE",
"721 714 OFFCURVE",
"509 714 CURVE SMOOTH",
"285 714 OFFCURVE",
"100 568 OFFCURVE",
"54 349 CURVE SMOOTH",
"7 131 OFFCURVE",
"141 -15 OFFCURVE",
"354 -15 CURVE SMOOTH"
);
},
{
closed = 1;
nodes = (
"288 179 OFFCURVE",
"242 242 OFFCURVE",
"265 349 CURVE SMOOTH",
"287 454 OFFCURVE",
"374 518 OFFCURVE",
"468 518 CURVE SMOOTH",
"575 518 OFFCURVE",
"619 454 OFFCURVE",
"597 349 CURVE SMOOTH",
"574 242 OFFCURVE",
"487 179 OFFCURVE",
"396 179 CURVE SMOOTH"
);
},
{
closed = 1;
nodes = (
"578 748 LINE",
"763 920 LINE",
"586 920 LINE",
"513 849 LINE",
"470 920 LINE",
"303 920 LINE",
"413 748 LINE"
);
}
);
width = 794;
}
);
leftKerningGroup = O;
note = Ocaron;
rightKerningGroup = O;
unicode = 01D1;
},
{
glyphname = Ocircumflex;
lastChange = "2015-10-29 01:07:25 +0000";
layers = (
{
layerId = "3EB4D4D8-7151-4DFB-AE23-ECE37F7A1310";
name = Bold;
paths = (
{
closed = 1;
nodes = (
"577 -15 OFFCURVE",
"761 131 OFFCURVE",
"808 349 CURVE SMOOTH",
"854 568 OFFCURVE",
"721 714 OFFCURVE",
"509 714 CURVE SMOOTH",
"285 714 OFFCURVE",
"100 568 OFFCURVE",
"54 349 CURVE SMOOTH",
"7 131 OFFCURVE",
"141 -15 OFFCURVE",
"354 -15 CURVE SMOOTH"
);
},
{
closed = 1;
nodes = (
"288 179 OFFCURVE",
"242 242 OFFCURVE",
"265 349 CURVE SMOOTH",
"287 454 OFFCURVE",
"374 518 OFFCURVE",
"468 518 CURVE SMOOTH",
"575 518 OFFCURVE",
"619 454 OFFCURVE",
"597 349 CURVE SMOOTH",
"574 242 OFFCURVE",
"487 179 OFFCURVE",
"396 179 CURVE SMOOTH"
);
},
{
closed = 1;
nodes = (
"443 749 LINE",
"516 820 LINE",
"559 749 LINE",
"726 749 LINE",
"615 921 LINE",
"450 921 LINE",
"266 749 LINE"
);
}
);
width = 794;
}
);
leftKerningGroup = O;
note = Ocircumflex;
rightKerningGroup = O;
unicode = 00D4;
},
{
glyphname = Ocircumflexacute;
lastChange = "2015-10-29 01:07:25 +0000";
layers = (
{
layerId = "3EB4D4D8-7151-4DFB-AE23-ECE37F7A1310";
name = Bold;
paths = (
{
closed = 1;
nodes = (
"577 -15 OFFCURVE",
"761 131 OFFCURVE",
"808 349 CURVE SMOOTH",
"854 568 OFFCURVE",
"721 714 OFFCURVE",
"509 714 CURVE SMOOTH",
"285 714 OFFCURVE",
"100 568 OFFCURVE",
"54 349 CURVE SMOOTH",
"7 131 OFFCURVE",
"141 -15 OFFCURVE",
"354 -15 CURVE SMOOTH"
);
},
{
closed = 1;
nodes = (
"288 179 OFFCURVE",
"242 242 OFFCURVE",
"265 349 CURVE SMOOTH",
"287 454 OFFCURVE",
"374 518 OFFCURVE",
"468 518 CURVE SMOOTH",
"575 518 OFFCURVE",
"619 454 OFFCURVE",
"597 349 CURVE SMOOTH",
"574 242 OFFCURVE",
"487 179 OFFCURVE",
"396 179 CURVE SMOOTH"
);
},
{
closed = 1;
nodes = (
"454 741 LINE",
"530 809 LINE",
"576 741 LINE",
"739 741 LINE",
"615 900 LINE",
"482 900 LINE",
"290 741 LINE"
);
},
{
closed = 1;
nodes = (
"815 865 LINE",
"928 1009 LINE",
"764 1009 LINE",
"675 865 LINE"
);
}
);
width = 794;
}
);
leftKerningGroup = O;
note = Ocircumflexacute;
rightKerningGroup = O;
unicode = 1ED0;
},
{
glyphname = Ocircumflexdotbelow;
lastChange = "2015-10-29 01:07:26 +0000";
layers = (
{
layerId = "3EB4D4D8-7151-4DFB-AE23-ECE37F7A1310";
name = Bold;
paths = (
{
closed = 1;
nodes = (
"577 -15 OFFCURVE",
"761 131 OFFCURVE",
"808 349 CURVE SMOOTH",
"854 568 OFFCURVE",
"721 714 OFFCURVE",
"509 714 CURVE SMOOTH",
"285 714 OFFCURVE",
"100 568 OFFCURVE",
"54 349 CURVE SMOOTH",
"7 131 OFFCURVE",
"141 -15 OFFCURVE",
"354 -15 CURVE SMOOTH"
);
},
{
closed = 1;
nodes = (
"358 -210 OFFCURVE",
"402 -174 OFFCURVE",
"411 -128 CURVE SMOOTH",
"421 -82 OFFCURVE",
"393 -46 OFFCURVE",
"349 -46 CURVE SMOOTH",
"304 -46 OFFCURVE",
"258 -82 OFFCURVE",
"248 -128 CURVE SMOOTH",
"239 -174 OFFCURVE",
"269 -210 OFFCURVE",
"314 -210 CURVE SMOOTH"
);
},
{
closed = 1;
nodes = (
"288 179 OFFCURVE",
"242 242 OFFCURVE",
"265 349 CURVE SMOOTH",
"287 454 OFFCURVE",
"374 518 OFFCURVE",
"468 518 CURVE SMOOTH",
"575 518 OFFCURVE",
"619 454 OFFCURVE",
"597 349 CURVE SMOOTH",
"574 242 OFFCURVE",
"487 179 OFFCURVE",
"396 179 CURVE SMOOTH"
);
},
{
closed = 1;
nodes = (
"443 748 LINE",
"516 819 LINE",
"559 748 LINE",
"726 748 LINE",
"615 920 LINE",
"450 920 LINE",
"266 748 LINE"
);
}
);
width = 794;
}
);
leftKerningGroup = O;
note = Ocircumflexdotbelow;
rightKerningGroup = O;
unicode = 1ED8;
},
{
glyphname = Ocircumflexgrave;
lastChange = "2015-10-29 01:07:25 +0000";
layers = (
{
layerId = "3EB4D4D8-7151-4DFB-AE23-ECE37F7A1310";
name = Bold;
paths = (
{
closed = 1;
nodes = (
"577 -15 OFFCURVE",
"761 131 OFFCURVE",
"808 349 CURVE SMOOTH",
"854 568 OFFCURVE",
"721 714 OFFCURVE",
"509 714 CURVE SMOOTH",
"285 714 OFFCURVE",
"100 568 OFFCURVE",
"54 349 CURVE SMOOTH",
"7 131 OFFCURVE",
"141 -15 OFFCURVE",
"354 -15 CURVE SMOOTH"
);
},
{
closed = 1;
nodes = (
"288 179 OFFCURVE",
"242 242 OFFCURVE",
"265 349 CURVE SMOOTH",
"287 454 OFFCURVE",
"374 518 OFFCURVE",
"468 518 CURVE SMOOTH",
"575 518 OFFCURVE",
"619 454 OFFCURVE",
"597 349 CURVE SMOOTH",
"574 242 OFFCURVE",
"487 179 OFFCURVE",
"396 179 CURVE SMOOTH"
);
},
{
closed = 1;
nodes = (
"403 865 LINE",
"376 1009 LINE",
"212 1009 LINE",
"263 865 LINE"
);
},
{
closed = 1;
nodes = (
"451 741 LINE",
"527 809 LINE",
"573 741 LINE",
"736 741 LINE",
"612 900 LINE",
"480 900 LINE",
"287 741 LINE"
);
}
);
width = 794;
}
);
leftKerningGroup = O;
note = Ocircumflexgrave;
rightKerningGroup = O;
unicode = 1ED2;
},
{
glyphname = Ocircumflexhookabove;
lastChange = "2015-10-29 01:07:25 +0000";
layers = (
{
layerId = "3EB4D4D8-7151-4DFB-AE23-ECE37F7A1310";
name = Bold;
paths = (
{
closed = 1;
nodes = (
"577 -15 OFFCURVE",
"761 131 OFFCURVE",
"808 349 CURVE SMOOTH",
"854 568 OFFCURVE",
"721 714 OFFCURVE",
"509 714 CURVE SMOOTH",
"285 714 OFFCURVE",
"100 568 OFFCURVE",
"54 349 CURVE SMOOTH",
"7 131 OFFCURVE",
"141 -15 OFFCURVE",
"354 -15 CURVE SMOOTH"
);
},
{
closed = 1;
nodes = (
"288 179 OFFCURVE",
"242 242 OFFCURVE",
"265 349 CURVE SMOOTH",
"287 454 OFFCURVE",
"374 518 OFFCURVE",
"468 518 CURVE SMOOTH",
"575 518 OFFCURVE",
"619 454 OFFCURVE",
"597 349 CURVE SMOOTH",
"574 242 OFFCURVE",
"487 179 OFFCURVE",
"396 179 CURVE SMOOTH"
);
},
{
closed = 1;
nodes = (
"467 741 LINE",
"543 809 LINE",
"589 741 LINE",
"752 741 LINE",
"628 900 LINE",
"495 900 LINE",
"303 741 LINE"
);
},
{
closed = 1;
nodes = (
"803 854 LINE",
"808 879 LINE",
"848 890 OFFCURVE",
"875 912 OFFCURVE",
"882 945 CURVE SMOOTH",
"892 990 OFFCURVE",
"859 1020 OFFCURVE",
"784 1020 CURVE SMOOTH",
"755 1020 OFFCURVE",
"713 1014 OFFCURVE",
"689 1008 CURVE",
"675 944 LINE",
"685 948 OFFCURVE",
"701 950 OFFCURVE",
"712 950 CURVE SMOOTH",
"738 950 OFFCURVE",
"749 943 OFFCURVE",
"746 929 CURVE SMOOTH",
"742 911 OFFCURVE",
"722 905 OFFCURVE",
"692 905 CURVE",
"681 854 LINE"
);
}
);
width = 794;
}
);
leftKerningGroup = O;
note = Ocircumflexhookabove;
rightKerningGroup = O;
unicode = 1ED4;
},
{
glyphname = Ocircumflextilde;
lastChange = "2015-10-29 01:07:24 +0000";
layers = (
{
layerId = "3EB4D4D8-7151-4DFB-AE23-ECE37F7A1310";
name = Bold;
paths = (
{
closed = 1;
nodes = (
"577 -15 OFFCURVE",
"761 131 OFFCURVE",
"808 349 CURVE SMOOTH",
"854 568 OFFCURVE",
"721 714 OFFCURVE",
"509 714 CURVE SMOOTH",
"285 714 OFFCURVE",
"100 568 OFFCURVE",
"54 349 CURVE SMOOTH",
"7 131 OFFCURVE",
"141 -15 OFFCURVE",
"354 -15 CURVE SMOOTH"
);
},
{
closed = 1;
nodes = (
"288 179 OFFCURVE",
"242 242 OFFCURVE",
"265 349 CURVE SMOOTH",
"287 454 OFFCURVE",
"374 518 OFFCURVE",
"468 518 CURVE SMOOTH",
"575 518 OFFCURVE",
"619 454 OFFCURVE",
"597 349 CURVE SMOOTH",
"574 242 OFFCURVE",
"487 179 OFFCURVE",
"396 179 CURVE SMOOTH"
);
},
{
closed = 1;
nodes = (
"622 741 OFFCURVE",
"708 800 OFFCURVE",
"728 897 CURVE",
"602 897 LINE",
"595 862 OFFCURVE",
"573 844 OFFCURVE",
"537 844 CURVE SMOOTH",
"500 844 OFFCURVE",
"487 862 OFFCURVE",
"494 897 CURVE",
"366 897 LINE",
"346 800 OFFCURVE",
"408 741 OFFCURVE",
"515 741 CURVE SMOOTH"
);
},
{
closed = 1;
nodes = (
"669 920 OFFCURVE",
"700 929 OFFCURVE",
"725 952 CURVE",
"748 1060 LINE",
"718 1032 OFFCURVE",
"686 1020 OFFCURVE",
"655 1020 CURVE SMOOTH",
"603 1020 OFFCURVE",
"555 1061 OFFCURVE",
"501 1061 CURVE SMOOTH",
"465 1061 OFFCURVE",
"434 1051 OFFCURVE",
"409 1028 CURVE",
"386 921 LINE",
"416 949 OFFCURVE",
"448 961 OFFCURVE",
"480 961 CURVE SMOOTH",
"531 961 OFFCURVE",
"576 920 OFFCURVE",
"634 920 CURVE SMOOTH"
);
}
);
width = 794;
}
);
leftKerningGroup = O;
note = Ocircumflextilde;
rightKerningGroup = O;
unicode = 1ED6;
},
{
glyphname = Odieresis;
lastChange = "2015-10-29 01:07:27 +0000";
layers = (
{
layerId = "3EB4D4D8-7151-4DFB-AE23-ECE37F7A1310";
name = Bold;
paths = (
{
closed = 1;
nodes = (
"577 -15 OFFCURVE",
"761 131 OFFCURVE",
"808 349 CURVE SMOOTH",
"854 568 OFFCURVE",
"721 714 OFFCURVE",
"509 714 CURVE SMOOTH",
"285 714 OFFCURVE",
"100 568 OFFCURVE",
"54 349 CURVE SMOOTH",
"7 131 OFFCURVE",
"141 -15 OFFCURVE",
"354 -15 CURVE SMOOTH"
);
},
{
closed = 1;
nodes = (
"288 179 OFFCURVE",
"242 242 OFFCURVE",
"265 349 CURVE SMOOTH",
"287 454 OFFCURVE",
"374 518 OFFCURVE",
"468 518 CURVE SMOOTH",
"575 518 OFFCURVE",
"619 454 OFFCURVE",
"597 349 CURVE SMOOTH",
"574 242 OFFCURVE",
"487 179 OFFCURVE",
"396 179 CURVE SMOOTH"
);
},
{
closed = 1;
nodes = (
"423 749 OFFCURVE",
"467 784 OFFCURVE",
"477 830 CURVE SMOOTH",
"487 876 OFFCURVE",
"458 913 OFFCURVE",
"413 913 CURVE SMOOTH",
"370 913 OFFCURVE",
"323 876 OFFCURVE",
"313 830 CURVE SMOOTH",
"303 784 OFFCURVE",
"335 749 OFFCURVE",
"378 749 CURVE SMOOTH"
);
},
{
closed = 1;
nodes = (
"658 749 OFFCURVE",
"702 784 OFFCURVE",
"712 830 CURVE SMOOTH",
"722 876 OFFCURVE",
"693 913 OFFCURVE",
"649 913 CURVE SMOOTH",
"604 913 OFFCURVE",
"558 876 OFFCURVE",
"548 830 CURVE SMOOTH",
"538 784 OFFCURVE",
"569 749 OFFCURVE",
"614 749 CURVE SMOOTH"
);
}
);
width = 794;
}
);
leftKerningGroup = O;
note = Odieresis;
rightKerningGroup = O;
unicode = 00D6;
},
{
glyphname = Odotbelow;
lastChange = "2015-10-29 01:07:26 +0000";
layers = (
{
layerId = "3EB4D4D8-7151-4DFB-AE23-ECE37F7A1310";
name = Bold;
paths = (
{
closed = 1;
nodes = (
"577 -15 OFFCURVE",
"761 131 OFFCURVE",
"808 349 CURVE SMOOTH",
"854 568 OFFCURVE",
"721 714 OFFCURVE",
"509 714 CURVE SMOOTH",
"285 714 OFFCURVE",
"100 568 OFFCURVE",
"54 349 CURVE SMOOTH",
"7 131 OFFCURVE",
"141 -15 OFFCURVE",
"354 -15 CURVE SMOOTH"
);
},
{
closed = 1;
nodes = (
"358 -210 OFFCURVE",
"402 -174 OFFCURVE",
"411 -128 CURVE SMOOTH",
"421 -82 OFFCURVE",
"393 -46 OFFCURVE",
"349 -46 CURVE SMOOTH",
"304 -46 OFFCURVE",
"258 -82 OFFCURVE",
"248 -128 CURVE SMOOTH",
"239 -174 OFFCURVE",
"269 -210 OFFCURVE",
"314 -210 CURVE SMOOTH"
);
},
{
closed = 1;
nodes = (
"288 179 OFFCURVE",
"242 242 OFFCURVE",
"265 349 CURVE SMOOTH",
"287 454 OFFCURVE",
"374 518 OFFCURVE",
"468 518 CURVE SMOOTH",
"575 518 OFFCURVE",
"619 454 OFFCURVE",
"597 349 CURVE SMOOTH",
"574 242 OFFCURVE",
"487 179 OFFCURVE",
"396 179 CURVE SMOOTH"
);
}
);
width = 794;
}
);
leftKerningGroup = O;
note = Odotbelow;
rightKerningGroup = O;
unicode = 1ECC;
},
{
glyphname = Ograve;
lastChange = "2015-10-29 01:07:25 +0000";
layers = (
{
layerId = "3EB4D4D8-7151-4DFB-AE23-ECE37F7A1310";
name = Bold;
paths = (
{
closed = 1;
nodes = (
"577 -15 OFFCURVE",
"761 131 OFFCURVE",
"808 349 CURVE SMOOTH",
"854 568 OFFCURVE",
"721 714 OFFCURVE",
"509 714 CURVE SMOOTH",
"285 714 OFFCURVE",
"100 568 OFFCURVE",
"54 349 CURVE SMOOTH",
"7 131 OFFCURVE",
"141 -15 OFFCURVE",
"354 -15 CURVE SMOOTH"
);
},
{
closed = 1;
nodes = (
"288 179 OFFCURVE",
"242 242 OFFCURVE",
"265 349 CURVE SMOOTH",
"287 454 OFFCURVE",
"374 518 OFFCURVE",
"468 518 CURVE SMOOTH",
"575 518 OFFCURVE",
"619 454 OFFCURVE",
"597 349 CURVE SMOOTH",
"574 242 OFFCURVE",
"487 179 OFFCURVE",
"396 179 CURVE SMOOTH"
);
},
{
closed = 1;
nodes = (
"595 737 LINE",
"564 917 LINE",
"363 917 LINE",
"418 737 LINE"
);
}
);
width = 794;
}
);
leftKerningGroup = O;
note = Ograve;
rightKerningGroup = O;
unicode = 00D2;
},
{
glyphname = Ohookabove;
lastChange = "2015-10-29 01:07:27 +0000";
layers = (
{
layerId = "3EB4D4D8-7151-4DFB-AE23-ECE37F7A1310";
name = Bold;
paths = (
{
closed = 1;
nodes = (
"577 -15 OFFCURVE",
"761 131 OFFCURVE",
"808 349 CURVE SMOOTH",
"854 568 OFFCURVE",
"721 714 OFFCURVE",
"509 714 CURVE SMOOTH",
"285 714 OFFCURVE",
"100 568 OFFCURVE",
"54 349 CURVE SMOOTH",
"7 131 OFFCURVE",
"141 -15 OFFCURVE",
"354 -15 CURVE SMOOTH"
);
},
{
closed = 1;
nodes = (
"288 179 OFFCURVE",
"242 242 OFFCURVE",
"265 349 CURVE SMOOTH",
"287 454 OFFCURVE",
"374 518 OFFCURVE",
"468 518 CURVE SMOOTH",
"575 518 OFFCURVE",
"619 454 OFFCURVE",
"597 349 CURVE SMOOTH",
"574 242 OFFCURVE",
"487 179 OFFCURVE",
"396 179 CURVE SMOOTH"
);
},
{
closed = 1;
nodes = (
"561 742 LINE",
"567 772 LINE",
"636 783 OFFCURVE",
"674 820 OFFCURVE",
"685 868 CURVE SMOOTH",
"698 933 OFFCURVE",
"653 978 OFFCURVE",
"540 978 CURVE SMOOTH",
"488 978 OFFCURVE",
"439 970 OFFCURVE",
"406 960 CURVE",
"388 876 LINE",
"401 881 OFFCURVE",
"429 886 OFFCURVE",
"452 886 CURVE SMOOTH",
"499 886 OFFCURVE",
"511 871 OFFCURVE",
"507 853 CURVE SMOOTH",
"501 825 OFFCURVE",
"465 814 OFFCURVE",
"410 814 CURVE",
"395 742 LINE"
);
}
);
width = 794;
}
);
leftKerningGroup = O;
note = Ohookabove;
rightKerningGroup = O;
unicode = 1ECE;
},
{
glyphname = Ohorn;
lastChange = "2015-10-29 01:07:25 +0000";
layers = (
{
layerId = "3EB4D4D8-7151-4DFB-AE23-ECE37F7A1310";
name = Bold;
paths = (
{
closed = 1;
nodes = (
"577 -15 OFFCURVE",
"762 131 OFFCURVE",
"808 349 CURVE SMOOTH",
"820 404 OFFCURVE",
"820 455 OFFCURVE",
"810 500 CURVE",
"922 520 OFFCURVE",
"996 599 OFFCURVE",
"1016 701 CURVE SMOOTH",
"1025 747 LINE",
"862 747 LINE",
"855 714 LINE SMOOTH",
"844 661 OFFCURVE",
"815 631 OFFCURVE",
"739 631 CURVE",
"685 684 OFFCURVE",
"605 714 OFFCURVE",
"509 714 CURVE SMOOTH",
"285 714 OFFCURVE",
"101 568 OFFCURVE",
"54 349 CURVE SMOOTH",
"8 131 OFFCURVE",
"141 -15 OFFCURVE",
"354 -15 CURVE SMOOTH"
);
},
{
closed = 1;
nodes = (
"288 179 OFFCURVE",
"242 242 OFFCURVE",
"265 349 CURVE SMOOTH",
"287 454 OFFCURVE",
"374 518 OFFCURVE",
"468 518 CURVE SMOOTH",
"575 518 OFFCURVE",
"619 454 OFFCURVE",
"597 349 CURVE SMOOTH",
"574 242 OFFCURVE",
"487 179 OFFCURVE",
"396 179 CURVE SMOOTH"
);
}
);
width = 907;
}
);
leftKerningGroup = O;
note = Ohorn;
rightKerningGroup = O;
unicode = 01A0;
},
{
glyphname = Ohornacute;
lastChange = "2015-10-29 01:07:27 +0000";
layers = (
{
layerId = "3EB4D4D8-7151-4DFB-AE23-ECE37F7A1310";
name = Bold;
paths = (
{
closed = 1;
nodes = (
"577 -15 OFFCURVE",
"762 131 OFFCURVE",
"808 349 CURVE SMOOTH",
"820 404 OFFCURVE",
"820 455 OFFCURVE",
"810 500 CURVE",
"922 520 OFFCURVE",
"996 599 OFFCURVE",
"1016 701 CURVE SMOOTH",
"1025 747 LINE",
"862 747 LINE",
"855 714 LINE SMOOTH",
"844 661 OFFCURVE",
"815 631 OFFCURVE",
"739 631 CURVE",
"685 684 OFFCURVE",
"605 714 OFFCURVE",
"509 714 CURVE SMOOTH",
"285 714 OFFCURVE",
"101 568 OFFCURVE",
"54 349 CURVE SMOOTH",
"8 131 OFFCURVE",
"141 -15 OFFCURVE",
"354 -15 CURVE SMOOTH"
);
},
{
closed = 1;
nodes = (
"288 179 OFFCURVE",
"242 242 OFFCURVE",
"265 349 CURVE SMOOTH",
"287 454 OFFCURVE",
"374 518 OFFCURVE",
"468 518 CURVE SMOOTH",
"575 518 OFFCURVE",
"619 454 OFFCURVE",
"597 349 CURVE SMOOTH",
"574 242 OFFCURVE",
"487 179 OFFCURVE",
"396 179 CURVE SMOOTH"
);
},
{
closed = 1;
nodes = (
"591 737 LINE",
"722 917 LINE",
"521 917 LINE",
"414 737 LINE"
);
}
);
width = 907;
}
);
leftKerningGroup = O;
note = Ohornacute;
rightKerningGroup = O;
unicode = 1EDA;
},
{
glyphname = Ohorndotbelow;
lastChange = "2015-10-29 01:07:25 +0000";
layers = (
{
layerId = "3EB4D4D8-7151-4DFB-AE23-ECE37F7A1310";
name = Bold;
paths = (
{
closed = 1;
nodes = (
"577 -15 OFFCURVE",
"762 131 OFFCURVE",
"808 349 CURVE SMOOTH",
"820 404 OFFCURVE",
"820 455 OFFCURVE",
"810 500 CURVE",
"922 520 OFFCURVE",
"996 599 OFFCURVE",
"1016 701 CURVE SMOOTH",
"1025 747 LINE",
"862 747 LINE",
"855 714 LINE SMOOTH",
"844 661 OFFCURVE",
"815 631 OFFCURVE",
"739 631 CURVE",
"685 684 OFFCURVE",
"605 714 OFFCURVE",
"509 714 CURVE SMOOTH",
"285 714 OFFCURVE",
"101 568 OFFCURVE",
"54 349 CURVE SMOOTH",
"8 131 OFFCURVE",
"141 -15 OFFCURVE",
"354 -15 CURVE SMOOTH"
);
},
{
closed = 1;
nodes = (
"362 -210 OFFCURVE",
"406 -174 OFFCURVE",
"415 -128 CURVE SMOOTH",
"425 -82 OFFCURVE",
"397 -46 OFFCURVE",
"353 -46 CURVE SMOOTH",
"308 -46 OFFCURVE",
"262 -82 OFFCURVE",
"252 -128 CURVE SMOOTH",
"243 -174 OFFCURVE",
"273 -210 OFFCURVE",
"318 -210 CURVE SMOOTH"
);
},
{
closed = 1;
nodes = (
"288 179 OFFCURVE",
"242 242 OFFCURVE",
"265 349 CURVE SMOOTH",
"287 454 OFFCURVE",
"374 518 OFFCURVE",
"468 518 CURVE SMOOTH",
"575 518 OFFCURVE",
"619 454 OFFCURVE",
"597 349 CURVE SMOOTH",
"574 242 OFFCURVE",
"487 179 OFFCURVE",
"396 179 CURVE SMOOTH"
);
}
);
width = 907;
}
);
leftKerningGroup = O;
note = Ohorndotbelow;
rightKerningGroup = O;
unicode = 1EE2;
},
{
glyphname = Ohorngrave;
lastChange = "2015-10-29 01:07:25 +0000";
layers = (
{
layerId = "3EB4D4D8-7151-4DFB-AE23-ECE37F7A1310";
name = Bold;
paths = (
{
closed = 1;
nodes = (
"577 -15 OFFCURVE",
"762 131 OFFCURVE",
"808 349 CURVE SMOOTH",
"820 404 OFFCURVE",
"820 455 OFFCURVE",
"810 500 CURVE",
"922 520 OFFCURVE",
"996 599 OFFCURVE",
"1016 701 CURVE SMOOTH",
"1025 747 LINE",
"862 747 LINE",
"855 714 LINE SMOOTH",
"844 661 OFFCURVE",
"815 631 OFFCURVE",
"739 631 CURVE",
"685 684 OFFCURVE",
"605 714 OFFCURVE",
"509 714 CURVE SMOOTH",
"285 714 OFFCURVE",
"101 568 OFFCURVE",
"54 349 CURVE SMOOTH",
"8 131 OFFCURVE",
"141 -15 OFFCURVE",
"354 -15 CURVE SMOOTH"
);
},
{
closed = 1;
nodes = (
"288 179 OFFCURVE",
"242 242 OFFCURVE",
"265 349 CURVE SMOOTH",
"287 454 OFFCURVE",
"374 518 OFFCURVE",
"468 518 CURVE SMOOTH",
"575 518 OFFCURVE",
"619 454 OFFCURVE",
"597 349 CURVE SMOOTH",
"574 242 OFFCURVE",
"487 179 OFFCURVE",
"396 179 CURVE SMOOTH"
);
},
{
closed = 1;
nodes = (
"581 737 LINE",
"550 917 LINE",
"349 917 LINE",
"404 737 LINE"
);
}
);
width = 907;
}
);
leftKerningGroup = O;
note = Ohorngrave;
rightKerningGroup = O;
unicode = 1EDC;
},
{
glyphname = Ohornhookabove;
lastChange = "2015-10-29 01:07:25 +0000";
layers = (
{
layerId = "3EB4D4D8-7151-4DFB-AE23-ECE37F7A1310";
name = Bold;
paths = (
{
closed = 1;
nodes = (
"577 -15 OFFCURVE",
"762 131 OFFCURVE",
"808 349 CURVE SMOOTH",
"820 404 OFFCURVE",
"820 455 OFFCURVE",
"810 500 CURVE",
"922 520 OFFCURVE",
"996 599 OFFCURVE",
"1016 701 CURVE SMOOTH",
"1025 747 LINE",
"862 747 LINE",
"855 714 LINE SMOOTH",
"844 661 OFFCURVE",
"815 631 OFFCURVE",
"739 631 CURVE",
"685 684 OFFCURVE",
"605 714 OFFCURVE",
"509 714 CURVE SMOOTH",
"285 714 OFFCURVE",
"101 568 OFFCURVE",
"54 349 CURVE SMOOTH",
"8 131 OFFCURVE",
"141 -15 OFFCURVE",
"354 -15 CURVE SMOOTH"
);
},
{
closed = 1;
nodes = (
"288 179 OFFCURVE",
"242 242 OFFCURVE",
"265 349 CURVE SMOOTH",
"287 454 OFFCURVE",
"374 518 OFFCURVE",
"468 518 CURVE SMOOTH",
"575 518 OFFCURVE",
"619 454 OFFCURVE",
"597 349 CURVE SMOOTH",
"574 242 OFFCURVE",
"487 179 OFFCURVE",
"396 179 CURVE SMOOTH"
);
},
{
closed = 1;
nodes = (
"575 742 LINE",
"581 772 LINE",
"650 783 OFFCURVE",
"688 820 OFFCURVE",
"699 868 CURVE SMOOTH",
"712 933 OFFCURVE",
"667 978 OFFCURVE",
"554 978 CURVE SMOOTH",
"502 978 OFFCURVE",
"453 970 OFFCURVE",
"420 960 CURVE",
"402 876 LINE",
"415 881 OFFCURVE",
"443 886 OFFCURVE",
"466 886 CURVE SMOOTH",
"513 886 OFFCURVE",
"525 871 OFFCURVE",
"521 853 CURVE SMOOTH",
"515 825 OFFCURVE",
"479 814 OFFCURVE",
"424 814 CURVE",
"409 742 LINE"
);
}
);
width = 907;
}
);
leftKerningGroup = O;
note = Ohornhookabove;
rightKerningGroup = O;
unicode = 1EDE;
},
{
glyphname = Ohorntilde;
lastChange = "2015-10-29 01:07:25 +0000";
layers = (
{
layerId = "3EB4D4D8-7151-4DFB-AE23-ECE37F7A1310";
name = Bold;
paths = (
{
closed = 1;
nodes = (
"577 -15 OFFCURVE",
"762 131 OFFCURVE",
"808 349 CURVE SMOOTH",
"820 404 OFFCURVE",
"820 455 OFFCURVE",
"810 500 CURVE",
"922 520 OFFCURVE",
"996 599 OFFCURVE",
"1016 701 CURVE SMOOTH",
"1025 747 LINE",
"862 747 LINE",
"855 714 LINE SMOOTH",
"844 661 OFFCURVE",
"815 631 OFFCURVE",
"739 631 CURVE",
"685 684 OFFCURVE",
"605 714 OFFCURVE",
"509 714 CURVE SMOOTH",
"285 714 OFFCURVE",
"101 568 OFFCURVE",
"54 349 CURVE SMOOTH",
"8 131 OFFCURVE",
"141 -15 OFFCURVE",
"354 -15 CURVE SMOOTH"
);
},
{
closed = 1;
nodes = (
"288 179 OFFCURVE",
"242 242 OFFCURVE",
"265 349 CURVE SMOOTH",
"287 454 OFFCURVE",
"374 518 OFFCURVE",
"468 518 CURVE SMOOTH",
"575 518 OFFCURVE",
"619 454 OFFCURVE",
"597 349 CURVE SMOOTH",
"574 242 OFFCURVE",
"487 179 OFFCURVE",
"396 179 CURVE SMOOTH"
);
},
{
closed = 1;
nodes = (
"344 778 OFFCURVE",
"382 792 OFFCURVE",
"422 792 CURVE SMOOTH",
"486 792 OFFCURVE",
"540 742 OFFCURVE",
"613 742 CURVE SMOOTH",
"658 742 OFFCURVE",
"697 753 OFFCURVE",
"728 783 CURVE",
"757 923 LINE",
"720 888 OFFCURVE",
"682 874 OFFCURVE",
"641 874 CURVE SMOOTH",
"576 874 OFFCURVE",
"519 924 OFFCURVE",
"451 924 CURVE SMOOTH",
"407 924 OFFCURVE",
"366 912 OFFCURVE",
"335 883 CURVE",
"305 742 LINE"
);
}
);
width = 907;
}
);
leftKerningGroup = O;
note = Ohorntilde;
rightKerningGroup = O;
unicode = 1EE0;
},
{
glyphname = Ohungarumlaut;
lastChange = "2015-10-29 01:07:25 +0000";
layers = (
{
layerId = "3EB4D4D8-7151-4DFB-AE23-ECE37F7A1310";
name = Bold;
paths = (
{
closed = 1;
nodes = (
"577 -15 OFFCURVE",
"761 131 OFFCURVE",
"808 349 CURVE SMOOTH",
"854 568 OFFCURVE",
"721 714 OFFCURVE",
"509 714 CURVE SMOOTH",
"285 714 OFFCURVE",
"100 568 OFFCURVE",
"54 349 CURVE SMOOTH",
"7 131 OFFCURVE",
"141 -15 OFFCURVE",
"354 -15 CURVE SMOOTH"
);
},
{
closed = 1;
nodes = (
"288 179 OFFCURVE",
"242 242 OFFCURVE",
"265 349 CURVE SMOOTH",
"287 454 OFFCURVE",
"374 518 OFFCURVE",
"468 518 CURVE SMOOTH",
"575 518 OFFCURVE",
"619 454 OFFCURVE",
"597 349 CURVE SMOOTH",
"574 242 OFFCURVE",
"487 179 OFFCURVE",
"396 179 CURVE SMOOTH"
);
},
{
closed = 1;
nodes = (
"439 741 LINE",
"570 920 LINE",
"377 920 LINE",
"271 741 LINE"
);
},
{
closed = 1;
nodes = (
"705 741 LINE",
"835 920 LINE",
"642 920 LINE",
"536 741 LINE"
);
}
);
width = 794;
}
);
leftKerningGroup = O;
note = Ohungarumlaut;
rightKerningGroup = O;
unicode = 0150;
},
{
glyphname = Omacron;
lastChange = "2015-10-29 01:07:26 +0000";
layers = (
{
layerId = "3EB4D4D8-7151-4DFB-AE23-ECE37F7A1310";
name = Bold;
paths = (
{
closed = 1;
nodes = (
"577 -15 OFFCURVE",
"761 131 OFFCURVE",
"808 349 CURVE SMOOTH",
"854 568 OFFCURVE",
"721 714 OFFCURVE",
"509 714 CURVE SMOOTH",
"285 714 OFFCURVE",
"100 568 OFFCURVE",
"54 349 CURVE SMOOTH",
"7 131 OFFCURVE",
"141 -15 OFFCURVE",
"354 -15 CURVE SMOOTH"
);
},
{
closed = 1;
nodes = (
"288 179 OFFCURVE",
"242 242 OFFCURVE",
"265 349 CURVE SMOOTH",
"287 454 OFFCURVE",
"374 518 OFFCURVE",
"468 518 CURVE SMOOTH",
"575 518 OFFCURVE",
"619 454 OFFCURVE",
"597 349 CURVE SMOOTH",
"574 242 OFFCURVE",
"487 179 OFFCURVE",
"396 179 CURVE SMOOTH"
);
},
{
closed = 1;
nodes = (
"676 757 LINE",
"701 875 LINE",
"346 875 LINE",
"321 757 LINE"
);
}
);
width = 794;
}
);
leftKerningGroup = O;
note = Omacron;
rightKerningGroup = O;
unicode = 014C;
},
{
glyphname = Oslash;
lastChange = "2015-10-29 01:07:24 +0000";
layers = (
{
layerId = "3EB4D4D8-7151-4DFB-AE23-ECE37F7A1310";
name = Bold;
paths = (
{
closed = 1;
nodes = (
"221 -86 LINE",
"269 -6 LINE",
"296 -12 OFFCURVE",
"324 -15 OFFCURVE",
"354 -15 CURVE SMOOTH",
"577 -15 OFFCURVE",
"762 131 OFFCURVE",
"808 349 CURVE SMOOTH",
"840 497 OFFCURVE",
"788 612 OFFCURVE",
"686 671 CURVE",
"756 784 LINE",
"635 784 LINE",
"587 707 LINE",
"563 712 OFFCURVE",
"536 714 OFFCURVE",
"509 714 CURVE SMOOTH",
"285 714 OFFCURVE",
"101 568 OFFCURVE",
"54 349 CURVE SMOOTH",
"23 203 OFFCURVE",
"72 90 OFFCURVE",
"171 30 CURVE",
"100 -86 LINE"
);
},
{
closed = 1;
nodes = (
"260 246 OFFCURVE",
"252 291 OFFCURVE",
"265 349 CURVE SMOOTH",
"287 454 OFFCURVE",
"374 518 OFFCURVE",
"468 518 CURVE SMOOTH",
"471 518 LINE",
"286 217 LINE"
);
},
{
closed = 1;
nodes = (
"571 484 LINE",
"600 455 OFFCURVE",
"609 408 OFFCURVE",
"597 349 CURVE SMOOTH",
"574 242 OFFCURVE",
"487 179 OFFCURVE",
"396 179 CURVE SMOOTH",
"384 179 LINE"
);
}
);
width = 794;
}
);
leftKerningGroup = O;
note = Oslash;
rightKerningGroup = O;
unicode = 00D8;
},
{
glyphname = Oslashacute;
lastChange = "2015-10-29 01:07:25 +0000";
layers = (
{
layerId = "3EB4D4D8-7151-4DFB-AE23-ECE37F7A1310";
name = Bold;
paths = (
{
closed = 1;
nodes = (
"229 -86 LINE",
"277 -8 LINE",
"301 -12 OFFCURVE",
"327 -15 OFFCURVE",
"354 -15 CURVE SMOOTH",
"566 -15 OFFCURVE",
"761 131 OFFCURVE",
"808 349 CURVE SMOOTH",
"838 494 OFFCURVE",
"790 607 OFFCURVE",
"692 667 CURVE",
"764 784 LINE",
"627 784 LINE",
"580 708 LINE",
"558 712 OFFCURVE",
"534 714 OFFCURVE",
"509 714 CURVE SMOOTH",
"296 714 OFFCURVE",
"100 568 OFFCURVE",
"54 349 CURVE SMOOTH",
"23 206 OFFCURVE",
"70 94 OFFCURVE",
"166 34 CURVE",
"93 -86 LINE"
);
},
{
closed = 1;
nodes = (
"265 258 OFFCURVE",
"257 298 OFFCURVE",
"268 349 CURVE SMOOTH",
"289 450 OFFCURVE",
"371 513 OFFCURVE",
"462 515 CURVE",
"286 229 LINE"
);
},
{
closed = 1;
nodes = (
"572 471 LINE",
"596 443 OFFCURVE",
"605 401 OFFCURVE",
"594 349 CURVE SMOOTH",
"571 244 OFFCURVE",
"486 182 OFFCURVE",
"396 182 CURVE SMOOTH",
"394 182 LINE"
);
},
{
closed = 1;
nodes = (
"568 742 LINE",
"698 921 LINE",
"487 921 LINE",
"381 742 LINE"
);
}
);
width = 794;
}
);
leftKerningGroup = O;
note = Oslashacute;
rightKerningGroup = O;
unicode = 01FE;
},
{
glyphname = Otilde;
lastChange = "2015-10-29 01:07:27 +0000";
layers = (
{
layerId = "3EB4D4D8-7151-4DFB-AE23-ECE37F7A1310";
name = Bold;
paths = (
{
closed = 1;
nodes = (
"577 -15 OFFCURVE",
"761 131 OFFCURVE",
"808 349 CURVE SMOOTH",
"854 568 OFFCURVE",
"721 714 OFFCURVE",
"509 714 CURVE SMOOTH",
"285 714 OFFCURVE",
"100 568 OFFCURVE",
"54 349 CURVE SMOOTH",
"7 131 OFFCURVE",
"141 -15 OFFCURVE",
"354 -15 CURVE SMOOTH"
);
},
{
closed = 1;
nodes = (
"288 179 OFFCURVE",
"242 242 OFFCURVE",
"265 349 CURVE SMOOTH",
"287 454 OFFCURVE",
"374 518 OFFCURVE",
"468 518 CURVE SMOOTH",
"575 518 OFFCURVE",
"619 454 OFFCURVE",
"597 349 CURVE SMOOTH",
"574 242 OFFCURVE",
"487 179 OFFCURVE",
"396 179 CURVE SMOOTH"
);
},
{
closed = 1;
nodes = (
"330 787 OFFCURVE",
"368 801 OFFCURVE",
"408 801 CURVE SMOOTH",
"472 801 OFFCURVE",
"526 751 OFFCURVE",
"599 751 CURVE SMOOTH",
"644 751 OFFCURVE",
"683 762 OFFCURVE",
"714 792 CURVE",
"743 932 LINE",
"706 897 OFFCURVE",
"668 883 OFFCURVE",
"627 883 CURVE SMOOTH",
"562 883 OFFCURVE",
"505 933 OFFCURVE",
"437 933 CURVE SMOOTH",
"393 933 OFFCURVE",
"352 921 OFFCURVE",
"321 892 CURVE",
"291 751 LINE"
);
}
);
width = 794;
}
);
leftKerningGroup = O;
note = Otilde;
rightKerningGroup = O;
unicode = 00D5;
},
{
glyphname = OE;
lastChange = "2015-10-29 01:07:26 +0000";
layers = (
{
layerId = "3EB4D4D8-7151-4DFB-AE23-ECE37F7A1310";
name = Bold;
paths = (
{
closed = 1;
nodes = (
"831 0 LINE",
"867 174 LINE",
"601 174 LINE",
"622 270 LINE",
"804 270 LINE",
"838 429 LINE",
"656 429 LINE",
"676 525 LINE",
"942 525 LINE",
"979 699 LINE",
"535 699 LINE SMOOTH",
"277 699 OFFCURVE",
"100 568 OFFCURVE",
"54 349 CURVE SMOOTH",
"7 131 OFFCURVE",
"167 0 OFFCURVE",
"387 0 CURVE SMOOTH"
);
},
{
closed = 1;
nodes = (
"272 186 OFFCURVE",
"242 242 OFFCURVE",
"265 349 CURVE SMOOTH",
"287 455 OFFCURVE",
"359 512 OFFCURVE",
"466 512 CURVE",
"397 186 LINE"
);
}
);
width = 891;
}
);
leftKerningGroup = O;
note = OE;
rightKerningGroup = E;
unicode = 0152;
},
{
glyphname = P;
lastChange = "2015-10-29 01:07:24 +0000";
layers = (
{
layerId = "3EB4D4D8-7151-4DFB-AE23-ECE37F7A1310";
name = Bold;
paths = (
{
closed = 1;
nodes = (
"207 0 LINE",
"249 200 LINE",
"364 200 LINE SMOOTH",
"546 200 OFFCURVE",
"657 286 OFFCURVE",
"692 450 CURVE SMOOTH",
"727 613 OFFCURVE",
"619 699 OFFCURVE",
"470 699 CURVE SMOOTH",
"148 699 LINE",
"0 0 LINE"
);
},
{
closed = 1;
nodes = (
"320 535 LINE",
"396 535 LINE SMOOTH",
"466 535 OFFCURVE",
"495 518 OFFCURVE",
"480 450 CURVE SMOOTH",
"466 382 OFFCURVE",
"417 364 OFFCURVE",
"360 364 CURVE SMOOTH",
"284 364 LINE"
);
}
);
width = 647;
}
);
note = P;
unicode = 0050;
},
{
glyphname = Thorn;
lastChange = "2015-10-29 01:07:27 +0000";
layers = (
{
layerId = "3EB4D4D8-7151-4DFB-AE23-ECE37F7A1310";
name = Bold;
paths = (
{
closed = 1;
nodes = (
"207 0 LINE",
"229 107 LINE",
"346 107 LINE SMOOTH",
"523 107 OFFCURVE",
"635 188 OFFCURVE",
"671 352 CURVE SMOOTH",
"705 508 OFFCURVE",
"595 597 OFFCURVE",
"450 597 CURVE SMOOTH",
"333 597 LINE",
"355 699 LINE",
"148 699 LINE",
"0 0 LINE"
);
},
{
closed = 1;
nodes = (
"299 433 LINE",
"375 433 LINE SMOOTH",
"452 433 OFFCURVE",
"473 418 OFFCURVE",
"459 352 CURVE SMOOTH",
"445 286 OFFCURVE",
"405 271 OFFCURVE",
"340 271 CURVE SMOOTH",
"264 271 LINE"
);
}
);
width = 647;
}
);
note = Thorn;
unicode = 00DE;
},
{
glyphname = Q;
lastChange = "2015-10-29 01:07:25 +0000";
layers = (
{
layerId = "3EB4D4D8-7151-4DFB-AE23-ECE37F7A1310";
name = Bold;
paths = (
{
closed = 1;
nodes = (
"754 0 LINE",
"786 155 LINE",
"679 155 LINE",
"737 198 OFFCURVE",
"792 275 OFFCURVE",
"808 349 CURVE SMOOTH",
"854 568 OFFCURVE",
"721 714 OFFCURVE",
"509 714 CURVE SMOOTH",
"277 714 OFFCURVE",
"100 568 OFFCURVE",
"54 349 CURVE SMOOTH",
"8 132 OFFCURVE",
"150 0 OFFCURVE",
"383 0 CURVE SMOOTH"
);
},
{
closed = 1;
nodes = (
"281 179 OFFCURVE",
"242 242 OFFCURVE",
"265 349 CURVE SMOOTH",
"287 454 OFFCURVE",
"374 518 OFFCURVE",
"468 518 CURVE SMOOTH",
"578 518 OFFCURVE",
"619 454 OFFCURVE",
"597 349 CURVE SMOOTH",
"574 242 OFFCURVE",
"503 179 OFFCURVE",
"396 179 CURVE SMOOTH"
);
}
);
width = 799;
}
);
leftKerningGroup = O;
note = Q;
rightKerningGroup = O;
unicode = 0051;
},
{
glyphname = R;
lastChange = "2015-10-29 01:07:24 +0000";
layers = (
{
layerId = "3EB4D4D8-7151-4DFB-AE23-ECE37F7A1310";
name = Bold;
paths = (
{
closed = 1;
nodes = (
"207 0 LINE",
"250 205 LINE",
"319 205 LINE",
"377 0 LINE",
"589 0 LINE",
"522 235 LINE",
"608 273 OFFCURVE",
"670 347 OFFCURVE",
"693 452 CURVE SMOOTH",
"726 609 OFFCURVE",
"628 699 OFFCURVE",
"473 699 CURVE SMOOTH",
"148 699 LINE",
"0 0 LINE"
);
},
{
closed = 1;
nodes = (
"320 535 LINE",
"397 535 LINE SMOOTH",
"469 535 OFFCURVE",
"495 518 OFFCURVE",
"481 452 CURVE SMOOTH",
"467 387 OFFCURVE",
"430 369 OFFCURVE",
"362 369 CURVE SMOOTH",
"285 369 LINE"
);
}
);
width = 657;
}
);
note = R;
rightKerningGroup = R;
unicode = 0052;
},
{
glyphname = Racute;
lastChange = "2015-10-29 01:07:27 +0000";
layers = (
{
layerId = "3EB4D4D8-7151-4DFB-AE23-ECE37F7A1310";
name = Bold;
paths = (
{
closed = 1;
nodes = (
"207 0 LINE",
"250 205 LINE",
"319 205 LINE",
"377 0 LINE",
"589 0 LINE",
"522 235 LINE",
"608 273 OFFCURVE",
"670 347 OFFCURVE",
"693 452 CURVE SMOOTH",
"726 609 OFFCURVE",
"628 699 OFFCURVE",
"473 699 CURVE SMOOTH",
"148 699 LINE",
"0 0 LINE"
);
},
{
closed = 1;
nodes = (
"320 535 LINE",
"397 535 LINE SMOOTH",
"469 535 OFFCURVE",
"495 518 OFFCURVE",
"481 452 CURVE SMOOTH",
"467 387 OFFCURVE",
"430 369 OFFCURVE",
"362 369 CURVE SMOOTH",
"285 369 LINE"
);
},
{
closed = 1;
nodes = (
"461 737 LINE",
"592 917 LINE",
"391 917 LINE",
"284 737 LINE"
);
}
);
width = 657;
}
);
note = Racute;
rightKerningGroup = R;
unicode = 0154;
},
{
glyphname = Rcaron;
lastChange = "2015-10-29 01:07:25 +0000";
layers = (
{
layerId = "3EB4D4D8-7151-4DFB-AE23-ECE37F7A1310";
name = Bold;
paths = (
{
closed = 1;
nodes = (
"207 0 LINE",
"250 205 LINE",
"319 205 LINE",
"377 0 LINE",
"589 0 LINE",
"522 235 LINE",
"608 273 OFFCURVE",
"670 347 OFFCURVE",
"693 452 CURVE SMOOTH",
"726 609 OFFCURVE",
"628 699 OFFCURVE",
"473 699 CURVE SMOOTH",
"148 699 LINE",
"0 0 LINE"
);
},
{
closed = 1;
nodes = (
"320 535 LINE",
"397 535 LINE SMOOTH",
"469 535 OFFCURVE",
"495 518 OFFCURVE",
"481 452 CURVE SMOOTH",
"467 387 OFFCURVE",
"430 369 OFFCURVE",
"362 369 CURVE SMOOTH",
"285 369 LINE"
);
},
{
closed = 1;
nodes = (
"510 748 LINE",
"695 920 LINE",
"518 920 LINE",
"445 849 LINE",
"402 920 LINE",
"235 920 LINE",
"345 748 LINE"
);
}
);
width = 657;
}
);
note = Rcaron;
rightKerningGroup = R;
unicode = 0158;
},
{
glyphname = Rcommaaccent;
lastChange = "2015-10-29 01:07:25 +0000";
layers = (
{
layerId = "3EB4D4D8-7151-4DFB-AE23-ECE37F7A1310";
name = Bold;
paths = (
{
closed = 1;
nodes = (
"207 0 LINE",
"250 205 LINE",
"319 205 LINE",
"377 0 LINE",
"589 0 LINE",
"522 235 LINE",
"608 273 OFFCURVE",
"670 347 OFFCURVE",
"693 452 CURVE SMOOTH",
"726 609 OFFCURVE",
"628 699 OFFCURVE",
"473 699 CURVE SMOOTH",
"148 699 LINE",
"0 0 LINE"
);
},
{
closed = 1;
nodes = (
"224 -260 LINE",
"378 -45 LINE",
"181 -45 LINE",
"53 -260 LINE"
);
},
{
closed = 1;
nodes = (
"320 535 LINE",
"397 535 LINE SMOOTH",
"469 535 OFFCURVE",
"495 518 OFFCURVE",
"481 452 CURVE SMOOTH",
"467 387 OFFCURVE",
"430 369 OFFCURVE",
"362 369 CURVE SMOOTH",
"285 369 LINE"
);
}
);
width = 657;
}
);
note = Rcommaaccent;
rightKerningGroup = R;
unicode = 0156;
},
{
glyphname = Rdotbelow;
lastChange = "2015-10-29 01:07:26 +0000";
layers = (
{
layerId = "3EB4D4D8-7151-4DFB-AE23-ECE37F7A1310";
name = Bold;
paths = (
{
closed = 1;
nodes = (
"207 0 LINE",
"250 205 LINE",
"319 205 LINE",
"377 0 LINE",
"589 0 LINE",
"522 235 LINE",
"608 273 OFFCURVE",
"670 347 OFFCURVE",
"693 452 CURVE SMOOTH",
"726 609 OFFCURVE",
"628 699 OFFCURVE",
"473 699 CURVE SMOOTH",
"148 699 LINE",
"0 0 LINE"
);
},
{
closed = 1;
nodes = (
"283 -210 OFFCURVE",
"327 -174 OFFCURVE",
"336 -128 CURVE SMOOTH",
"346 -82 OFFCURVE",
"318 -46 OFFCURVE",
"274 -46 CURVE SMOOTH",
"229 -46 OFFCURVE",
"183 -82 OFFCURVE",
"173 -128 CURVE SMOOTH",
"164 -174 OFFCURVE",
"194 -210 OFFCURVE",
"239 -210 CURVE SMOOTH"
);
},
{
closed = 1;
nodes = (
"320 535 LINE",
"397 535 LINE SMOOTH",
"469 535 OFFCURVE",
"495 518 OFFCURVE",
"481 452 CURVE SMOOTH",
"467 387 OFFCURVE",
"430 369 OFFCURVE",
"362 369 CURVE SMOOTH",
"285 369 LINE"
);
}
);
width = 657;
}
);
note = Rdotbelow;
rightKerningGroup = R;
unicode = 1E5A;
},
{
glyphname = Rdotbelowmacron;
lastChange = "2015-10-29 01:07:25 +0000";
layers = (
{
layerId = "3EB4D4D8-7151-4DFB-AE23-ECE37F7A1310";
name = Bold;
paths = (
{
closed = 1;
nodes = (
"207 0 LINE",
"250 205 LINE",
"319 205 LINE",
"377 0 LINE",
"589 0 LINE",
"522 235 LINE",
"608 273 OFFCURVE",
"670 347 OFFCURVE",
"693 452 CURVE SMOOTH",
"726 609 OFFCURVE",
"628 699 OFFCURVE",
"473 699 CURVE SMOOTH",
"148 699 LINE",
"0 0 LINE"
);
},
{
closed = 1;
nodes = (
"268 -210 OFFCURVE",
"312 -174 OFFCURVE",
"321 -128 CURVE SMOOTH",
"331 -82 OFFCURVE",
"303 -46 OFFCURVE",
"259 -46 CURVE SMOOTH",
"214 -46 OFFCURVE",
"168 -82 OFFCURVE",
"158 -128 CURVE SMOOTH",
"149 -174 OFFCURVE",
"179 -210 OFFCURVE",
"224 -210 CURVE SMOOTH"
);
},
{
closed = 1;
nodes = (
"320 535 LINE",
"397 535 LINE SMOOTH",
"469 535 OFFCURVE",
"495 518 OFFCURVE",
"481 452 CURVE SMOOTH",
"467 387 OFFCURVE",
"430 369 OFFCURVE",
"362 369 CURVE SMOOTH",
"285 369 LINE"
);
},
{
closed = 1;
nodes = (
"585 757 LINE",
"610 875 LINE",
"255 875 LINE",
"230 757 LINE"
);
}
);
width = 657;
}
);
note = Rdotbelowmacron;
rightKerningGroup = R;
unicode = 1E5C;
},
{
glyphname = Rlinebelow;
lastChange = "2015-10-29 01:07:26 +0000";
layers = (
{
layerId = "3EB4D4D8-7151-4DFB-AE23-ECE37F7A1310";
name = Bold;
paths = (
{
closed = 1;
nodes = (
"207 0 LINE",
"250 205 LINE",
"319 205 LINE",
"377 0 LINE",
"589 0 LINE",
"522 235 LINE",
"608 273 OFFCURVE",
"670 347 OFFCURVE",
"693 452 CURVE SMOOTH",
"726 609 OFFCURVE",
"628 699 OFFCURVE",
"473 699 CURVE SMOOTH",
"148 699 LINE",
"0 0 LINE"
);
},
{
closed = 1;
nodes = (
"424 -172 LINE",
"449 -54 LINE",
"94 -54 LINE",
"69 -172 LINE"
);
},
{
closed = 1;
nodes = (
"320 535 LINE",
"397 535 LINE SMOOTH",
"469 535 OFFCURVE",
"495 518 OFFCURVE",
"481 452 CURVE SMOOTH",
"467 387 OFFCURVE",
"430 369 OFFCURVE",
"362 369 CURVE SMOOTH",
"285 369 LINE"
);
}
);
width = 657;
}
);
note = Rlinebelow;
rightKerningGroup = R;
unicode = 1E5E;
},
{
glyphname = S;
lastChange = "2015-10-29 01:07:27 +0000";
layers = (
{
layerId = "3EB4D4D8-7151-4DFB-AE23-ECE37F7A1310";
name = Bold;
paths = (
{
closed = 1;
nodes = (
"434 -15 OFFCURVE",
"528 68 OFFCURVE",
"555 196 CURVE SMOOTH",
"579 308 OFFCURVE",
"545 357 OFFCURVE",
"419 414 CURVE SMOOTH",
"346 447 OFFCURVE",
"304 461 OFFCURVE",
"312 496 CURVE SMOOTH",
"319 527 OFFCURVE",
"359 541 OFFCURVE",
"409 541 CURVE SMOOTH",
"466 541 OFFCURVE",
"524 526 OFFCURVE",
"577 493 CURVE",
"615 670 LINE",
"558 700 OFFCURVE",
"497 714 OFFCURVE",
"408 714 CURVE SMOOTH",
"231 714 OFFCURVE",
"116 627 OFFCURVE",
"89 501 CURVE SMOOTH",
"68 402 OFFCURVE",
"111 340 OFFCURVE",
"227 285 CURVE SMOOTH",
"305 248 OFFCURVE",
"335 233 OFFCURVE",
"328 198 CURVE SMOOTH",
"322 171 OFFCURVE",
"295 157 OFFCURVE",
"242 157 CURVE SMOOTH",
"174 157 OFFCURVE",
"93 176 OFFCURVE",
"26 217 CURVE",
"-13 34 LINE",
"37 4 OFFCURVE",
"132 -15 OFFCURVE",
"221 -15 CURVE SMOOTH"
);
}
);
width = 574;
}
);
leftKerningGroup = S;
note = S;
rightKerningGroup = S;
unicode = 0053;
},
{
glyphname = Sacute;
lastChange = "2015-10-29 01:07:26 +0000";
layers = (
{
layerId = "3EB4D4D8-7151-4DFB-AE23-ECE37F7A1310";
name = Bold;
paths = (
{
closed = 1;
nodes = (
"434 -15 OFFCURVE",
"528 68 OFFCURVE",
"555 196 CURVE SMOOTH",
"579 308 OFFCURVE",
"545 357 OFFCURVE",
"419 414 CURVE SMOOTH",
"346 447 OFFCURVE",
"304 461 OFFCURVE",
"312 496 CURVE SMOOTH",
"319 527 OFFCURVE",
"359 541 OFFCURVE",
"409 541 CURVE SMOOTH",
"466 541 OFFCURVE",
"524 526 OFFCURVE",
"577 493 CURVE",
"615 670 LINE",
"558 700 OFFCURVE",
"497 714 OFFCURVE",
"408 714 CURVE SMOOTH",
"231 714 OFFCURVE",
"116 627 OFFCURVE",
"89 501 CURVE SMOOTH",
"68 402 OFFCURVE",
"111 340 OFFCURVE",
"227 285 CURVE SMOOTH",
"305 248 OFFCURVE",
"335 233 OFFCURVE",
"328 198 CURVE SMOOTH",
"322 171 OFFCURVE",
"295 157 OFFCURVE",
"242 157 CURVE SMOOTH",
"174 157 OFFCURVE",
"93 176 OFFCURVE",
"26 217 CURVE",
"-13 34 LINE",
"37 4 OFFCURVE",
"132 -15 OFFCURVE",
"221 -15 CURVE SMOOTH"
);
},
{
closed = 1;
nodes = (
"468 737 LINE",
"599 917 LINE",
"398 917 LINE",
"291 737 LINE"
);
}
);
width = 574;
}
);
leftKerningGroup = S;
note = Sacute;
rightKerningGroup = S;
unicode = 015A;
},
{
glyphname = Scaron;
lastChange = "2015-10-29 01:07:26 +0000";
layers = (
{
layerId = "3EB4D4D8-7151-4DFB-AE23-ECE37F7A1310";
name = Bold;
paths = (
{
closed = 1;
nodes = (
"434 -15 OFFCURVE",
"528 68 OFFCURVE",
"555 196 CURVE SMOOTH",
"579 308 OFFCURVE",
"545 357 OFFCURVE",
"419 414 CURVE SMOOTH",
"346 447 OFFCURVE",
"304 461 OFFCURVE",
"312 496 CURVE SMOOTH",
"319 527 OFFCURVE",
"359 541 OFFCURVE",
"409 541 CURVE SMOOTH",
"466 541 OFFCURVE",
"524 526 OFFCURVE",
"577 493 CURVE",
"615 670 LINE",
"558 700 OFFCURVE",
"497 714 OFFCURVE",
"408 714 CURVE SMOOTH",
"231 714 OFFCURVE",
"116 627 OFFCURVE",
"89 501 CURVE SMOOTH",
"68 402 OFFCURVE",
"111 340 OFFCURVE",
"227 285 CURVE SMOOTH",
"305 248 OFFCURVE",
"335 233 OFFCURVE",
"328 198 CURVE SMOOTH",
"322 171 OFFCURVE",
"295 157 OFFCURVE",
"242 157 CURVE SMOOTH",
"174 157 OFFCURVE",
"93 176 OFFCURVE",
"26 217 CURVE",
"-13 34 LINE",
"37 4 OFFCURVE",
"132 -15 OFFCURVE",
"221 -15 CURVE SMOOTH"
);
},
{
closed = 1;
nodes = (
"467 748 LINE",
"652 920 LINE",
"475 920 LINE",
"402 849 LINE",
"359 920 LINE",
"192 920 LINE",
"302 748 LINE"
);
}
);
width = 574;
}
);
leftKerningGroup = S;
note = Scaron;
rightKerningGroup = S;
unicode = 0160;
},
{
glyphname = Scedilla;
lastChange = "2015-10-29 01:07:25 +0000";
layers = (
{
layerId = "3EB4D4D8-7151-4DFB-AE23-ECE37F7A1310";
name = Bold;
paths = (
{
closed = 1;
nodes = (
"434 -15 OFFCURVE",
"528 68 OFFCURVE",
"555 196 CURVE SMOOTH",
"579 308 OFFCURVE",
"545 357 OFFCURVE",
"419 414 CURVE SMOOTH",
"346 447 OFFCURVE",
"304 461 OFFCURVE",
"312 496 CURVE SMOOTH",
"319 527 OFFCURVE",
"359 541 OFFCURVE",
"409 541 CURVE SMOOTH",
"466 541 OFFCURVE",
"524 526 OFFCURVE",
"577 493 CURVE",
"615 670 LINE",
"558 700 OFFCURVE",
"497 714 OFFCURVE",
"408 714 CURVE SMOOTH",
"231 714 OFFCURVE",
"116 627 OFFCURVE",
"89 501 CURVE SMOOTH",
"68 402 OFFCURVE",
"111 340 OFFCURVE",
"227 285 CURVE SMOOTH",
"305 248 OFFCURVE",
"335 233 OFFCURVE",
"328 198 CURVE SMOOTH",
"322 171 OFFCURVE",
"295 157 OFFCURVE",
"242 157 CURVE SMOOTH",
"174 157 OFFCURVE",
"93 176 OFFCURVE",
"26 217 CURVE",
"-13 34 LINE",
"37 4 OFFCURVE",
"132 -15 OFFCURVE",
"221 -15 CURVE SMOOTH"
);
},
{
closed = 1;
nodes = (
"266 -248 OFFCURVE",
"327 -203 OFFCURVE",
"341 -139 CURVE SMOOTH",
"351 -90 OFFCURVE",
"326 -54 OFFCURVE",
"268 -46 CURVE",
"296 0 LINE",
"165 0 LINE",
"114 -87 LINE",
"190 -87 OFFCURVE",
"213 -100 OFFCURVE",
"207 -131 CURVE",
"200 -160 OFFCURVE",
"175 -168 OFFCURVE",
"135 -168 CURVE SMOOTH",
"112 -168 OFFCURVE",
"86 -162 OFFCURVE",
"72 -153 CURVE",
"55 -233 LINE",
"76 -242 OFFCURVE",
"108 -248 OFFCURVE",
"161 -248 CURVE SMOOTH"
);
}
);
width = 574;
}
);
leftKerningGroup = S;
note = Scedilla;
rightKerningGroup = S;
unicode = 015E;
},
{
glyphname = Scircumflex;
lastChange = "2015-10-29 01:07:25 +0000";
layers = (
{
layerId = "3EB4D4D8-7151-4DFB-AE23-ECE37F7A1310";
name = Bold;
paths = (
{
closed = 1;
nodes = (
"434 -15 OFFCURVE",
"528 68 OFFCURVE",
"555 196 CURVE SMOOTH",
"579 308 OFFCURVE",
"545 357 OFFCURVE",
"419 414 CURVE SMOOTH",
"346 447 OFFCURVE",
"304 461 OFFCURVE",
"312 496 CURVE SMOOTH",
"319 527 OFFCURVE",
"359 541 OFFCURVE",
"409 541 CURVE SMOOTH",
"466 541 OFFCURVE",
"524 526 OFFCURVE",
"577 493 CURVE",
"615 670 LINE",
"558 700 OFFCURVE",
"497 714 OFFCURVE",
"408 714 CURVE SMOOTH",
"231 714 OFFCURVE",
"116 627 OFFCURVE",
"89 501 CURVE SMOOTH",
"68 402 OFFCURVE",
"111 340 OFFCURVE",
"227 285 CURVE SMOOTH",
"305 248 OFFCURVE",
"335 233 OFFCURVE",
"328 198 CURVE SMOOTH",
"322 171 OFFCURVE",
"295 157 OFFCURVE",
"242 157 CURVE SMOOTH",
"174 157 OFFCURVE",
"93 176 OFFCURVE",
"26 217 CURVE",
"-13 34 LINE",
"37 4 OFFCURVE",
"132 -15 OFFCURVE",
"221 -15 CURVE SMOOTH"
);
},
{
closed = 1;
nodes = (
"333 748 LINE",
"406 819 LINE",
"449 748 LINE",
"616 748 LINE",
"505 920 LINE",
"340 920 LINE",
"156 748 LINE"
);
}
);
width = 574;
}
);
leftKerningGroup = S;
note = Scircumflex;
rightKerningGroup = S;
unicode = 015C;
},
{
glyphname = Scommaaccent;
lastChange = "2015-10-29 01:07:26 +0000";
layers = (
{
layerId = "3EB4D4D8-7151-4DFB-AE23-ECE37F7A1310";
name = Bold;
paths = (
{
closed = 1;
nodes = (
"434 -15 OFFCURVE",
"528 68 OFFCURVE",
"555 196 CURVE SMOOTH",
"579 308 OFFCURVE",
"545 357 OFFCURVE",
"419 414 CURVE SMOOTH",
"346 447 OFFCURVE",
"304 461 OFFCURVE",
"312 496 CURVE SMOOTH",
"319 527 OFFCURVE",
"359 541 OFFCURVE",
"409 541 CURVE SMOOTH",
"466 541 OFFCURVE",
"524 526 OFFCURVE",
"577 493 CURVE",
"615 670 LINE",
"558 700 OFFCURVE",
"497 714 OFFCURVE",
"408 714 CURVE SMOOTH",
"231 714 OFFCURVE",
"116 627 OFFCURVE",
"89 501 CURVE SMOOTH",
"68 402 OFFCURVE",
"111 340 OFFCURVE",
"227 285 CURVE SMOOTH",
"305 248 OFFCURVE",
"335 233 OFFCURVE",
"328 198 CURVE SMOOTH",
"322 171 OFFCURVE",
"295 157 OFFCURVE",
"242 157 CURVE SMOOTH",
"174 157 OFFCURVE",
"93 176 OFFCURVE",
"26 217 CURVE",
"-13 34 LINE",
"37 4 OFFCURVE",
"132 -15 OFFCURVE",
"221 -15 CURVE SMOOTH"
);
},
{
closed = 1;
nodes = (
"197 -259 LINE",
"349 -45 LINE",
"144 -45 LINE",
"14 -259 LINE"
);
}
);
width = 574;
}
);
leftKerningGroup = S;
note = Scommaaccent;
rightKerningGroup = S;
unicode = 0218;
},
{
glyphname = Sdotaccent;
lastChange = "2015-10-29 01:07:26 +0000";
layers = (
{
layerId = "3EB4D4D8-7151-4DFB-AE23-ECE37F7A1310";
name = Bold;
paths = (
{
closed = 1;
nodes = (
"434 -15 OFFCURVE",
"528 68 OFFCURVE",
"555 196 CURVE SMOOTH",
"579 308 OFFCURVE",
"545 357 OFFCURVE",
"419 414 CURVE SMOOTH",
"346 447 OFFCURVE",
"304 461 OFFCURVE",
"312 496 CURVE SMOOTH",
"319 527 OFFCURVE",
"359 541 OFFCURVE",
"409 541 CURVE SMOOTH",
"466 541 OFFCURVE",
"524 526 OFFCURVE",
"577 493 CURVE",
"615 670 LINE",
"558 700 OFFCURVE",
"497 714 OFFCURVE",
"408 714 CURVE SMOOTH",
"231 714 OFFCURVE",
"116 627 OFFCURVE",
"89 501 CURVE SMOOTH",
"68 402 OFFCURVE",
"111 340 OFFCURVE",
"227 285 CURVE SMOOTH",
"305 248 OFFCURVE",
"335 233 OFFCURVE",
"328 198 CURVE SMOOTH",
"322 171 OFFCURVE",
"295 157 OFFCURVE",
"242 157 CURVE SMOOTH",
"174 157 OFFCURVE",
"93 176 OFFCURVE",
"26 217 CURVE",
"-13 34 LINE",
"37 4 OFFCURVE",
"132 -15 OFFCURVE",
"221 -15 CURVE SMOOTH"
);
},
{
closed = 1;
nodes = (
"436 742 OFFCURVE",
"479 777 OFFCURVE",
"489 823 CURVE SMOOTH",
"499 869 OFFCURVE",
"471 906 OFFCURVE",
"426 906 CURVE SMOOTH",
"381 906 OFFCURVE",
"335 869 OFFCURVE",
"325 823 CURVE SMOOTH",
"315 777 OFFCURVE",
"346 742 OFFCURVE",
"391 742 CURVE SMOOTH"
);
}
);
width = 574;
}
);
leftKerningGroup = S;
note = Sdotaccent;
rightKerningGroup = S;
unicode = 1E60;
},
{
glyphname = Sdotbelow;
lastChange = "2015-10-29 01:07:25 +0000";
layers = (
{
layerId = "3EB4D4D8-7151-4DFB-AE23-ECE37F7A1310";
name = Bold;
paths = (
{
closed = 1;
nodes = (
"434 -15 OFFCURVE",
"528 68 OFFCURVE",
"555 196 CURVE SMOOTH",
"579 308 OFFCURVE",
"545 357 OFFCURVE",
"419 414 CURVE SMOOTH",
"346 447 OFFCURVE",
"304 461 OFFCURVE",
"312 496 CURVE SMOOTH",
"319 527 OFFCURVE",
"359 541 OFFCURVE",
"409 541 CURVE SMOOTH",
"466 541 OFFCURVE",
"524 526 OFFCURVE",
"577 493 CURVE",
"615 670 LINE",
"558 700 OFFCURVE",
"497 714 OFFCURVE",
"408 714 CURVE SMOOTH",
"231 714 OFFCURVE",
"116 627 OFFCURVE",
"89 501 CURVE SMOOTH",
"68 402 OFFCURVE",
"111 340 OFFCURVE",
"227 285 CURVE SMOOTH",
"305 248 OFFCURVE",
"335 233 OFFCURVE",
"328 198 CURVE SMOOTH",
"322 171 OFFCURVE",
"295 157 OFFCURVE",
"242 157 CURVE SMOOTH",
"174 157 OFFCURVE",
"93 176 OFFCURVE",
"26 217 CURVE",
"-13 34 LINE",
"37 4 OFFCURVE",
"132 -15 OFFCURVE",
"221 -15 CURVE SMOOTH"
);
},
{
closed = 1;
nodes = (
"244 -210 OFFCURVE",
"288 -174 OFFCURVE",
"297 -128 CURVE SMOOTH",
"307 -82 OFFCURVE",
"279 -46 OFFCURVE",
"235 -46 CURVE SMOOTH",
"190 -46 OFFCURVE",
"144 -82 OFFCURVE",
"134 -128 CURVE SMOOTH",
"125 -174 OFFCURVE",
"155 -210 OFFCURVE",
"200 -210 CURVE SMOOTH"
);
}
);
width = 574;
}
);
leftKerningGroup = S;
note = Sdotbelow;
rightKerningGroup = S;
unicode = 1E62;
},
{
glyphname = Germandbls;
lastChange = "2015-10-29 01:07:26 +0000";
layers = (
{
layerId = "3EB4D4D8-7151-4DFB-AE23-ECE37F7A1310";
name = Bold;
paths = (
{
closed = 1;
nodes = (
"512 -15 OFFCURVE",
"616 62 OFFCURVE",
"644 195 CURVE SMOOTH",
"664 288 OFFCURVE",
"635 352 OFFCURVE",
"548 381 CURVE",
"666 489 LINE",
"678 602 OFFCURVE",
"621 714 OFFCURVE",
"427 714 CURVE SMOOTH",
"242 714 OFFCURVE",
"125 616 OFFCURVE",
"91 452 CURVE SMOOTH",
"-5 0 LINE",
"201 0 LINE",
"302 477 LINE SMOOTH",
"313 528 OFFCURVE",
"342 561 OFFCURVE",
"397 561 CURVE SMOOTH",
"442 561 OFFCURVE",
"456 532 OFFCURVE",
"451 497 CURVE",
"328 384 LINE",
"307 286 LINE",
"363 286 LINE SMOOTH",
"425 286 OFFCURVE",
"449 264 OFFCURVE",
"438 215 CURVE SMOOTH",
"428 167 OFFCURVE",
"393 146 OFFCURVE",
"341 146 CURVE SMOOTH",
"315 146 OFFCURVE",
"289 152 OFFCURVE",
"273 165 CURVE",
"238 3 LINE",
"265 -10 OFFCURVE",
"315 -15 OFFCURVE",
"358 -15 CURVE SMOOTH"
);
}
);
width = 663;
}
);
note = uni1E9E;
unicode = 1E9E;
},
{
glyphname = Schwa;
lastChange = "2015-10-29 01:07:25 +0000";
layers = (
{
layerId = "3EB4D4D8-7151-4DFB-AE23-ECE37F7A1310";
name = Bold;
paths = (
{
closed = 1;
nodes = (
"639 -15 OFFCURVE",
"790 130 OFFCURVE",
"837 352 CURVE SMOOTH",
"886 583 OFFCURVE",
"734 714 OFFCURVE",
"483 714 CURVE SMOOTH",
"367 714 OFFCURVE",
"256 693 OFFCURVE",
"179 664 CURVE",
"144 500 LINE",
"220 527 OFFCURVE",
"322 542 OFFCURVE",
"408 542 CURVE SMOOTH",
"567 542 OFFCURVE",
"602 510 OFFCURVE",
"601 426 CURVE",
"70 426 LINE",
"52 341 LINE SMOOTH",
"12 153 OFFCURVE",
"121 -15 OFFCURVE",
"363 -15 CURVE SMOOTH"
);
},
{
closed = 1;
nodes = (
"287 154 OFFCURVE",
"264 212 OFFCURVE",
"269 278 CURVE",
"570 278 LINE",
"546 204 OFFCURVE",
"486 154 OFFCURVE",
"394 154 CURVE SMOOTH"
);
}
);
width = 823;
}
);
note = uni018F;
unicode = 018F;
},
{
glyphname = T;
lastChange = "2015-10-29 01:07:25 +0000";
layers = (
{
layerId = "3EB4D4D8-7151-4DFB-AE23-ECE37F7A1310";
name = Bold;
paths = (
{
closed = 1;
nodes = (
"360 0 LINE",
"471 525 LINE",
"659 525 LINE",
"696 699 LINE",
"113 699 LINE",
"76 525 LINE",
"264 525 LINE",
"153 0 LINE"
);
}
);
width = 593;
}
);
leftKerningGroup = T;
note = T;
rightKerningGroup = T;
unicode = 0054;
},
{
glyphname = Tbar;
lastChange = "2015-10-29 01:07:25 +0000";
layers = (
{
layerId = "3EB4D4D8-7151-4DFB-AE23-ECE37F7A1310";
name = Bold;
paths = (
{
closed = 1;
nodes = (
"362 0 LINE",
"412 240 LINE",
"515 240 LINE",
"550 409 LINE",
"448 409 LINE",
"472 521 LINE",
"658 521 LINE",
"696 699 LINE",
"113 699 LINE",
"75 521 LINE",
"261 521 LINE",
"237 409 LINE",
"138 409 LINE",
"103 240 LINE",
"201 240 LINE",
"151 0 LINE"
);
}
);
width = 593;
}
);
leftKerningGroup = T;
note = Tbar;
rightKerningGroup = T;
unicode = 0166;
},
{
glyphname = Tcaron;
lastChange = "2015-10-29 01:07:26 +0000";
layers = (
{
layerId = "3EB4D4D8-7151-4DFB-AE23-ECE37F7A1310";
name = Bold;
paths = (
{
closed = 1;
nodes = (
"360 0 LINE",
"471 525 LINE",
"659 525 LINE",
"696 699 LINE",
"113 699 LINE",
"76 525 LINE",
"264 525 LINE",
"153 0 LINE"
);
},
{
closed = 1;
nodes = (
"481 748 LINE",
"666 920 LINE",
"489 920 LINE",
"416 849 LINE",
"373 920 LINE",
"206 920 LINE",
"316 748 LINE"
);
}
);
width = 593;
}
);
leftKerningGroup = T;
note = Tcaron;
rightKerningGroup = T;
unicode = 0164;
},
{
glyphname = Tcedilla;
lastChange = "2015-10-29 01:07:25 +0000";
layers = (
{
layerId = "3EB4D4D8-7151-4DFB-AE23-ECE37F7A1310";
name = Bold;
paths = (
{
closed = 1;
nodes = (
"360 0 LINE",
"471 525 LINE",
"659 525 LINE",
"696 699 LINE",
"113 699 LINE",
"76 525 LINE",
"264 525 LINE",
"153 0 LINE"
);
},
{
closed = 1;
nodes = (
"293 -248 OFFCURVE",
"354 -203 OFFCURVE",
"368 -139 CURVE SMOOTH",
"378 -90 OFFCURVE",
"353 -54 OFFCURVE",
"295 -46 CURVE",
"323 0 LINE",
"192 0 LINE",
"141 -87 LINE",
"217 -87 OFFCURVE",
"240 -100 OFFCURVE",
"234 -131 CURVE",
"227 -160 OFFCURVE",
"202 -168 OFFCURVE",
"162 -168 CURVE SMOOTH",
"139 -168 OFFCURVE",
"113 -162 OFFCURVE",
"99 -153 CURVE",
"82 -233 LINE",
"103 -242 OFFCURVE",
"135 -248 OFFCURVE",
"188 -248 CURVE SMOOTH"
);
}
);
width = 593;
}
);
leftKerningGroup = T;
note = Tcedilla;
rightKerningGroup = T;
unicode = 0162;
},
{
glyphname = Tcommaaccent;
lastChange = "2015-10-29 01:07:25 +0000";
layers = (
{
layerId = "3EB4D4D8-7151-4DFB-AE23-ECE37F7A1310";
name = Bold;
paths = (
{
closed = 1;
nodes = (
"360 0 LINE",
"471 525 LINE",
"659 525 LINE",
"696 699 LINE",
"113 699 LINE",
"76 525 LINE",
"264 525 LINE",
"153 0 LINE"
);
},
{
closed = 1;
nodes = (
"189 -260 LINE",
"343 -45 LINE",
"146 -45 LINE",
"18 -260 LINE"
);
}
);
width = 593;
}
);
leftKerningGroup = T;
note = Tcommaaccent;
rightKerningGroup = T;
unicode = 021A;
},
{
glyphname = Tdotbelow;
lastChange = "2015-10-29 01:07:27 +0000";
layers = (
{
layerId = "3EB4D4D8-7151-4DFB-AE23-ECE37F7A1310";
name = Bold;
paths = (
{
closed = 1;
nodes = (
"360 0 LINE",
"471 525 LINE",
"659 525 LINE",
"696 699 LINE",
"113 699 LINE",
"76 525 LINE",
"264 525 LINE",
"153 0 LINE"
);
},
{
closed = 1;
nodes = (
"262 -210 OFFCURVE",
"306 -174 OFFCURVE",
"315 -128 CURVE SMOOTH",
"325 -82 OFFCURVE",
"297 -46 OFFCURVE",
"253 -46 CURVE SMOOTH",
"208 -46 OFFCURVE",
"162 -82 OFFCURVE",
"152 -128 CURVE SMOOTH",
"143 -174 OFFCURVE",
"173 -210 OFFCURVE",
"218 -210 CURVE SMOOTH"
);
}
);
width = 593;
}
);
leftKerningGroup = T;
note = Tdotbelow;
rightKerningGroup = T;
unicode = 1E6C;
},
{
glyphname = Tlinebelow;
lastChange = "2015-10-29 01:07:27 +0000";
layers = (
{
layerId = "3EB4D4D8-7151-4DFB-AE23-ECE37F7A1310";
name = Bold;
paths = (
{
closed = 1;
nodes = (
"360 0 LINE",
"471 525 LINE",
"659 525 LINE",
"696 699 LINE",
"113 699 LINE",
"76 525 LINE",
"264 525 LINE",
"153 0 LINE"
);
},
{
closed = 1;
nodes = (
"388 -172 LINE",
"413 -54 LINE",
"58 -54 LINE",
"33 -172 LINE"
);
}
);
width = 593;
}
);
leftKerningGroup = T;
note = Tlinebelow;
rightKerningGroup = T;
unicode = 1E6E;
},
{
glyphname = U;
lastChange = "2015-10-29 01:07:25 +0000";
layers = (
{
layerId = "3EB4D4D8-7151-4DFB-AE23-ECE37F7A1310";
name = Bold;
paths = (
{
closed = 1;
nodes = (
"567 -15 OFFCURVE",
"672 113 OFFCURVE",
"713 304 CURVE SMOOTH",
"797 699 LINE",
"590 699 LINE",
"507 306 LINE SMOOTH",
"488 220 OFFCURVE",
"457 176 OFFCURVE",
"354 176 CURVE SMOOTH",
"272 176 OFFCURVE",
"247 209 OFFCURVE",
"267 306 CURVE SMOOTH",
"350 699 LINE",
"143 699 LINE",
"59 304 LINE SMOOTH",
"18 110 OFFCURVE",
"123 -15 OFFCURVE",
"318 -15 CURVE SMOOTH"
);
}
);
width = 724;
}
);
leftKerningGroup = U;
note = U;
rightKerningGroup = U;
unicode = 0055;
},
{
glyphname = Uacute;
lastChange = "2015-10-29 01:07:27 +0000";
layers = (
{
layerId = "3EB4D4D8-7151-4DFB-AE23-ECE37F7A1310";
name = Bold;
paths = (
{
closed = 1;
nodes = (
"567 -15 OFFCURVE",
"672 113 OFFCURVE",
"713 304 CURVE SMOOTH",
"797 699 LINE",
"590 699 LINE",
"507 306 LINE SMOOTH",
"488 220 OFFCURVE",
"457 176 OFFCURVE",
"354 176 CURVE SMOOTH",
"272 176 OFFCURVE",
"247 209 OFFCURVE",
"267 306 CURVE SMOOTH",
"350 699 LINE",
"143 699 LINE",
"59 304 LINE SMOOTH",
"18 110 OFFCURVE",
"123 -15 OFFCURVE",
"318 -15 CURVE SMOOTH"
);
},
{
closed = 1;
nodes = (
"550 737 LINE",
"681 917 LINE",
"480 917 LINE",
"373 737 LINE"
);
}
);
width = 724;
}
);
leftKerningGroup = U;
note = Uacute;
rightKerningGroup = U;
unicode = 00DA;
},
{
glyphname = Ubreve;
lastChange = "2015-10-29 01:07:26 +0000";
layers = (
{
layerId = "3EB4D4D8-7151-4DFB-AE23-ECE37F7A1310";
name = Bold;
paths = (
{
closed = 1;
nodes = (
"567 -15 OFFCURVE",
"672 113 OFFCURVE",
"713 304 CURVE SMOOTH",
"797 699 LINE",
"590 699 LINE",
"507 306 LINE SMOOTH",
"488 220 OFFCURVE",
"457 176 OFFCURVE",
"354 176 CURVE SMOOTH",
"272 176 OFFCURVE",
"247 209 OFFCURVE",
"267 306 CURVE SMOOTH",
"350 699 LINE",
"143 699 LINE",
"59 304 LINE SMOOTH",
"18 110 OFFCURVE",
"123 -15 OFFCURVE",
"318 -15 CURVE SMOOTH"
);
},
{
closed = 1;
nodes = (
"589 741 OFFCURVE",
"673 812 OFFCURVE",
"697 925 CURVE",
"543 925 LINE",
"535 885 OFFCURVE",
"515 865 OFFCURVE",
"486 865 CURVE SMOOTH",
"456 865 OFFCURVE",
"445 885 OFFCURVE",
"453 925 CURVE",
"310 925 LINE",
"286 812 OFFCURVE",
"340 741 OFFCURVE",
"464 741 CURVE SMOOTH"
);
}
);
width = 724;
}
);
leftKerningGroup = U;
note = Ubreve;
rightKerningGroup = U;
unicode = 016C;
},
{
glyphname = Ucaron;
lastChange = "2015-10-29 01:07:25 +0000";
layers = (
{
layerId = "3EB4D4D8-7151-4DFB-AE23-ECE37F7A1310";
name = Bold;
paths = (
{
closed = 1;
nodes = (
"567 -15 OFFCURVE",
"672 113 OFFCURVE",
"713 304 CURVE SMOOTH",
"797 699 LINE",
"590 699 LINE",
"507 306 LINE SMOOTH",
"488 220 OFFCURVE",
"457 176 OFFCURVE",
"354 176 CURVE SMOOTH",
"272 176 OFFCURVE",
"247 209 OFFCURVE",
"267 306 CURVE SMOOTH",
"350 699 LINE",
"143 699 LINE",
"59 304 LINE SMOOTH",
"18 110 OFFCURVE",
"123 -15 OFFCURVE",
"318 -15 CURVE SMOOTH"
);
},
{
closed = 1;
nodes = (
"548 748 LINE",
"733 920 LINE",
"556 920 LINE",
"483 849 LINE",
"440 920 LINE",
"273 920 LINE",
"383 748 LINE"
);
}
);
width = 724;
}
);
leftKerningGroup = U;
note = Ucaron;
rightKerningGroup = U;
unicode = 01D3;
},
{
glyphname = Ucircumflex;
lastChange = "2015-10-29 01:07:26 +0000";
layers = (
{
layerId = "3EB4D4D8-7151-4DFB-AE23-ECE37F7A1310";
name = Bold;
paths = (
{
closed = 1;
nodes = (
"567 -15 OFFCURVE",
"672 113 OFFCURVE",
"713 304 CURVE SMOOTH",
"797 699 LINE",
"590 699 LINE",
"507 306 LINE SMOOTH",
"488 220 OFFCURVE",
"457 176 OFFCURVE",
"354 176 CURVE SMOOTH",
"272 176 OFFCURVE",
"247 209 OFFCURVE",
"267 306 CURVE SMOOTH",
"350 699 LINE",
"143 699 LINE",
"59 304 LINE SMOOTH",
"18 110 OFFCURVE",
"123 -15 OFFCURVE",
"318 -15 CURVE SMOOTH"
);
},
{
closed = 1;
nodes = (
"408 748 LINE",
"481 819 LINE",
"524 748 LINE",
"691 748 LINE",
"580 920 LINE",
"415 920 LINE",
"231 748 LINE"
);
}
);
width = 724;
}
);
leftKerningGroup = U;
note = Ucircumflex;
rightKerningGroup = U;
unicode = 00DB;
},
{
glyphname = Udieresis;
lastChange = "2015-10-29 01:07:27 +0000";
layers = (
{
layerId = "3EB4D4D8-7151-4DFB-AE23-ECE37F7A1310";
name = Bold;
paths = (
{
closed = 1;
nodes = (
"567 -15 OFFCURVE",
"672 113 OFFCURVE",
"713 304 CURVE SMOOTH",
"797 699 LINE",
"590 699 LINE",
"507 306 LINE SMOOTH",
"488 220 OFFCURVE",
"457 176 OFFCURVE",
"354 176 CURVE SMOOTH",
"272 176 OFFCURVE",
"247 209 OFFCURVE",
"267 306 CURVE SMOOTH",
"350 699 LINE",
"143 699 LINE",
"59 304 LINE SMOOTH",
"18 110 OFFCURVE",
"123 -15 OFFCURVE",
"318 -15 CURVE SMOOTH"
);
},
{
closed = 1;
nodes = (
"388 749 OFFCURVE",
"432 784 OFFCURVE",
"442 830 CURVE SMOOTH",
"452 876 OFFCURVE",
"423 913 OFFCURVE",
"378 913 CURVE SMOOTH",
"335 913 OFFCURVE",
"288 876 OFFCURVE",
"278 830 CURVE SMOOTH",
"268 784 OFFCURVE",
"300 749 OFFCURVE",
"343 749 CURVE SMOOTH"
);
},
{
closed = 1;
nodes = (
"623 749 OFFCURVE",
"667 784 OFFCURVE",
"677 830 CURVE SMOOTH",
"687 876 OFFCURVE",
"658 913 OFFCURVE",
"614 913 CURVE SMOOTH",
"569 913 OFFCURVE",
"523 876 OFFCURVE",
"513 830 CURVE SMOOTH",
"503 784 OFFCURVE",
"534 749 OFFCURVE",
"579 749 CURVE SMOOTH"
);
}
);
width = 724;
}
);
leftKerningGroup = U;
note = Udieresis;
rightKerningGroup = U;
unicode = 00DC;
},
{
glyphname = Udieresisacute;
lastChange = "2015-10-29 01:07:25 +0000";
layers = (
{
layerId = "3EB4D4D8-7151-4DFB-AE23-ECE37F7A1310";
name = Bold;
paths = (
{
closed = 1;
nodes = (
"567 -15 OFFCURVE",
"672 113 OFFCURVE",
"713 304 CURVE SMOOTH",
"797 699 LINE",
"590 699 LINE",
"507 306 LINE SMOOTH",
"488 220 OFFCURVE",
"457 176 OFFCURVE",
"354 176 CURVE SMOOTH",
"272 176 OFFCURVE",
"247 209 OFFCURVE",
"267 306 CURVE SMOOTH",
"350 699 LINE",
"143 699 LINE",
"59 304 LINE SMOOTH",
"18 110 OFFCURVE",
"123 -15 OFFCURVE",
"318 -15 CURVE SMOOTH"
);
},
{
closed = 1;
nodes = (
"410 752 OFFCURVE",
"451 784 OFFCURVE",
"460 826 CURVE SMOOTH",
"469 868 OFFCURVE",
"442 902 OFFCURVE",
"401 902 CURVE SMOOTH",
"361 902 OFFCURVE",
"318 868 OFFCURVE",
"309 826 CURVE SMOOTH",
"300 784 OFFCURVE",
"329 752 OFFCURVE",
"369 752 CURVE SMOOTH"
);
},
{
closed = 1;
nodes = (
"644 752 OFFCURVE",
"685 784 OFFCURVE",
"694 826 CURVE SMOOTH",
"703 868 OFFCURVE",
"676 902 OFFCURVE",
"636 902 CURVE SMOOTH",
"595 902 OFFCURVE",
"553 868 OFFCURVE",
"544 826 CURVE SMOOTH",
"535 784 OFFCURVE",
"563 752 OFFCURVE",
"604 752 CURVE SMOOTH"
);
},
{
closed = 1;
nodes = (
"589 908 LINE",
"702 1052 LINE",
"538 1052 LINE",
"450 908 LINE"
);
}
);
width = 724;
}
);
leftKerningGroup = U;
note = Udieresisacute;
rightKerningGroup = U;
unicode = 01D7;
},
{
glyphname = Udieresiscaron;
lastChange = "2015-10-29 01:07:27 +0000";
layers = (
{
layerId = "3EB4D4D8-7151-4DFB-AE23-ECE37F7A1310";
name = Bold;
paths = (
{
closed = 1;
nodes = (
"567 -15 OFFCURVE",
"672 113 OFFCURVE",
"713 304 CURVE SMOOTH",
"797 699 LINE",
"590 699 LINE",
"507 306 LINE SMOOTH",
"488 220 OFFCURVE",
"457 176 OFFCURVE",
"354 176 CURVE SMOOTH",
"272 176 OFFCURVE",
"247 209 OFFCURVE",
"267 306 CURVE SMOOTH",
"350 699 LINE",
"143 699 LINE",
"59 304 LINE SMOOTH",
"18 110 OFFCURVE",
"123 -15 OFFCURVE",
"318 -15 CURVE SMOOTH"
);
},
{
closed = 1;
nodes = (
"405 749 OFFCURVE",
"447 781 OFFCURVE",
"456 823 CURVE SMOOTH",
"465 865 OFFCURVE",
"437 899 OFFCURVE",
"396 899 CURVE SMOOTH",
"356 899 OFFCURVE",
"315 865 OFFCURVE",
"306 823 CURVE SMOOTH",
"297 781 OFFCURVE",
"324 749 OFFCURVE",
"364 749 CURVE SMOOTH"
);
},
{
closed = 1;
nodes = (
"639 749 OFFCURVE",
"682 781 OFFCURVE",
"691 823 CURVE SMOOTH",
"700 865 OFFCURVE",
"671 899 OFFCURVE",
"631 899 CURVE SMOOTH",
"590 899 OFFCURVE",
"549 865 OFFCURVE",
"540 823 CURVE SMOOTH",
"531 781 OFFCURVE",
"558 749 OFFCURVE",
"599 749 CURVE SMOOTH"
);
},
{
closed = 1;
nodes = (
"564 891 LINE",
"716 1017 LINE",
"579 1017 LINE",
"528 971 LINE",
"498 1017 LINE",
"361 1017 LINE",
"460 891 LINE"
);
}
);
width = 724;
}
);
leftKerningGroup = U;
note = Udieresiscaron;
rightKerningGroup = U;
unicode = 01D9;
},
{
glyphname = Udieresisgrave;
lastChange = "2015-10-29 01:07:26 +0000";
layers = (
{
layerId = "3EB4D4D8-7151-4DFB-AE23-ECE37F7A1310";
name = Bold;
paths = (
{
closed = 1;
nodes = (
"567 -15 OFFCURVE",
"672 113 OFFCURVE",
"713 304 CURVE SMOOTH",
"797 699 LINE",
"590 699 LINE",
"507 306 LINE SMOOTH",
"488 220 OFFCURVE",
"457 176 OFFCURVE",
"354 176 CURVE SMOOTH",
"272 176 OFFCURVE",
"247 209 OFFCURVE",
"267 306 CURVE SMOOTH",
"350 699 LINE",
"143 699 LINE",
"59 304 LINE SMOOTH",
"18 110 OFFCURVE",
"123 -15 OFFCURVE",
"318 -15 CURVE SMOOTH"
);
},
{
closed = 1;
nodes = (
"408 749 OFFCURVE",
"450 781 OFFCURVE",
"459 823 CURVE SMOOTH",
"468 865 OFFCURVE",
"440 899 OFFCURVE",
"399 899 CURVE SMOOTH",
"359 899 OFFCURVE",
"318 865 OFFCURVE",
"309 823 CURVE SMOOTH",
"300 781 OFFCURVE",
"327 749 OFFCURVE",
"367 749 CURVE SMOOTH"
);
},
{
closed = 1;
nodes = (
"642 749 OFFCURVE",
"685 781 OFFCURVE",
"694 823 CURVE SMOOTH",
"703 865 OFFCURVE",
"674 899 OFFCURVE",
"634 899 CURVE SMOOTH",
"593 899 OFFCURVE",
"552 865 OFFCURVE",
"543 823 CURVE SMOOTH",
"534 781 OFFCURVE",
"561 749 OFFCURVE",
"602 749 CURVE SMOOTH"
);
},
{
closed = 1;
nodes = (
"587 905 LINE",
"560 1049 LINE",
"397 1049 LINE",
"448 905 LINE"
);
}
);
width = 724;
}
);
leftKerningGroup = U;
note = Udieresisgrave;
rightKerningGroup = U;
unicode = 01DB;
},
{
glyphname = Udieresismacron;
lastChange = "2015-10-29 01:07:25 +0000";
layers = (
{
layerId = "3EB4D4D8-7151-4DFB-AE23-ECE37F7A1310";
name = Bold;
paths = (
{
closed = 1;
nodes = (
"567 -15 OFFCURVE",
"672 113 OFFCURVE",
"713 304 CURVE SMOOTH",
"797 699 LINE",
"590 699 LINE",
"507 306 LINE SMOOTH",
"488 220 OFFCURVE",
"457 176 OFFCURVE",
"354 176 CURVE SMOOTH",
"272 176 OFFCURVE",
"247 209 OFFCURVE",
"267 306 CURVE SMOOTH",
"350 699 LINE",
"143 699 LINE",
"59 304 LINE SMOOTH",
"18 110 OFFCURVE",
"123 -15 OFFCURVE",
"318 -15 CURVE SMOOTH"
);
},
{
closed = 1;
nodes = (
"393 741 OFFCURVE",
"437 776 OFFCURVE",
"447 822 CURVE SMOOTH",
"457 868 OFFCURVE",
"428 905 OFFCURVE",
"383 905 CURVE SMOOTH",
"340 905 OFFCURVE",
"293 868 OFFCURVE",
"283 822 CURVE SMOOTH",
"273 776 OFFCURVE",
"305 741 OFFCURVE",
"348 741 CURVE SMOOTH"
);
},
{
closed = 1;
nodes = (
"628 741 OFFCURVE",
"672 776 OFFCURVE",
"682 822 CURVE SMOOTH",
"692 868 OFFCURVE",
"663 905 OFFCURVE",
"619 905 CURVE SMOOTH",
"574 905 OFFCURVE",
"528 868 OFFCURVE",
"518 822 CURVE SMOOTH",
"508 776 OFFCURVE",
"539 741 OFFCURVE",
"584 741 CURVE SMOOTH"
);
},
{
closed = 1;
nodes = (
"688 954 LINE",
"713 1072 LINE",
"358 1072 LINE",
"333 954 LINE"
);
}
);
width = 724;
}
);
leftKerningGroup = U;
note = Udieresismacron;
rightKerningGroup = U;
unicode = 01D5;
},
{
glyphname = Udotbelow;
lastChange = "2015-10-29 01:07:26 +0000";
layers = (
{
layerId = "3EB4D4D8-7151-4DFB-AE23-ECE37F7A1310";
name = Bold;
paths = (
{
closed = 1;
nodes = (
"567 -15 OFFCURVE",
"672 113 OFFCURVE",
"713 304 CURVE SMOOTH",
"797 699 LINE",
"590 699 LINE",
"507 306 LINE SMOOTH",
"488 220 OFFCURVE",
"457 176 OFFCURVE",
"354 176 CURVE SMOOTH",
"272 176 OFFCURVE",
"247 209 OFFCURVE",
"267 306 CURVE SMOOTH",
"350 699 LINE",
"143 699 LINE",
"59 304 LINE SMOOTH",
"18 110 OFFCURVE",
"123 -15 OFFCURVE",
"318 -15 CURVE SMOOTH"
);
},
{
closed = 1;
nodes = (
"323 -210 OFFCURVE",
"367 -174 OFFCURVE",
"376 -128 CURVE SMOOTH",
"386 -82 OFFCURVE",
"358 -46 OFFCURVE",
"314 -46 CURVE SMOOTH",
"269 -46 OFFCURVE",
"223 -82 OFFCURVE",
"213 -128 CURVE SMOOTH",
"204 -174 OFFCURVE",
"234 -210 OFFCURVE",
"279 -210 CURVE SMOOTH"
);
}
);
width = 724;
}
);
leftKerningGroup = U;
note = Udotbelow;
rightKerningGroup = U;
unicode = 1EE4;
},
{
glyphname = Ugrave;
lastChange = "2015-10-29 01:07:27 +0000";
layers = (
{
layerId = "3EB4D4D8-7151-4DFB-AE23-ECE37F7A1310";
name = Bold;
paths = (
{
closed = 1;
nodes = (
"567 -15 OFFCURVE",
"672 113 OFFCURVE",
"713 304 CURVE SMOOTH",
"797 699 LINE",
"590 699 LINE",
"507 306 LINE SMOOTH",
"488 220 OFFCURVE",
"457 176 OFFCURVE",
"354 176 CURVE SMOOTH",
"272 176 OFFCURVE",
"247 209 OFFCURVE",
"267 306 CURVE SMOOTH",
"350 699 LINE",
"143 699 LINE",
"59 304 LINE SMOOTH",
"18 110 OFFCURVE",
"123 -15 OFFCURVE",
"318 -15 CURVE SMOOTH"
);
},
{
closed = 1;
nodes = (
"559 737 LINE",
"528 917 LINE",
"327 917 LINE",
"382 737 LINE"
);
}
);
width = 724;
}
);
leftKerningGroup = U;
note = Ugrave;
rightKerningGroup = U;
unicode = 00D9;
},
{
glyphname = Uhookabove;
lastChange = "2015-10-29 01:07:25 +0000";
layers = (
{
layerId = "3EB4D4D8-7151-4DFB-AE23-ECE37F7A1310";
name = Bold;
paths = (
{
closed = 1;
nodes = (
"567 -15 OFFCURVE",
"672 113 OFFCURVE",
"713 304 CURVE SMOOTH",
"797 699 LINE",
"590 699 LINE",
"507 306 LINE SMOOTH",
"488 220 OFFCURVE",
"457 176 OFFCURVE",
"354 176 CURVE SMOOTH",
"272 176 OFFCURVE",
"247 209 OFFCURVE",
"267 306 CURVE SMOOTH",
"350 699 LINE",
"143 699 LINE",
"59 304 LINE SMOOTH",
"18 110 OFFCURVE",
"123 -15 OFFCURVE",
"318 -15 CURVE SMOOTH"
);
},
{
closed = 1;
nodes = (
"536 742 LINE",
"542 772 LINE",
"611 783 OFFCURVE",
"649 820 OFFCURVE",
"660 868 CURVE SMOOTH",
"673 933 OFFCURVE",
"628 978 OFFCURVE",
"515 978 CURVE SMOOTH",
"463 978 OFFCURVE",
"414 970 OFFCURVE",
"381 960 CURVE",
"363 876 LINE",
"376 881 OFFCURVE",
"404 886 OFFCURVE",
"427 886 CURVE SMOOTH",
"474 886 OFFCURVE",
"486 871 OFFCURVE",
"482 853 CURVE SMOOTH",
"476 825 OFFCURVE",
"440 814 OFFCURVE",
"385 814 CURVE",
"370 742 LINE"
);
}
);
width = 724;
}
);
leftKerningGroup = U;
note = Uhookabove;
rightKerningGroup = U;
unicode = 1EE6;
},
{
glyphname = Uhorn;
lastChange = "2015-10-29 01:07:25 +0000";
layers = (
{
layerId = "3EB4D4D8-7151-4DFB-AE23-ECE37F7A1310";
name = Bold;
paths = (
{
closed = 1;
nodes = (
"567 -15 OFFCURVE",
"672 113 OFFCURVE",
"713 304 CURVE SMOOTH",
"756 506 LINE",
"910 511 OFFCURVE",
"989 594 OFFCURVE",
"1011 702 CURVE SMOOTH",
"1020 747 LINE",
"872 747 LINE",
"865 713 LINE SMOOTH",
"854 660 OFFCURVE",
"836 636 OFFCURVE",
"783 632 CURVE",
"797 699 LINE",
"590 699 LINE",
"507 306 LINE SMOOTH",
"489 220 OFFCURVE",
"457 176 OFFCURVE",
"354 176 CURVE SMOOTH",
"272 176 OFFCURVE",
"247 209 OFFCURVE",
"267 306 CURVE SMOOTH",
"350 699 LINE",
"143 699 LINE",
"59 304 LINE SMOOTH",
"18 110 OFFCURVE",
"123 -15 OFFCURVE",
"318 -15 CURVE SMOOTH"
);
}
);
width = 902;
}
);
leftKerningGroup = U;
note = Uhorn;
rightKerningGroup = U;
unicode = 01AF;
},
{
glyphname = Uhornacute;
lastChange = "2015-10-29 01:07:25 +0000";
layers = (
{
layerId = "3EB4D4D8-7151-4DFB-AE23-ECE37F7A1310";
name = Bold;
paths = (
{
closed = 1;
nodes = (
"567 -15 OFFCURVE",
"672 113 OFFCURVE",
"713 304 CURVE SMOOTH",
"756 506 LINE",
"910 511 OFFCURVE",
"989 594 OFFCURVE",
"1011 702 CURVE SMOOTH",
"1020 747 LINE",
"872 747 LINE",
"865 713 LINE SMOOTH",
"854 660 OFFCURVE",
"836 636 OFFCURVE",
"783 632 CURVE",
"797 699 LINE",
"590 699 LINE",
"507 306 LINE SMOOTH",
"489 220 OFFCURVE",
"457 176 OFFCURVE",
"354 176 CURVE SMOOTH",
"272 176 OFFCURVE",
"247 209 OFFCURVE",
"267 306 CURVE SMOOTH",
"350 699 LINE",
"143 699 LINE",
"59 304 LINE SMOOTH",
"18 110 OFFCURVE",
"123 -15 OFFCURVE",
"318 -15 CURVE SMOOTH"
);
},
{
closed = 1;
nodes = (
"547 737 LINE",
"678 917 LINE",
"477 917 LINE",
"370 737 LINE"
);
}
);
width = 902;
}
);
leftKerningGroup = U;
note = Uhornacute;
rightKerningGroup = U;
unicode = 1EE8;
},
{
glyphname = Uhorndotbelow;
lastChange = "2015-10-29 01:07:26 +0000";
layers = (
{
layerId = "3EB4D4D8-7151-4DFB-AE23-ECE37F7A1310";
name = Bold;
paths = (
{
closed = 1;
nodes = (
"567 -15 OFFCURVE",
"672 113 OFFCURVE",
"713 304 CURVE SMOOTH",
"756 506 LINE",
"910 511 OFFCURVE",
"989 594 OFFCURVE",
"1011 702 CURVE SMOOTH",
"1020 747 LINE",
"872 747 LINE",
"865 713 LINE SMOOTH",
"854 660 OFFCURVE",
"836 636 OFFCURVE",
"783 632 CURVE",
"797 699 LINE",
"590 699 LINE",
"507 306 LINE SMOOTH",
"489 220 OFFCURVE",
"457 176 OFFCURVE",
"354 176 CURVE SMOOTH",
"272 176 OFFCURVE",
"247 209 OFFCURVE",
"267 306 CURVE SMOOTH",
"350 699 LINE",
"143 699 LINE",
"59 304 LINE SMOOTH",
"18 110 OFFCURVE",
"123 -15 OFFCURVE",
"318 -15 CURVE SMOOTH"
);
},
{
closed = 1;
nodes = (
"330 -210 OFFCURVE",
"374 -174 OFFCURVE",
"383 -128 CURVE SMOOTH",
"393 -82 OFFCURVE",
"365 -46 OFFCURVE",
"321 -46 CURVE SMOOTH",
"276 -46 OFFCURVE",
"230 -82 OFFCURVE",
"220 -128 CURVE SMOOTH",
"211 -174 OFFCURVE",
"241 -210 OFFCURVE",
"286 -210 CURVE SMOOTH"
);
}
);
width = 902;
}
);
leftKerningGroup = U;
note = Uhorndotbelow;
rightKerningGroup = U;
unicode = 1EF0;
},
{
glyphname = Uhorngrave;
lastChange = "2015-10-29 01:07:26 +0000";
layers = (
{
layerId = "3EB4D4D8-7151-4DFB-AE23-ECE37F7A1310";
name = Bold;
paths = (
{
closed = 1;
nodes = (
"567 -15 OFFCURVE",
"672 113 OFFCURVE",
"713 304 CURVE SMOOTH",
"756 506 LINE",
"910 511 OFFCURVE",
"989 594 OFFCURVE",
"1011 702 CURVE SMOOTH",
"1020 747 LINE",
"872 747 LINE",
"865 713 LINE SMOOTH",
"854 660 OFFCURVE",
"836 636 OFFCURVE",
"783 632 CURVE",
"797 699 LINE",
"590 699 LINE",
"507 306 LINE SMOOTH",
"489 220 OFFCURVE",
"457 176 OFFCURVE",
"354 176 CURVE SMOOTH",
"272 176 OFFCURVE",
"247 209 OFFCURVE",
"267 306 CURVE SMOOTH",
"350 699 LINE",
"143 699 LINE",
"59 304 LINE SMOOTH",
"18 110 OFFCURVE",
"123 -15 OFFCURVE",
"318 -15 CURVE SMOOTH"
);
},
{
closed = 1;
nodes = (
"556 737 LINE",
"525 917 LINE",
"324 917 LINE",
"379 737 LINE"
);
}
);
width = 902;
}
);
leftKerningGroup = U;
note = Uhorngrave;
rightKerningGroup = U;
unicode = 1EEA;
},
{
glyphname = Uhornhookabove;
lastChange = "2015-10-29 01:07:27 +0000";
layers = (
{
layerId = "3EB4D4D8-7151-4DFB-AE23-ECE37F7A1310";
name = Bold;
paths = (
{
closed = 1;
nodes = (
"567 -15 OFFCURVE",
"672 113 OFFCURVE",
"713 304 CURVE SMOOTH",
"756 506 LINE",
"910 511 OFFCURVE",
"989 594 OFFCURVE",
"1011 702 CURVE SMOOTH",
"1020 747 LINE",
"872 747 LINE",
"865 713 LINE SMOOTH",
"854 660 OFFCURVE",
"836 636 OFFCURVE",
"783 632 CURVE",
"797 699 LINE",
"590 699 LINE",
"507 306 LINE SMOOTH",
"489 220 OFFCURVE",
"457 176 OFFCURVE",
"354 176 CURVE SMOOTH",
"272 176 OFFCURVE",
"247 209 OFFCURVE",
"267 306 CURVE SMOOTH",
"350 699 LINE",
"143 699 LINE",
"59 304 LINE SMOOTH",
"18 110 OFFCURVE",
"123 -15 OFFCURVE",
"318 -15 CURVE SMOOTH"
);
},
{
closed = 1;
nodes = (
"548 742 LINE",
"554 772 LINE",
"623 783 OFFCURVE",
"661 820 OFFCURVE",
"672 868 CURVE SMOOTH",
"685 933 OFFCURVE",
"640 978 OFFCURVE",
"527 978 CURVE SMOOTH",
"475 978 OFFCURVE",
"426 970 OFFCURVE",
"393 960 CURVE",
"375 876 LINE",
"388 881 OFFCURVE",
"416 886 OFFCURVE",
"439 886 CURVE SMOOTH",
"486 886 OFFCURVE",
"498 871 OFFCURVE",
"494 853 CURVE SMOOTH",
"488 825 OFFCURVE",
"452 814 OFFCURVE",
"397 814 CURVE",
"382 742 LINE"
);
}
);
width = 902;
}
);
leftKerningGroup = U;
note = Uhornhookabove;
rightKerningGroup = U;
unicode = 1EEC;
},
{
glyphname = Uhorntilde;
lastChange = "2015-10-29 01:07:25 +0000";
layers = (
{
layerId = "3EB4D4D8-7151-4DFB-AE23-ECE37F7A1310";
name = Bold;
paths = (
{
closed = 1;
nodes = (
"567 -15 OFFCURVE",
"672 113 OFFCURVE",
"713 304 CURVE SMOOTH",
"756 506 LINE",
"910 511 OFFCURVE",
"989 594 OFFCURVE",
"1011 702 CURVE SMOOTH",
"1020 747 LINE",
"872 747 LINE",
"865 713 LINE SMOOTH",
"854 660 OFFCURVE",
"836 636 OFFCURVE",
"783 632 CURVE",
"797 699 LINE",
"590 699 LINE",
"507 306 LINE SMOOTH",
"489 220 OFFCURVE",
"457 176 OFFCURVE",
"354 176 CURVE SMOOTH",
"272 176 OFFCURVE",
"247 209 OFFCURVE",
"267 306 CURVE SMOOTH",
"350 699 LINE",
"143 699 LINE",
"59 304 LINE SMOOTH",
"18 110 OFFCURVE",
"123 -15 OFFCURVE",
"318 -15 CURVE SMOOTH"
);
},
{
closed = 1;
nodes = (
"317 778 OFFCURVE",
"355 792 OFFCURVE",
"395 792 CURVE SMOOTH",
"459 792 OFFCURVE",
"513 742 OFFCURVE",
"586 742 CURVE SMOOTH",
"631 742 OFFCURVE",
"670 753 OFFCURVE",
"701 783 CURVE",
"730 923 LINE",
"693 888 OFFCURVE",
"655 874 OFFCURVE",
"614 874 CURVE SMOOTH",
"549 874 OFFCURVE",
"492 924 OFFCURVE",
"424 924 CURVE SMOOTH",
"380 924 OFFCURVE",
"339 912 OFFCURVE",
"308 883 CURVE",
"278 742 LINE"
);
}
);
width = 902;
}
);
leftKerningGroup = U;
note = Uhorntilde;
rightKerningGroup = U;
unicode = 1EEE;
},
{
glyphname = Uhungarumlaut;
lastChange = "2015-10-29 01:07:25 +0000";
layers = (
{
layerId = "3EB4D4D8-7151-4DFB-AE23-ECE37F7A1310";
name = Bold;
paths = (
{
closed = 1;
nodes = (
"567 -15 OFFCURVE",
"672 113 OFFCURVE",
"713 304 CURVE SMOOTH",
"797 699 LINE",
"590 699 LINE",
"507 306 LINE SMOOTH",
"488 220 OFFCURVE",
"457 176 OFFCURVE",
"354 176 CURVE SMOOTH",
"272 176 OFFCURVE",
"247 209 OFFCURVE",
"267 306 CURVE SMOOTH",
"350 699 LINE",
"143 699 LINE",
"59 304 LINE SMOOTH",
"18 110 OFFCURVE",
"123 -15 OFFCURVE",
"318 -15 CURVE SMOOTH"
);
},
{
closed = 1;
nodes = (
"414 741 LINE",
"545 920 LINE",
"352 920 LINE",
"246 741 LINE"
);
},
{
closed = 1;
nodes = (
"680 741 LINE",
"810 920 LINE",
"617 920 LINE",
"511 741 LINE"
);
}
);
width = 724;
}
);
leftKerningGroup = U;
note = Uhungarumlaut;
rightKerningGroup = U;
unicode = 0170;
},
{
glyphname = Umacron;
lastChange = "2015-10-29 01:07:25 +0000";
layers = (
{
layerId = "3EB4D4D8-7151-4DFB-AE23-ECE37F7A1310";
name = Bold;
paths = (
{
closed = 1;
nodes = (
"567 -15 OFFCURVE",
"672 113 OFFCURVE",
"713 304 CURVE SMOOTH",
"797 699 LINE",
"590 699 LINE",
"507 306 LINE SMOOTH",
"488 220 OFFCURVE",
"457 176 OFFCURVE",
"354 176 CURVE SMOOTH",
"272 176 OFFCURVE",
"247 209 OFFCURVE",
"267 306 CURVE SMOOTH",
"350 699 LINE",
"143 699 LINE",
"59 304 LINE SMOOTH",
"18 110 OFFCURVE",
"123 -15 OFFCURVE",
"318 -15 CURVE SMOOTH"
);
},
{
closed = 1;
nodes = (
"646 757 LINE",
"671 875 LINE",
"316 875 LINE",
"291 757 LINE"
);
}
);
width = 724;
}
);
leftKerningGroup = U;
note = Umacron;
rightKerningGroup = U;
unicode = 016A;
},
{
glyphname = Uogonek;
lastChange = "2015-10-29 01:07:26 +0000";
layers = (
{
layerId = "3EB4D4D8-7151-4DFB-AE23-ECE37F7A1310";
name = Bold;
paths = (
{
closed = 1;
nodes = (
"567 -15 OFFCURVE",
"672 113 OFFCURVE",
"713 304 CURVE SMOOTH",
"797 699 LINE",
"590 699 LINE",
"507 306 LINE SMOOTH",
"488 220 OFFCURVE",
"457 176 OFFCURVE",
"354 176 CURVE SMOOTH",
"272 176 OFFCURVE",
"247 209 OFFCURVE",
"267 306 CURVE SMOOTH",
"350 699 LINE",
"143 699 LINE",
"59 304 LINE SMOOTH",
"18 110 OFFCURVE",
"123 -15 OFFCURVE",
"318 -15 CURVE SMOOTH"
);
},
{
closed = 1;
nodes = (
"311 -218 OFFCURVE",
"357 -211 OFFCURVE",
"388 -202 CURVE",
"411 -94 LINE",
"393 -102 OFFCURVE",
"375 -106 OFFCURVE",
"359 -106 CURVE SMOOTH",
"340 -106 OFFCURVE",
"327 -95 OFFCURVE",
"331 -78 CURVE SMOOTH",
"337 -50 OFFCURVE",
"370 -28 OFFCURVE",
"431 0 CURVE",
"249 0 LINE",
"202 -25 OFFCURVE",
"166 -65 OFFCURVE",
"154 -118 CURVE SMOOTH",
"140 -188 OFFCURVE",
"192 -218 OFFCURVE",
"269 -218 CURVE SMOOTH"
);
}
);
width = 724;
}
);
leftKerningGroup = U;
note = Uogonek;
rightKerningGroup = U;
unicode = 0172;
},
{
glyphname = Uring;
lastChange = "2015-10-29 01:07:25 +0000";
layers = (
{
layerId = "3EB4D4D8-7151-4DFB-AE23-ECE37F7A1310";
name = Bold;
paths = (
{
closed = 1;
nodes = (
"567 -15 OFFCURVE",
"672 113 OFFCURVE",
"713 304 CURVE SMOOTH",
"797 699 LINE",
"590 699 LINE",
"507 306 LINE SMOOTH",
"488 220 OFFCURVE",
"457 176 OFFCURVE",
"354 176 CURVE SMOOTH",
"272 176 OFFCURVE",
"247 209 OFFCURVE",
"267 306 CURVE SMOOTH",
"350 699 LINE",
"143 699 LINE",
"59 304 LINE SMOOTH",
"18 110 OFFCURVE",
"123 -15 OFFCURVE",
"318 -15 CURVE SMOOTH"
);
},
{
closed = 1;
nodes = (
"554 741 OFFCURVE",
"627 805 OFFCURVE",
"644 887 CURVE SMOOTH",
"662 970 OFFCURVE",
"608 1034 OFFCURVE",
"525 1034 CURVE SMOOTH",
"433 1034 OFFCURVE",
"363 970 OFFCURVE",
"345 887 CURVE SMOOTH",
"329 805 OFFCURVE",
"381 741 OFFCURVE",
"463 741 CURVE SMOOTH"
);
},
{
closed = 1;
nodes = (
"449 836 OFFCURVE",
"437 859 OFFCURVE",
"443 887 CURVE SMOOTH",
"450 917 OFFCURVE",
"477 939 OFFCURVE",
"505 939 CURVE SMOOTH",
"542 939 OFFCURVE",
"553 917 OFFCURVE",
"546 887 CURVE SMOOTH",
"540 859 OFFCURVE",
"513 836 OFFCURVE",
"483 836 CURVE SMOOTH"
);
}
);
width = 724;
}
);
leftKerningGroup = U;
note = Uring;
rightKerningGroup = U;
unicode = 016E;
},
{
glyphname = Utilde;
lastChange = "2015-10-29 01:07:25 +0000";
layers = (
{
layerId = "3EB4D4D8-7151-4DFB-AE23-ECE37F7A1310";
name = Bold;
paths = (
{
closed = 1;
nodes = (
"567 -15 OFFCURVE",
"672 113 OFFCURVE",
"713 304 CURVE SMOOTH",
"797 699 LINE",
"590 699 LINE",
"507 306 LINE SMOOTH",
"488 220 OFFCURVE",
"457 176 OFFCURVE",
"354 176 CURVE SMOOTH",
"272 176 OFFCURVE",
"247 209 OFFCURVE",
"267 306 CURVE SMOOTH",
"350 699 LINE",
"143 699 LINE",
"59 304 LINE SMOOTH",
"18 110 OFFCURVE",
"123 -15 OFFCURVE",
"318 -15 CURVE SMOOTH"
);
},
{
closed = 1;
nodes = (
"299 778 OFFCURVE",
"337 792 OFFCURVE",
"377 792 CURVE SMOOTH",
"441 792 OFFCURVE",
"495 742 OFFCURVE",
"568 742 CURVE SMOOTH",
"613 742 OFFCURVE",
"652 753 OFFCURVE",
"683 783 CURVE",
"712 923 LINE",
"675 888 OFFCURVE",
"637 874 OFFCURVE",
"596 874 CURVE SMOOTH",
"531 874 OFFCURVE",
"474 924 OFFCURVE",
"406 924 CURVE SMOOTH",
"362 924 OFFCURVE",
"321 912 OFFCURVE",
"290 883 CURVE",
"260 742 LINE"
);
}
);
width = 724;
}
);
leftKerningGroup = U;
note = Utilde;
rightKerningGroup = U;
unicode = 0168;
},
{
glyphname = V;
lastChange = "2015-10-29 01:07:26 +0000";
layers = (
{
layerId = "3EB4D4D8-7151-4DFB-AE23-ECE37F7A1310";
name = Bold;
paths = (
{
closed = 1;
nodes = (
"459 0 LINE",
"886 699 LINE",
"656 699 LINE",
"408 278 LINE",
"339 699 LINE",
"128 699 LINE",
"260 0 LINE"
);
}
);
width = 798;
}
);
note = V;
unicode = 0056;
},
{
glyphname = W;
lastChange = "2015-10-29 01:07:26 +0000";
layers = (
{
layerId = "3EB4D4D8-7151-4DFB-AE23-ECE37F7A1310";
name = Bold;
paths = (
{
closed = 1;
nodes = (
"370 0 LINE",
"543 371 LINE",
"560 0 LINE",
"744 0 LINE",
"1078 699 LINE",
"863 699 LINE",
"689 332 LINE",
"682 699 LINE",
"532 699 LINE",
"361 333 LINE",
"342 699 LINE",
"128 699 LINE",
"166 0 LINE"
);
}
);
width = 990;
}
);
leftKerningGroup = W;
note = W;
rightKerningGroup = W;
unicode = 0057;
},
{
glyphname = Wacute;
lastChange = "2015-10-29 01:07:24 +0000";
layers = (
{
layerId = "3EB4D4D8-7151-4DFB-AE23-ECE37F7A1310";
name = Bold;
paths = (
{
closed = 1;
nodes = (
"370 0 LINE",
"543 371 LINE",
"560 0 LINE",
"744 0 LINE",
"1078 699 LINE",
"863 699 LINE",
"689 332 LINE",
"682 699 LINE",
"532 699 LINE",
"361 333 LINE",
"342 699 LINE",
"128 699 LINE",
"166 0 LINE"
);
},
{
closed = 1;
nodes = (
"689 737 LINE",
"820 917 LINE",
"619 917 LINE",
"512 737 LINE"
);
}
);
width = 990;
}
);
leftKerningGroup = W;
note = Wacute;
rightKerningGroup = W;
unicode = 1E82;
},
{
glyphname = Wcircumflex;
lastChange = "2015-10-29 01:07:25 +0000";
layers = (
{
layerId = "3EB4D4D8-7151-4DFB-AE23-ECE37F7A1310";
name = Bold;
paths = (
{
closed = 1;
nodes = (
"370 0 LINE",
"543 371 LINE",
"560 0 LINE",
"744 0 LINE",
"1078 699 LINE",
"863 699 LINE",
"689 332 LINE",
"682 699 LINE",
"532 699 LINE",
"361 333 LINE",
"342 699 LINE",
"128 699 LINE",
"166 0 LINE"
);
},
{
closed = 1;
nodes = (
"546 748 LINE",
"619 819 LINE",
"662 748 LINE",
"829 748 LINE",
"718 920 LINE",
"553 920 LINE",
"369 748 LINE"
);
}
);
width = 990;
}
);
leftKerningGroup = W;
note = Wcircumflex;
rightKerningGroup = W;
unicode = 0174;
},
{
glyphname = Wdieresis;
lastChange = "2015-10-29 01:07:25 +0000";
layers = (
{
layerId = "3EB4D4D8-7151-4DFB-AE23-ECE37F7A1310";
name = Bold;
paths = (
{
closed = 1;
nodes = (
"370 0 LINE",
"543 371 LINE",
"560 0 LINE",
"744 0 LINE",
"1078 699 LINE",
"863 699 LINE",
"689 332 LINE",
"682 699 LINE",
"532 699 LINE",
"361 333 LINE",
"342 699 LINE",
"128 699 LINE",
"166 0 LINE"
);
},
{
closed = 1;
nodes = (
"526 742 OFFCURVE",
"570 777 OFFCURVE",
"580 823 CURVE SMOOTH",
"590 869 OFFCURVE",
"561 906 OFFCURVE",
"516 906 CURVE SMOOTH",
"473 906 OFFCURVE",
"426 869 OFFCURVE",
"416 823 CURVE SMOOTH",
"406 777 OFFCURVE",
"438 742 OFFCURVE",
"481 742 CURVE SMOOTH"
);
},
{
closed = 1;
nodes = (
"761 742 OFFCURVE",
"805 777 OFFCURVE",
"815 823 CURVE SMOOTH",
"825 869 OFFCURVE",
"796 906 OFFCURVE",
"752 906 CURVE SMOOTH",
"707 906 OFFCURVE",
"661 869 OFFCURVE",
"651 823 CURVE SMOOTH",
"641 777 OFFCURVE",
"672 742 OFFCURVE",
"717 742 CURVE SMOOTH"
);
}
);
width = 990;
}
);
leftKerningGroup = W;
note = Wdieresis;
rightKerningGroup = W;
unicode = 1E84;
},
{
glyphname = Wgrave;
lastChange = "2015-10-29 01:07:26 +0000";
layers = (
{
layerId = "3EB4D4D8-7151-4DFB-AE23-ECE37F7A1310";
name = Bold;
paths = (
{
closed = 1;
nodes = (
"370 0 LINE",
"543 371 LINE",
"560 0 LINE",
"744 0 LINE",
"1078 699 LINE",
"863 699 LINE",
"689 332 LINE",
"682 699 LINE",
"532 699 LINE",
"361 333 LINE",
"342 699 LINE",
"128 699 LINE",
"166 0 LINE"
);
},
{
closed = 1;
nodes = (
"687 737 LINE",
"656 917 LINE",
"455 917 LINE",
"510 737 LINE"
);
}
);
width = 990;
}
);
leftKerningGroup = W;
note = Wgrave;
rightKerningGroup = W;
unicode = 1E80;
},
{
glyphname = X;
lastChange = "2015-10-29 01:07:24 +0000";
layers = (
{
layerId = "3EB4D4D8-7151-4DFB-AE23-ECE37F7A1310";
name = Bold;
paths = (
{
closed = 1;
nodes = (
"217 0 LINE",
"390 186 LINE",
"485 0 LINE",
"722 0 LINE",
"544 351 LINE",
"868 699 LINE",
"631 699 LINE",
"460 516 LINE",
"368 699 LINE",
"131 699 LINE",
"307 351 LINE",
"-20 0 LINE"
);
}
);
width = 782;
}
);
note = X;
unicode = 0058;
},
{
glyphname = Y;
lastChange = "2015-10-29 01:07:26 +0000";
layers = (
{
layerId = "3EB4D4D8-7151-4DFB-AE23-ECE37F7A1310";
name = Bold;
paths = (
{
closed = 1;
nodes = (
"442 0 LINE",
"498 266 LINE",
"854 699 LINE",
"626 699 LINE",
"428 458 LINE",
"341 699 LINE",
"128 699 LINE",
"291 266 LINE",
"235 0 LINE"
);
}
);
width = 766;
}
);
leftKerningGroup = Y;
note = Y;
rightKerningGroup = Y;
unicode = 0059;
},
{
glyphname = Yacute;
lastChange = "2015-10-29 01:07:25 +0000";
layers = (
{
layerId = "3EB4D4D8-7151-4DFB-AE23-ECE37F7A1310";
name = Bold;
paths = (
{
closed = 1;
nodes = (
"442 0 LINE",
"498 266 LINE",
"854 699 LINE",
"626 699 LINE",
"428 458 LINE",
"341 699 LINE",
"128 699 LINE",
"291 266 LINE",
"235 0 LINE"
);
},
{
closed = 1;
nodes = (
"567 743 LINE",
"698 923 LINE",
"497 923 LINE",
"390 743 LINE"
);
}
);
width = 766;
}
);
leftKerningGroup = Y;
note = Yacute;
rightKerningGroup = Y;
unicode = 00DD;
},
{
glyphname = Ycircumflex;
lastChange = "2015-10-29 01:07:25 +0000";
layers = (
{
layerId = "3EB4D4D8-7151-4DFB-AE23-ECE37F7A1310";
name = Bold;
paths = (
{
closed = 1;
nodes = (
"442 0 LINE",
"498 266 LINE",
"854 699 LINE",
"626 699 LINE",
"428 458 LINE",
"341 699 LINE",
"128 699 LINE",
"291 266 LINE",
"235 0 LINE"
);
},
{
closed = 1;
nodes = (
"430 748 LINE",
"503 819 LINE",
"546 748 LINE",
"713 748 LINE",
"602 920 LINE",
"437 920 LINE",
"253 748 LINE"
);
}
);
width = 766;
}
);
leftKerningGroup = Y;
note = Ycircumflex;
rightKerningGroup = Y;
unicode = 0176;
},
{
glyphname = Ydieresis;
lastChange = "2015-10-29 01:07:25 +0000";
layers = (
{
layerId = "3EB4D4D8-7151-4DFB-AE23-ECE37F7A1310";
name = Bold;
paths = (
{
closed = 1;
nodes = (
"442 0 LINE",
"498 266 LINE",
"854 699 LINE",
"626 699 LINE",
"428 458 LINE",
"341 699 LINE",
"128 699 LINE",
"291 266 LINE",
"235 0 LINE"
);
},
{
closed = 1;
nodes = (
"405 747 OFFCURVE",
"449 782 OFFCURVE",
"459 828 CURVE SMOOTH",
"469 874 OFFCURVE",
"440 911 OFFCURVE",
"395 911 CURVE SMOOTH",
"352 911 OFFCURVE",
"305 874 OFFCURVE",
"295 828 CURVE SMOOTH",
"285 782 OFFCURVE",
"317 747 OFFCURVE",
"360 747 CURVE SMOOTH"
);
},
{
closed = 1;
nodes = (
"640 747 OFFCURVE",
"684 782 OFFCURVE",
"694 828 CURVE SMOOTH",
"704 874 OFFCURVE",
"675 911 OFFCURVE",
"631 911 CURVE SMOOTH",
"586 911 OFFCURVE",
"540 874 OFFCURVE",
"530 828 CURVE SMOOTH",
"520 782 OFFCURVE",
"551 747 OFFCURVE",
"596 747 CURVE SMOOTH"
);
}
);
width = 766;
}
);
leftKerningGroup = Y;
note = Ydieresis;
rightKerningGroup = Y;
unicode = 0178;
},
{
glyphname = Ydotaccent;
lastChange = "2015-10-29 01:07:27 +0000";
layers = (
{
layerId = "3EB4D4D8-7151-4DFB-AE23-ECE37F7A1310";
name = Bold;
paths = (
{
closed = 1;
nodes = (
"442 0 LINE",
"498 266 LINE",
"854 699 LINE",
"626 699 LINE",
"428 458 LINE",
"341 699 LINE",
"128 699 LINE",
"291 266 LINE",
"235 0 LINE"
);
},
{
closed = 1;
nodes = (
"523 742 OFFCURVE",
"566 777 OFFCURVE",
"576 823 CURVE SMOOTH",
"586 869 OFFCURVE",
"558 906 OFFCURVE",
"513 906 CURVE SMOOTH",
"468 906 OFFCURVE",
"422 869 OFFCURVE",
"412 823 CURVE SMOOTH",
"402 777 OFFCURVE",
"433 742 OFFCURVE",
"478 742 CURVE SMOOTH"
);
}
);
width = 766;
}
);
leftKerningGroup = Y;
note = Ydotaccent;
rightKerningGroup = Y;
unicode = 1E8E;
},
{
glyphname = Ydotbelow;
lastChange = "2015-10-29 01:07:26 +0000";
layers = (
{
layerId = "3EB4D4D8-7151-4DFB-AE23-ECE37F7A1310";
name = Bold;
paths = (
{
closed = 1;
nodes = (
"442 0 LINE",
"498 266 LINE",
"854 699 LINE",
"626 699 LINE",
"428 458 LINE",
"341 699 LINE",
"128 699 LINE",
"291 266 LINE",
"235 0 LINE"
);
},
{
closed = 1;
nodes = (
"346 -210 OFFCURVE",
"390 -174 OFFCURVE",
"399 -128 CURVE SMOOTH",
"409 -82 OFFCURVE",
"381 -46 OFFCURVE",
"337 -46 CURVE SMOOTH",
"292 -46 OFFCURVE",
"246 -82 OFFCURVE",
"236 -128 CURVE SMOOTH",
"227 -174 OFFCURVE",
"257 -210 OFFCURVE",
"302 -210 CURVE SMOOTH"
);
}
);
width = 766;
}
);
leftKerningGroup = Y;
note = Ydotbelow;
rightKerningGroup = Y;
unicode = 1EF4;
},
{
glyphname = Ygrave;
lastChange = "2015-10-29 01:07:27 +0000";
layers = (
{
layerId = "3EB4D4D8-7151-4DFB-AE23-ECE37F7A1310";
name = Bold;
paths = (
{
closed = 1;
nodes = (
"442 0 LINE",
"498 266 LINE",
"854 699 LINE",
"626 699 LINE",
"428 458 LINE",
"341 699 LINE",
"128 699 LINE",
"291 266 LINE",
"235 0 LINE"
);
},
{
closed = 1;
nodes = (
"571 737 LINE",
"540 917 LINE",
"339 917 LINE",
"394 737 LINE"
);
}
);
width = 766;
}
);
leftKerningGroup = Y;
note = Ygrave;
rightKerningGroup = Y;
unicode = 1EF2;
},
{
glyphname = Yhookabove;
lastChange = "2015-10-29 01:07:26 +0000";
layers = (
{
layerId = "3EB4D4D8-7151-4DFB-AE23-ECE37F7A1310";
name = Bold;
paths = (
{
closed = 1;
nodes = (
"442 0 LINE",
"498 266 LINE",
"854 699 LINE",
"626 699 LINE",
"428 458 LINE",
"341 699 LINE",
"128 699 LINE",
"291 266 LINE",
"235 0 LINE"
);
},
{
closed = 1;
nodes = (
"559 742 LINE",
"565 772 LINE",
"634 783 OFFCURVE",
"672 820 OFFCURVE",
"683 868 CURVE SMOOTH",
"696 933 OFFCURVE",
"651 978 OFFCURVE",
"538 978 CURVE SMOOTH",
"486 978 OFFCURVE",
"437 970 OFFCURVE",
"404 960 CURVE",
"386 876 LINE",
"399 881 OFFCURVE",
"427 886 OFFCURVE",
"450 886 CURVE SMOOTH",
"497 886 OFFCURVE",
"509 871 OFFCURVE",
"505 853 CURVE SMOOTH",
"499 825 OFFCURVE",
"463 814 OFFCURVE",
"408 814 CURVE",
"393 742 LINE"
);
}
);
width = 766;
}
);
leftKerningGroup = Y;
note = Yhookabove;
rightKerningGroup = Y;
unicode = 1EF6;
},
{
glyphname = Ytilde;
lastChange = "2015-10-29 01:07:25 +0000";
layers = (
{
layerId = "3EB4D4D8-7151-4DFB-AE23-ECE37F7A1310";
name = Bold;
paths = (
{
closed = 1;
nodes = (
"442 0 LINE",
"498 266 LINE",
"854 699 LINE",
"626 699 LINE",
"428 458 LINE",
"341 699 LINE",
"128 699 LINE",
"291 266 LINE",
"235 0 LINE"
);
},
{
closed = 1;
nodes = (
"309 778 OFFCURVE",
"347 792 OFFCURVE",
"387 792 CURVE SMOOTH",
"451 792 OFFCURVE",
"505 742 OFFCURVE",
"578 742 CURVE SMOOTH",
"623 742 OFFCURVE",
"662 753 OFFCURVE",
"693 783 CURVE",
"722 923 LINE",
"685 888 OFFCURVE",
"647 874 OFFCURVE",
"606 874 CURVE SMOOTH",
"541 874 OFFCURVE",
"484 924 OFFCURVE",
"416 924 CURVE SMOOTH",
"372 924 OFFCURVE",
"331 912 OFFCURVE",
"300 883 CURVE",
"270 742 LINE"
);
}
);
width = 766;
}
);
leftKerningGroup = Y;
note = Ytilde;
rightKerningGroup = Y;
unicode = 1EF8;
},
{
glyphname = Z;
lastChange = "2015-10-29 01:07:26 +0000";
layers = (
{
layerId = "3EB4D4D8-7151-4DFB-AE23-ECE37F7A1310";
name = Bold;
paths = (
{
closed = 1;
nodes = (
"551 0 LINE",
"587 174 LINE",
"273 174 LINE",
"647 562 LINE",
"676 699 LINE",
"135 699 LINE",
"98 525 LINE",
"383 525 LINE",
"8 136 LINE",
"-20 0 LINE"
);
}
);
width = 611;
}
);
leftKerningGroup = Z;
note = Z;
rightKerningGroup = Z;
unicode = 005A;
},
{
glyphname = Zacute;
lastChange = "2015-10-29 01:07:26 +0000";
layers = (
{
layerId = "3EB4D4D8-7151-4DFB-AE23-ECE37F7A1310";
name = Bold;
paths = (
{
closed = 1;
nodes = (
"551 0 LINE",
"587 174 LINE",
"273 174 LINE",
"647 562 LINE",
"676 699 LINE",
"135 699 LINE",
"98 525 LINE",
"383 525 LINE",
"8 136 LINE",
"-20 0 LINE"
);
},
{
closed = 1;
nodes = (
"468 737 LINE",
"599 917 LINE",
"398 917 LINE",
"291 737 LINE"
);
}
);
width = 611;
}
);
leftKerningGroup = Z;
note = Zacute;
rightKerningGroup = Z;
unicode = 0179;
},
{
glyphname = Zcaron;
lastChange = "2015-10-29 01:07:25 +0000";
layers = (
{
layerId = "3EB4D4D8-7151-4DFB-AE23-ECE37F7A1310";
name = Bold;
paths = (
{
closed = 1;
nodes = (
"551 0 LINE",
"587 174 LINE",
"273 174 LINE",
"647 562 LINE",
"676 699 LINE",
"135 699 LINE",
"98 525 LINE",
"383 525 LINE",
"8 136 LINE",
"-20 0 LINE"
);
},
{
closed = 1;
nodes = (
"485 748 LINE",
"670 920 LINE",
"493 920 LINE",
"420 849 LINE",
"377 920 LINE",
"210 920 LINE",
"320 748 LINE"
);
}
);
width = 611;
}
);
leftKerningGroup = Z;
note = Zcaron;
rightKerningGroup = Z;
unicode = 017D;
},
{
glyphname = Zdotaccent;
lastChange = "2015-10-29 01:07:26 +0000";
layers = (
{
layerId = "3EB4D4D8-7151-4DFB-AE23-ECE37F7A1310";
name = Bold;
paths = (
{
closed = 1;
nodes = (
"551 0 LINE",
"587 174 LINE",
"273 174 LINE",
"647 562 LINE",
"676 699 LINE",
"135 699 LINE",
"98 525 LINE",
"383 525 LINE",
"8 136 LINE",
"-20 0 LINE"
);
},
{
closed = 1;
nodes = (
"445 742 OFFCURVE",
"488 777 OFFCURVE",
"498 823 CURVE SMOOTH",
"508 869 OFFCURVE",
"480 906 OFFCURVE",
"435 906 CURVE SMOOTH",
"390 906 OFFCURVE",
"344 869 OFFCURVE",
"334 823 CURVE SMOOTH",
"324 777 OFFCURVE",
"355 742 OFFCURVE",
"400 742 CURVE SMOOTH"
);
}
);
width = 611;
}
);
leftKerningGroup = Z;
note = Zdotaccent;
rightKerningGroup = Z;
unicode = 017B;
},
{
glyphname = Zdotbelow;
lastChange = "2015-10-29 01:07:25 +0000";
layers = (
{
layerId = "3EB4D4D8-7151-4DFB-AE23-ECE37F7A1310";
name = Bold;
paths = (
{
closed = 1;
nodes = (
"551 0 LINE",
"587 174 LINE",
"273 174 LINE",
"647 562 LINE",
"676 699 LINE",
"135 699 LINE",
"98 525 LINE",
"383 525 LINE",
"8 136 LINE",
"-20 0 LINE"
);
},
{
closed = 1;
nodes = (
"257 -210 OFFCURVE",
"301 -174 OFFCURVE",
"310 -128 CURVE SMOOTH",
"320 -82 OFFCURVE",
"292 -46 OFFCURVE",
"248 -46 CURVE SMOOTH",
"203 -46 OFFCURVE",
"157 -82 OFFCURVE",
"147 -128 CURVE SMOOTH",
"138 -174 OFFCURVE",
"168 -210 OFFCURVE",
"213 -210 CURVE SMOOTH"
);
}
);
width = 611;
}
);
leftKerningGroup = Z;
note = Zdotbelow;
rightKerningGroup = Z;
unicode = 1E92;
},
{
glyphname = a;
lastChange = "2015-10-29 01:07:26 +0000";
layers = (
{
layerId = "3EB4D4D8-7151-4DFB-AE23-ECE37F7A1310";
name = Bold;
paths = (
{
closed = 1;
nodes = (
"295 -15 OFFCURVE",
"357 6 OFFCURVE",
"405 44 CURVE",
"396 0 LINE",
"589 0 LINE",
"691 480 LINE",
"491 480 LINE",
"483 445 LINE",
"454 475 OFFCURVE",
"403 495 OFFCURVE",
"340 495 CURVE SMOOTH",
"175 495 OFFCURVE",
"63 391 OFFCURVE",
"30 239 CURVE SMOOTH",
"-2 85 OFFCURVE",
"86 -15 OFFCURVE",
"231 -15 CURVE SMOOTH"
);
},
{
closed = 1;
nodes = (
"246 140 OFFCURVE",
"224 175 OFFCURVE",
"237 239 CURVE SMOOTH",
"251 303 OFFCURVE",
"300 339 OFFCURVE",
"361 339 CURVE SMOOTH",
"406 339 OFFCURVE",
"439 316 OFFCURVE",
"448 279 CURVE",
"431 200 LINE",
"406 163 OFFCURVE",
"363 140 OFFCURVE",
"318 140 CURVE SMOOTH"
);
}
);
width = 669;
}
);
leftKerningGroup = a;
note = a;
rightKerningGroup = a;
unicode = 0061;
},
{
glyphname = aacute;
lastChange = "2015-10-29 01:07:26 +0000";
layers = (
{
layerId = "3EB4D4D8-7151-4DFB-AE23-ECE37F7A1310";
name = Bold;
paths = (
{
closed = 1;
nodes = (
"295 -15 OFFCURVE",
"357 6 OFFCURVE",
"405 44 CURVE",
"396 0 LINE",
"589 0 LINE",
"691 480 LINE",
"491 480 LINE",
"483 445 LINE",
"454 475 OFFCURVE",
"403 495 OFFCURVE",
"340 495 CURVE SMOOTH",
"175 495 OFFCURVE",
"63 391 OFFCURVE",
"30 239 CURVE SMOOTH",
"-2 85 OFFCURVE",
"86 -15 OFFCURVE",
"231 -15 CURVE SMOOTH"
);
},
{
closed = 1;
nodes = (
"246 140 OFFCURVE",
"224 175 OFFCURVE",
"237 239 CURVE SMOOTH",
"251 303 OFFCURVE",
"300 339 OFFCURVE",
"361 339 CURVE SMOOTH",
"406 339 OFFCURVE",
"439 316 OFFCURVE",
"448 279 CURVE",
"431 200 LINE",
"406 163 OFFCURVE",
"363 140 OFFCURVE",
"318 140 CURVE SMOOTH"
);
},
{
closed = 1;
nodes = (
"474 517 LINE",
"605 697 LINE",
"404 697 LINE",
"297 517 LINE"
);
}
);
width = 636;
}
);
leftKerningGroup = a;
note = aacute;
rightKerningGroup = a;
unicode = 00E1;
},
{
glyphname = abreve;
lastChange = "2015-10-29 01:07:25 +0000";
layers = (
{
layerId = "3EB4D4D8-7151-4DFB-AE23-ECE37F7A1310";
name = Bold;
paths = (
{
closed = 1;
nodes = (
"295 -15 OFFCURVE",
"357 6 OFFCURVE",
"405 44 CURVE",
"396 0 LINE",
"589 0 LINE",
"691 480 LINE",
"491 480 LINE",
"483 445 LINE",
"454 475 OFFCURVE",
"403 495 OFFCURVE",
"340 495 CURVE SMOOTH",
"175 495 OFFCURVE",
"63 391 OFFCURVE",
"30 239 CURVE SMOOTH",
"-2 85 OFFCURVE",
"86 -15 OFFCURVE",
"231 -15 CURVE SMOOTH"
);
},
{
closed = 1;
nodes = (
"246 140 OFFCURVE",
"224 175 OFFCURVE",
"237 239 CURVE SMOOTH",
"251 303 OFFCURVE",
"300 339 OFFCURVE",
"361 339 CURVE SMOOTH",
"406 339 OFFCURVE",
"439 316 OFFCURVE",
"448 279 CURVE",
"431 200 LINE",
"406 163 OFFCURVE",
"363 140 OFFCURVE",
"318 140 CURVE SMOOTH"
);
},
{
closed = 1;
nodes = (
"531 521 OFFCURVE",
"615 592 OFFCURVE",
"639 705 CURVE",
"485 705 LINE",
"477 665 OFFCURVE",
"457 645 OFFCURVE",
"428 645 CURVE SMOOTH",
"398 645 OFFCURVE",
"387 665 OFFCURVE",
"395 705 CURVE",
"252 705 LINE",
"228 592 OFFCURVE",
"282 521 OFFCURVE",
"406 521 CURVE SMOOTH"
);
}
);
width = 636;
}
);
leftKerningGroup = a;
note = abreve;
rightKerningGroup = a;
unicode = 0103;
},
{
glyphname = abreveacute;
lastChange = "2015-10-29 01:07:27 +0000";
layers = (
{
layerId = "3EB4D4D8-7151-4DFB-AE23-ECE37F7A1310";
name = Bold;
paths = (
{
closed = 1;
nodes = (
"295 -15 OFFCURVE",
"357 6 OFFCURVE",
"405 44 CURVE",
"396 0 LINE",
"589 0 LINE",
"691 480 LINE",
"491 480 LINE",
"483 445 LINE",
"454 475 OFFCURVE",
"403 495 OFFCURVE",
"340 495 CURVE SMOOTH",
"175 495 OFFCURVE",
"63 391 OFFCURVE",
"30 239 CURVE SMOOTH",
"-2 85 OFFCURVE",
"86 -15 OFFCURVE",
"231 -15 CURVE SMOOTH"
);
},
{
closed = 1;
nodes = (
"246 140 OFFCURVE",
"224 175 OFFCURVE",
"237 239 CURVE SMOOTH",
"251 303 OFFCURVE",
"300 339 OFFCURVE",
"361 339 CURVE SMOOTH",
"406 339 OFFCURVE",
"439 316 OFFCURVE",
"448 279 CURVE",
"431 200 LINE",
"406 163 OFFCURVE",
"363 140 OFFCURVE",
"318 140 CURVE SMOOTH"
);
},
{
closed = 1;
nodes = (
"526 520 OFFCURVE",
"612 579 OFFCURVE",
"632 676 CURVE",
"506 676 LINE",
"499 641 OFFCURVE",
"477 623 OFFCURVE",
"441 623 CURVE SMOOTH",
"404 623 OFFCURVE",
"390 641 OFFCURVE",
"397 676 CURVE",
"270 676 LINE",
"250 579 OFFCURVE",
"312 520 OFFCURVE",
"419 520 CURVE SMOOTH"
);
},
{
closed = 1;
nodes = (
"527 696 LINE",
"629 830 LINE",
"465 830 LINE",
"385 696 LINE"
);
}
);
width = 636;
}
);
leftKerningGroup = a;
note = abreveacute;
rightKerningGroup = a;
unicode = 1EAF;
},
{
glyphname = abrevedotbelow;
lastChange = "2015-10-29 01:07:25 +0000";
layers = (
{
layerId = "3EB4D4D8-7151-4DFB-AE23-ECE37F7A1310";
name = Bold;
paths = (
{
closed = 1;
nodes = (
"295 -15 OFFCURVE",
"357 6 OFFCURVE",
"405 44 CURVE",
"396 0 LINE",
"589 0 LINE",
"691 480 LINE",
"491 480 LINE",
"483 445 LINE",
"454 475 OFFCURVE",
"403 495 OFFCURVE",
"340 495 CURVE SMOOTH",
"175 495 OFFCURVE",
"63 391 OFFCURVE",
"30 239 CURVE SMOOTH",
"-2 85 OFFCURVE",
"86 -15 OFFCURVE",
"231 -15 CURVE SMOOTH"
);
},
{
closed = 1;
nodes = (
"308 -210 OFFCURVE",
"352 -174 OFFCURVE",
"361 -128 CURVE SMOOTH",
"371 -82 OFFCURVE",
"343 -46 OFFCURVE",
"299 -46 CURVE SMOOTH",
"254 -46 OFFCURVE",
"208 -82 OFFCURVE",
"198 -128 CURVE SMOOTH",
"189 -174 OFFCURVE",
"219 -210 OFFCURVE",
"264 -210 CURVE SMOOTH"
);
},
{
closed = 1;
nodes = (
"246 140 OFFCURVE",
"224 175 OFFCURVE",
"237 239 CURVE SMOOTH",
"251 303 OFFCURVE",
"300 339 OFFCURVE",
"361 339 CURVE SMOOTH",
"406 339 OFFCURVE",
"439 316 OFFCURVE",
"448 279 CURVE",
"431 200 LINE",
"406 163 OFFCURVE",
"363 140 OFFCURVE",
"318 140 CURVE SMOOTH"
);
},
{
closed = 1;
nodes = (
"522 521 OFFCURVE",
"606 592 OFFCURVE",
"630 705 CURVE",
"476 705 LINE",
"468 665 OFFCURVE",
"448 645 OFFCURVE",
"419 645 CURVE SMOOTH",
"389 645 OFFCURVE",
"378 665 OFFCURVE",
"386 705 CURVE",
"243 705 LINE",
"219 592 OFFCURVE",
"273 521 OFFCURVE",
"397 521 CURVE SMOOTH"
);
}
);
width = 636;
}
);
leftKerningGroup = a;
note = abrevedotbelow;
rightKerningGroup = a;
unicode = 1EB7;
},
{
glyphname = abrevegrave;
lastChange = "2015-10-29 01:07:25 +0000";
layers = (
{
layerId = "3EB4D4D8-7151-4DFB-AE23-ECE37F7A1310";
name = Bold;
paths = (
{
closed = 1;
nodes = (
"295 -15 OFFCURVE",
"357 6 OFFCURVE",
"405 44 CURVE",
"396 0 LINE",
"589 0 LINE",
"691 480 LINE",
"491 480 LINE",
"483 445 LINE",
"454 475 OFFCURVE",
"403 495 OFFCURVE",
"340 495 CURVE SMOOTH",
"175 495 OFFCURVE",
"63 391 OFFCURVE",
"30 239 CURVE SMOOTH",
"-2 85 OFFCURVE",
"86 -15 OFFCURVE",
"231 -15 CURVE SMOOTH"
);
},
{
closed = 1;
nodes = (
"246 140 OFFCURVE",
"224 175 OFFCURVE",
"237 239 CURVE SMOOTH",
"251 303 OFFCURVE",
"300 339 OFFCURVE",
"361 339 CURVE SMOOTH",
"406 339 OFFCURVE",
"439 316 OFFCURVE",
"448 279 CURVE",
"431 200 LINE",
"406 163 OFFCURVE",
"363 140 OFFCURVE",
"318 140 CURVE SMOOTH"
);
},
{
closed = 1;
nodes = (
"532 519 OFFCURVE",
"618 578 OFFCURVE",
"638 675 CURVE",
"512 675 LINE",
"505 640 OFFCURVE",
"483 622 OFFCURVE",
"447 622 CURVE SMOOTH",
"410 622 OFFCURVE",
"397 640 OFFCURVE",
"404 675 CURVE",
"276 675 LINE",
"256 578 OFFCURVE",
"318 519 OFFCURVE",
"425 519 CURVE SMOOTH"
);
},
{
closed = 1;
nodes = (
"535 695 LINE",
"511 829 LINE",
"346 829 LINE",
"392 695 LINE"
);
}
);
width = 636;
}
);
leftKerningGroup = a;
note = abrevegrave;
rightKerningGroup = a;
unicode = 1EB1;
},
{
glyphname = abrevehookabove;
lastChange = "2015-10-29 01:07:26 +0000";
layers = (
{
layerId = "3EB4D4D8-7151-4DFB-AE23-ECE37F7A1310";
name = Bold;
paths = (
{
closed = 1;
nodes = (
"295 -15 OFFCURVE",
"357 6 OFFCURVE",
"405 44 CURVE",
"396 0 LINE",
"589 0 LINE",
"691 480 LINE",
"491 480 LINE",
"483 445 LINE",
"454 475 OFFCURVE",
"403 495 OFFCURVE",
"340 495 CURVE SMOOTH",
"175 495 OFFCURVE",
"63 391 OFFCURVE",
"30 239 CURVE SMOOTH",
"-2 85 OFFCURVE",
"86 -15 OFFCURVE",
"231 -15 CURVE SMOOTH"
);
},
{
closed = 1;
nodes = (
"246 140 OFFCURVE",
"224 175 OFFCURVE",
"237 239 CURVE SMOOTH",
"251 303 OFFCURVE",
"300 339 OFFCURVE",
"361 339 CURVE SMOOTH",
"406 339 OFFCURVE",
"439 316 OFFCURVE",
"448 279 CURVE",
"431 200 LINE",
"406 163 OFFCURVE",
"363 140 OFFCURVE",
"318 140 CURVE SMOOTH"
);
},
{
closed = 1;
nodes = (
"529 519 OFFCURVE",
"615 578 OFFCURVE",
"635 675 CURVE",
"509 675 LINE",
"502 640 OFFCURVE",
"480 622 OFFCURVE",
"444 622 CURVE SMOOTH",
"407 622 OFFCURVE",
"394 640 OFFCURVE",
"401 675 CURVE",
"273 675 LINE",
"253 578 OFFCURVE",
"315 519 OFFCURVE",
"422 519 CURVE SMOOTH"
);
},
{
closed = 1;
nodes = (
"523 689 LINE",
"528 709 LINE",
"568 719 OFFCURVE",
"592 741 OFFCURVE",
"600 776 CURVE SMOOTH",
"609 821 OFFCURVE",
"579 851 OFFCURVE",
"503 851 CURVE SMOOTH",
"474 851 OFFCURVE",
"432 846 OFFCURVE",
"408 839 CURVE",
"395 775 LINE",
"402 779 OFFCURVE",
"419 781 OFFCURVE",
"430 781 CURVE SMOOTH",
"456 781 OFFCURVE",
"467 774 OFFCURVE",
"464 760 CURVE",
"461 742 OFFCURVE",
"440 736 OFFCURVE",
"410 736 CURVE",
"400 689 LINE"
);
}
);
width = 636;
}
);
leftKerningGroup = a;
note = abrevehookabove;
rightKerningGroup = a;
unicode = 1EB3;
},
{
glyphname = abrevetilde;
lastChange = "2015-10-29 01:07:24 +0000";
layers = (
{
layerId = "3EB4D4D8-7151-4DFB-AE23-ECE37F7A1310";
name = Bold;
paths = (
{
closed = 1;
nodes = (
"295 -15 OFFCURVE",
"357 6 OFFCURVE",
"405 44 CURVE",
"396 0 LINE",
"589 0 LINE",
"691 480 LINE",
"491 480 LINE",
"483 445 LINE",
"454 475 OFFCURVE",
"403 495 OFFCURVE",
"340 495 CURVE SMOOTH",
"175 495 OFFCURVE",
"63 391 OFFCURVE",
"30 239 CURVE SMOOTH",
"-2 85 OFFCURVE",
"86 -15 OFFCURVE",
"231 -15 CURVE SMOOTH"
);
},
{
closed = 1;
nodes = (
"246 140 OFFCURVE",
"224 175 OFFCURVE",
"237 239 CURVE SMOOTH",
"251 303 OFFCURVE",
"300 339 OFFCURVE",
"361 339 CURVE SMOOTH",
"406 339 OFFCURVE",
"439 316 OFFCURVE",
"448 279 CURVE",
"431 200 LINE",
"406 163 OFFCURVE",
"363 140 OFFCURVE",
"318 140 CURVE SMOOTH"
);
},
{
closed = 1;
nodes = (
"532 520 OFFCURVE",
"618 579 OFFCURVE",
"638 676 CURVE",
"512 676 LINE",
"505 641 OFFCURVE",
"483 623 OFFCURVE",
"447 623 CURVE SMOOTH",
"410 623 OFFCURVE",
"397 641 OFFCURVE",
"404 676 CURVE",
"276 676 LINE",
"256 579 OFFCURVE",
"318 520 OFFCURVE",
"425 520 CURVE SMOOTH"
);
},
{
closed = 1;
nodes = (
"579 699 OFFCURVE",
"610 708 OFFCURVE",
"635 731 CURVE",
"658 839 LINE",
"628 811 OFFCURVE",
"596 799 OFFCURVE",
"565 799 CURVE SMOOTH",
"513 799 OFFCURVE",
"465 840 OFFCURVE",
"411 840 CURVE SMOOTH",
"375 840 OFFCURVE",
"344 830 OFFCURVE",
"319 807 CURVE",
"296 700 LINE",
"326 728 OFFCURVE",
"358 740 OFFCURVE",
"390 740 CURVE SMOOTH",
"441 740 OFFCURVE",
"486 699 OFFCURVE",
"544 699 CURVE SMOOTH"
);
}
);
width = 636;
}
);
leftKerningGroup = a;
note = abrevetilde;
rightKerningGroup = a;
unicode = 1EB5;
},
{
glyphname = acaron;
lastChange = "2015-10-29 01:07:25 +0000";
layers = (
{
layerId = "3EB4D4D8-7151-4DFB-AE23-ECE37F7A1310";
name = Bold;
paths = (
{
closed = 1;
nodes = (
"295 -15 OFFCURVE",
"357 6 OFFCURVE",
"405 44 CURVE",
"396 0 LINE",
"589 0 LINE",
"691 480 LINE",
"491 480 LINE",
"483 445 LINE",
"454 475 OFFCURVE",
"403 495 OFFCURVE",
"340 495 CURVE SMOOTH",
"175 495 OFFCURVE",
"63 391 OFFCURVE",
"30 239 CURVE SMOOTH",
"-2 85 OFFCURVE",
"86 -15 OFFCURVE",
"231 -15 CURVE SMOOTH"
);
},
{
closed = 1;
nodes = (
"246 140 OFFCURVE",
"224 175 OFFCURVE",
"237 239 CURVE SMOOTH",
"251 303 OFFCURVE",
"300 339 OFFCURVE",
"361 339 CURVE SMOOTH",
"406 339 OFFCURVE",
"439 316 OFFCURVE",
"448 279 CURVE",
"431 200 LINE",
"406 163 OFFCURVE",
"363 140 OFFCURVE",
"318 140 CURVE SMOOTH"
);
},
{
closed = 1;
nodes = (
"498 528 LINE",
"683 700 LINE",
"506 700 LINE",
"433 629 LINE",
"390 700 LINE",
"223 700 LINE",
"333 528 LINE"
);
}
);
width = 650;
}
);
leftKerningGroup = a;
note = acaron;
rightKerningGroup = a;
unicode = 01CE;
},
{
glyphname = acircumflex;
lastChange = "2015-10-29 01:07:25 +0000";
layers = (
{
layerId = "3EB4D4D8-7151-4DFB-AE23-ECE37F7A1310";
name = Bold;
paths = (
{
closed = 1;
nodes = (
"295 -15 OFFCURVE",
"357 6 OFFCURVE",
"405 44 CURVE",
"396 0 LINE",
"589 0 LINE",
"691 480 LINE",
"491 480 LINE",
"483 445 LINE",
"454 475 OFFCURVE",
"403 495 OFFCURVE",
"340 495 CURVE SMOOTH",
"175 495 OFFCURVE",
"63 391 OFFCURVE",
"30 239 CURVE SMOOTH",
"-2 85 OFFCURVE",
"86 -15 OFFCURVE",
"231 -15 CURVE SMOOTH"
);
},
{
closed = 1;
nodes = (
"246 140 OFFCURVE",
"224 175 OFFCURVE",
"237 239 CURVE SMOOTH",
"251 303 OFFCURVE",
"300 339 OFFCURVE",
"361 339 CURVE SMOOTH",
"406 339 OFFCURVE",
"439 316 OFFCURVE",
"448 279 CURVE",
"431 200 LINE",
"406 163 OFFCURVE",
"363 140 OFFCURVE",
"318 140 CURVE SMOOTH"
);
},
{
closed = 1;
nodes = (
"349 528 LINE",
"422 599 LINE",
"465 528 LINE",
"632 528 LINE",
"521 700 LINE",
"356 700 LINE",
"172 528 LINE"
);
}
);
width = 636;
}
);
leftKerningGroup = a;
note = acircumflex;
rightKerningGroup = a;
unicode = 00E2;
},
{
glyphname = acircumflexacute;
lastChange = "2015-10-29 01:07:26 +0000";
layers = (
{
layerId = "3EB4D4D8-7151-4DFB-AE23-ECE37F7A1310";
name = Bold;
paths = (
{
closed = 1;
nodes = (
"295 -15 OFFCURVE",
"357 6 OFFCURVE",
"405 44 CURVE",
"396 0 LINE",
"589 0 LINE",
"691 480 LINE",
"491 480 LINE",
"483 445 LINE",
"454 475 OFFCURVE",
"403 495 OFFCURVE",
"340 495 CURVE SMOOTH",
"175 495 OFFCURVE",
"63 391 OFFCURVE",
"30 239 CURVE SMOOTH",
"-2 85 OFFCURVE",
"86 -15 OFFCURVE",
"231 -15 CURVE SMOOTH"
);
},
{
closed = 1;
nodes = (
"246 140 OFFCURVE",
"224 175 OFFCURVE",
"237 239 CURVE SMOOTH",
"251 303 OFFCURVE",
"300 339 OFFCURVE",
"361 339 CURVE SMOOTH",
"406 339 OFFCURVE",
"439 316 OFFCURVE",
"448 279 CURVE",
"431 200 LINE",
"406 163 OFFCURVE",
"363 140 OFFCURVE",
"318 140 CURVE SMOOTH"
);
},
{
closed = 1;
nodes = (
"347 521 LINE",
"423 589 LINE",
"469 521 LINE",
"632 521 LINE",
"508 680 LINE",
"375 680 LINE",
"183 521 LINE"
);
},
{
closed = 1;
nodes = (
"708 645 LINE",
"821 789 LINE",
"657 789 LINE",
"568 645 LINE"
);
}
);
width = 636;
}
);
leftKerningGroup = a;
note = acircumflexacute;
rightKerningGroup = a;
unicode = 1EA5;
},
{
glyphname = acircumflexdotbelow;
lastChange = "2015-10-29 01:07:26 +0000";
layers = (
{
layerId = "3EB4D4D8-7151-4DFB-AE23-ECE37F7A1310";
name = Bold;
paths = (
{
closed = 1;
nodes = (
"295 -15 OFFCURVE",
"357 6 OFFCURVE",
"405 44 CURVE",
"396 0 LINE",
"589 0 LINE",
"691 480 LINE",
"491 480 LINE",
"483 445 LINE",
"454 475 OFFCURVE",
"403 495 OFFCURVE",
"340 495 CURVE SMOOTH",
"175 495 OFFCURVE",
"63 391 OFFCURVE",
"30 239 CURVE SMOOTH",
"-2 85 OFFCURVE",
"86 -15 OFFCURVE",
"231 -15 CURVE SMOOTH"
);
},
{
closed = 1;
nodes = (
"302 -210 OFFCURVE",
"346 -174 OFFCURVE",
"355 -128 CURVE SMOOTH",
"365 -82 OFFCURVE",
"337 -46 OFFCURVE",
"293 -46 CURVE SMOOTH",
"248 -46 OFFCURVE",
"202 -82 OFFCURVE",
"192 -128 CURVE SMOOTH",
"183 -174 OFFCURVE",
"213 -210 OFFCURVE",
"258 -210 CURVE SMOOTH"
);
},
{
closed = 1;
nodes = (
"246 140 OFFCURVE",
"224 175 OFFCURVE",
"237 239 CURVE SMOOTH",
"251 303 OFFCURVE",
"300 339 OFFCURVE",
"361 339 CURVE SMOOTH",
"406 339 OFFCURVE",
"439 316 OFFCURVE",
"448 279 CURVE",
"431 200 LINE",
"406 163 OFFCURVE",
"363 140 OFFCURVE",
"318 140 CURVE SMOOTH"
);
},
{
closed = 1;
nodes = (
"338 528 LINE",
"411 599 LINE",
"454 528 LINE",
"621 528 LINE",
"510 700 LINE",
"345 700 LINE",
"161 528 LINE"
);
}
);
width = 636;
}
);
leftKerningGroup = a;
note = acircumflexdotbelow;
rightKerningGroup = a;
unicode = 1EAD;
},
{
glyphname = acircumflexgrave;
lastChange = "2015-10-29 01:07:25 +0000";
layers = (
{
layerId = "3EB4D4D8-7151-4DFB-AE23-ECE37F7A1310";
name = Bold;
paths = (
{
closed = 1;
nodes = (
"295 -15 OFFCURVE",
"357 6 OFFCURVE",
"405 44 CURVE",
"396 0 LINE",
"589 0 LINE",
"691 480 LINE",
"491 480 LINE",
"483 445 LINE",
"454 475 OFFCURVE",
"403 495 OFFCURVE",
"340 495 CURVE SMOOTH",
"175 495 OFFCURVE",
"63 391 OFFCURVE",
"30 239 CURVE SMOOTH",
"-2 85 OFFCURVE",
"86 -15 OFFCURVE",
"231 -15 CURVE SMOOTH"
);
},
{
closed = 1;
nodes = (
"246 140 OFFCURVE",
"224 175 OFFCURVE",
"237 239 CURVE SMOOTH",
"251 303 OFFCURVE",
"300 339 OFFCURVE",
"361 339 CURVE SMOOTH",
"406 339 OFFCURVE",
"439 316 OFFCURVE",
"448 279 CURVE",
"431 200 LINE",
"406 163 OFFCURVE",
"363 140 OFFCURVE",
"318 140 CURVE SMOOTH"
);
},
{
closed = 1;
nodes = (
"309 645 LINE",
"282 789 LINE",
"118 789 LINE",
"169 645 LINE"
);
},
{
closed = 1;
nodes = (
"357 521 LINE",
"433 589 LINE",
"479 521 LINE",
"642 521 LINE",
"518 680 LINE",
"386 680 LINE",
"193 521 LINE"
);
}
);
width = 636;
}
);
leftKerningGroup = a;
note = acircumflexgrave;
rightKerningGroup = a;
unicode = 1EA7;
},
{
glyphname = acircumflexhookabove;
lastChange = "2015-10-29 01:07:26 +0000";
layers = (
{
layerId = "3EB4D4D8-7151-4DFB-AE23-ECE37F7A1310";
name = Bold;
paths = (
{
closed = 1;
nodes = (
"295 -15 OFFCURVE",
"357 6 OFFCURVE",
"405 44 CURVE",
"396 0 LINE",
"589 0 LINE",
"691 480 LINE",
"491 480 LINE",
"483 445 LINE",
"454 475 OFFCURVE",
"403 495 OFFCURVE",
"340 495 CURVE SMOOTH",
"175 495 OFFCURVE",
"63 391 OFFCURVE",
"30 239 CURVE SMOOTH",
"-2 85 OFFCURVE",
"86 -15 OFFCURVE",
"231 -15 CURVE SMOOTH"
);
},
{
closed = 1;
nodes = (
"246 140 OFFCURVE",
"224 175 OFFCURVE",
"237 239 CURVE SMOOTH",
"251 303 OFFCURVE",
"300 339 OFFCURVE",
"361 339 CURVE SMOOTH",
"406 339 OFFCURVE",
"439 316 OFFCURVE",
"448 279 CURVE",
"431 200 LINE",
"406 163 OFFCURVE",
"363 140 OFFCURVE",
"318 140 CURVE SMOOTH"
);
},
{
closed = 1;
nodes = (
"351 521 LINE",
"427 589 LINE",
"473 521 LINE",
"636 521 LINE",
"512 680 LINE",
"379 680 LINE",
"187 521 LINE"
);
},
{
closed = 1;
nodes = (
"687 634 LINE",
"692 659 LINE",
"732 670 OFFCURVE",
"759 692 OFFCURVE",
"766 725 CURVE SMOOTH",
"776 770 OFFCURVE",
"743 800 OFFCURVE",
"668 800 CURVE SMOOTH",
"639 800 OFFCURVE",
"597 794 OFFCURVE",
"573 788 CURVE",
"559 724 LINE",
"569 728 OFFCURVE",
"585 730 OFFCURVE",
"596 730 CURVE SMOOTH",
"622 730 OFFCURVE",
"633 723 OFFCURVE",
"630 709 CURVE SMOOTH",
"626 691 OFFCURVE",
"606 685 OFFCURVE",
"576 685 CURVE",
"565 634 LINE"
);
}
);
width = 636;
}
);
leftKerningGroup = a;
note = acircumflexhookabove;
rightKerningGroup = a;
unicode = 1EA9;
},
{
glyphname = acircumflextilde;
lastChange = "2015-10-29 01:07:26 +0000";
layers = (
{
layerId = "3EB4D4D8-7151-4DFB-AE23-ECE37F7A1310";
name = Bold;
paths = (
{
closed = 1;
nodes = (
"295 -15 OFFCURVE",
"357 6 OFFCURVE",
"405 44 CURVE",
"396 0 LINE",
"589 0 LINE",
"691 480 LINE",
"491 480 LINE",
"483 445 LINE",
"454 475 OFFCURVE",
"403 495 OFFCURVE",
"340 495 CURVE SMOOTH",
"175 495 OFFCURVE",
"63 391 OFFCURVE",
"30 239 CURVE SMOOTH",
"-2 85 OFFCURVE",
"86 -15 OFFCURVE",
"231 -15 CURVE SMOOTH"
);
},
{
closed = 1;
nodes = (
"246 140 OFFCURVE",
"224 175 OFFCURVE",
"237 239 CURVE SMOOTH",
"251 303 OFFCURVE",
"300 339 OFFCURVE",
"361 339 CURVE SMOOTH",
"406 339 OFFCURVE",
"439 316 OFFCURVE",
"448 279 CURVE",
"431 200 LINE",
"406 163 OFFCURVE",
"363 140 OFFCURVE",
"318 140 CURVE SMOOTH"
);
},
{
closed = 1;
nodes = (
"356 521 LINE",
"432 589 LINE",
"478 521 LINE",
"641 521 LINE",
"517 680 LINE",
"384 680 LINE",
"192 521 LINE"
);
},
{
closed = 1;
nodes = (
"579 691 OFFCURVE",
"610 700 OFFCURVE",
"635 723 CURVE",
"658 831 LINE",
"628 803 OFFCURVE",
"596 791 OFFCURVE",
"563 791 CURVE SMOOTH",
"513 791 OFFCURVE",
"465 832 OFFCURVE",
"411 832 CURVE SMOOTH",
"375 832 OFFCURVE",
"344 822 OFFCURVE",
"319 799 CURVE",
"296 692 LINE",
"326 720 OFFCURVE",
"358 732 OFFCURVE",
"390 732 CURVE SMOOTH",
"441 732 OFFCURVE",
"486 691 OFFCURVE",
"543 691 CURVE SMOOTH"
);
}
);
width = 636;
}
);
leftKerningGroup = a;
note = acircumflextilde;
rightKerningGroup = a;
unicode = 1EAB;
},
{
glyphname = adieresis;
lastChange = "2015-10-29 01:07:24 +0000";
layers = (
{
layerId = "3EB4D4D8-7151-4DFB-AE23-ECE37F7A1310";
name = Bold;
paths = (
{
closed = 1;
nodes = (
"295 -15 OFFCURVE",
"357 6 OFFCURVE",
"405 44 CURVE",
"396 0 LINE",
"589 0 LINE",
"691 480 LINE",
"491 480 LINE",
"483 445 LINE",
"454 475 OFFCURVE",
"403 495 OFFCURVE",
"340 495 CURVE SMOOTH",
"175 495 OFFCURVE",
"63 391 OFFCURVE",
"30 239 CURVE SMOOTH",
"-2 85 OFFCURVE",
"86 -15 OFFCURVE",
"231 -15 CURVE SMOOTH"
);
},
{
closed = 1;
nodes = (
"246 140 OFFCURVE",
"224 175 OFFCURVE",
"237 239 CURVE SMOOTH",
"251 303 OFFCURVE",
"300 339 OFFCURVE",
"361 339 CURVE SMOOTH",
"406 339 OFFCURVE",
"439 316 OFFCURVE",
"448 279 CURVE",
"431 200 LINE",
"406 163 OFFCURVE",
"363 140 OFFCURVE",
"318 140 CURVE SMOOTH"
);
},
{
closed = 1;
nodes = (
"324 519 OFFCURVE",
"368 554 OFFCURVE",
"378 600 CURVE SMOOTH",
"388 646 OFFCURVE",
"359 683 OFFCURVE",
"314 683 CURVE SMOOTH",
"271 683 OFFCURVE",
"224 646 OFFCURVE",
"214 600 CURVE SMOOTH",
"204 554 OFFCURVE",
"236 519 OFFCURVE",
"279 519 CURVE SMOOTH"
);
},
{
closed = 1;
nodes = (
"559 519 OFFCURVE",
"603 554 OFFCURVE",
"613 600 CURVE SMOOTH",
"623 646 OFFCURVE",
"594 683 OFFCURVE",
"550 683 CURVE SMOOTH",
"505 683 OFFCURVE",
"459 646 OFFCURVE",
"449 600 CURVE SMOOTH",
"439 554 OFFCURVE",
"470 519 OFFCURVE",
"515 519 CURVE SMOOTH"
);
}
);
width = 636;
}
);
leftKerningGroup = a;
note = adieresis;
rightKerningGroup = a;
unicode = 00E4;
},
{
glyphname = adotbelow;
lastChange = "2015-10-29 01:07:26 +0000";
layers = (
{
layerId = "3EB4D4D8-7151-4DFB-AE23-ECE37F7A1310";
name = Bold;
paths = (
{
closed = 1;
nodes = (
"295 -15 OFFCURVE",
"357 6 OFFCURVE",
"405 44 CURVE",
"396 0 LINE",
"589 0 LINE",
"691 480 LINE",
"491 480 LINE",
"483 445 LINE",
"454 475 OFFCURVE",
"403 495 OFFCURVE",
"340 495 CURVE SMOOTH",
"175 495 OFFCURVE",
"63 391 OFFCURVE",
"30 239 CURVE SMOOTH",
"-2 85 OFFCURVE",
"86 -15 OFFCURVE",
"231 -15 CURVE SMOOTH"
);
},
{
closed = 1;
nodes = (
"303 -210 OFFCURVE",
"347 -174 OFFCURVE",
"356 -128 CURVE SMOOTH",
"366 -82 OFFCURVE",
"338 -46 OFFCURVE",
"294 -46 CURVE SMOOTH",
"249 -46 OFFCURVE",
"203 -82 OFFCURVE",
"193 -128 CURVE SMOOTH",
"184 -174 OFFCURVE",
"214 -210 OFFCURVE",
"259 -210 CURVE SMOOTH"
);
},
{
closed = 1;
nodes = (
"246 140 OFFCURVE",
"224 175 OFFCURVE",
"237 239 CURVE SMOOTH",
"251 303 OFFCURVE",
"300 339 OFFCURVE",
"361 339 CURVE SMOOTH",
"406 339 OFFCURVE",
"439 316 OFFCURVE",
"448 279 CURVE",
"431 200 LINE",
"406 163 OFFCURVE",
"363 140 OFFCURVE",
"318 140 CURVE SMOOTH"
);
}
);
width = 636;
}
);
leftKerningGroup = a;
note = adotbelow;
rightKerningGroup = a;
unicode = 1EA1;
},
{
glyphname = agrave;
lastChange = "2015-10-29 01:07:25 +0000";
layers = (
{
layerId = "3EB4D4D8-7151-4DFB-AE23-ECE37F7A1310";
name = Bold;
paths = (
{
closed = 1;
nodes = (
"295 -15 OFFCURVE",
"357 6 OFFCURVE",
"405 44 CURVE",
"396 0 LINE",
"589 0 LINE",
"691 480 LINE",
"491 480 LINE",
"483 445 LINE",
"454 475 OFFCURVE",
"403 495 OFFCURVE",
"340 495 CURVE SMOOTH",
"175 495 OFFCURVE",
"63 391 OFFCURVE",
"30 239 CURVE SMOOTH",
"-2 85 OFFCURVE",
"86 -15 OFFCURVE",
"231 -15 CURVE SMOOTH"
);
},
{
closed = 1;
nodes = (
"246 140 OFFCURVE",
"224 175 OFFCURVE",
"237 239 CURVE SMOOTH",
"251 303 OFFCURVE",
"300 339 OFFCURVE",
"361 339 CURVE SMOOTH",
"406 339 OFFCURVE",
"439 316 OFFCURVE",
"448 279 CURVE",
"431 200 LINE",
"406 163 OFFCURVE",
"363 140 OFFCURVE",
"318 140 CURVE SMOOTH"
);
},
{
closed = 1;
nodes = (
"519 517 LINE",
"488 697 LINE",
"287 697 LINE",
"342 517 LINE"
);
}
);
width = 636;
}
);
leftKerningGroup = a;
note = agrave;
rightKerningGroup = a;
unicode = 00E0;
},
{
glyphname = ahookabove;
lastChange = "2015-10-29 01:07:26 +0000";
layers = (
{
layerId = "3EB4D4D8-7151-4DFB-AE23-ECE37F7A1310";
name = Bold;
paths = (
{
closed = 1;
nodes = (
"295 -15 OFFCURVE",
"357 6 OFFCURVE",
"405 44 CURVE",
"396 0 LINE",
"589 0 LINE",
"691 480 LINE",
"491 480 LINE",
"483 445 LINE",
"454 475 OFFCURVE",
"403 495 OFFCURVE",
"340 495 CURVE SMOOTH",
"175 495 OFFCURVE",
"63 391 OFFCURVE",
"30 239 CURVE SMOOTH",
"-2 85 OFFCURVE",
"86 -15 OFFCURVE",
"231 -15 CURVE SMOOTH"
);
},
{
closed = 1;
nodes = (
"246 140 OFFCURVE",
"224 175 OFFCURVE",
"237 239 CURVE SMOOTH",
"251 303 OFFCURVE",
"300 339 OFFCURVE",
"361 339 CURVE SMOOTH",
"406 339 OFFCURVE",
"439 316 OFFCURVE",
"448 279 CURVE",
"431 200 LINE",
"406 163 OFFCURVE",
"363 140 OFFCURVE",
"318 140 CURVE SMOOTH"
);
},
{
closed = 1;
nodes = (
"464 521 LINE",
"470 551 LINE",
"539 562 OFFCURVE",
"577 599 OFFCURVE",
"588 647 CURVE SMOOTH",
"601 712 OFFCURVE",
"556 757 OFFCURVE",
"443 757 CURVE SMOOTH",
"391 757 OFFCURVE",
"342 749 OFFCURVE",
"309 739 CURVE",
"291 655 LINE",
"304 660 OFFCURVE",
"332 665 OFFCURVE",
"355 665 CURVE SMOOTH",
"402 665 OFFCURVE",
"414 650 OFFCURVE",
"410 632 CURVE SMOOTH",
"404 604 OFFCURVE",
"368 593 OFFCURVE",
"313 593 CURVE",
"298 521 LINE"
);
}
);
width = 636;
}
);
leftKerningGroup = a;
note = ahookabove;
rightKerningGroup = a;
unicode = 1EA3;
},
{
glyphname = "alpha-latin";
lastChange = "2015-10-29 01:07:24 +0000";
layers = (
{
layerId = "3EB4D4D8-7151-4DFB-AE23-ECE37F7A1310";
name = Bold;
paths = (
{
closed = 1;
nodes = (
"295 -15 OFFCURVE",
"362 6 OFFCURVE",
"405 44 CURVE",
"396 0 LINE",
"589 0 LINE",
"691 480 LINE",
"491 480 LINE",
"483 445 LINE",
"454 475 OFFCURVE",
"403 495 OFFCURVE",
"340 495 CURVE SMOOTH",
"173 495 OFFCURVE",
"63 391 OFFCURVE",
"30 239 CURVE SMOOTH",
"-2 85 OFFCURVE",
"86 -15 OFFCURVE",
"231 -15 CURVE SMOOTH"
);
},
{
closed = 1;
nodes = (
"244 140 OFFCURVE",
"224 175 OFFCURVE",
"237 239 CURVE SMOOTH",
"251 303 OFFCURVE",
"300 339 OFFCURVE",
"361 339 CURVE SMOOTH",
"406 339 OFFCURVE",
"439 316 OFFCURVE",
"448 279 CURVE",
"431 200 LINE",
"406 163 OFFCURVE",
"363 140 OFFCURVE",
"318 140 CURVE SMOOTH"
);
}
);
width = 669;
}
);
leftKerningGroup = a;
note = ascript;
rightKerningGroup = a;
unicode = 0251;
},
{
glyphname = amacron;
lastChange = "2015-10-29 01:07:24 +0000";
layers = (
{
layerId = "3EB4D4D8-7151-4DFB-AE23-ECE37F7A1310";
name = Bold;
paths = (
{
closed = 1;
nodes = (
"295 -15 OFFCURVE",
"357 6 OFFCURVE",
"405 44 CURVE",
"396 0 LINE",
"589 0 LINE",
"691 480 LINE",
"491 480 LINE",
"483 445 LINE",
"454 475 OFFCURVE",
"403 495 OFFCURVE",
"340 495 CURVE SMOOTH",
"175 495 OFFCURVE",
"63 391 OFFCURVE",
"30 239 CURVE SMOOTH",
"-2 85 OFFCURVE",
"86 -15 OFFCURVE",
"231 -15 CURVE SMOOTH"
);
},
{
closed = 1;
nodes = (
"246 140 OFFCURVE",
"224 175 OFFCURVE",
"237 239 CURVE SMOOTH",
"251 303 OFFCURVE",
"300 339 OFFCURVE",
"361 339 CURVE SMOOTH",
"406 339 OFFCURVE",
"439 316 OFFCURVE",
"448 279 CURVE",
"431 200 LINE",
"406 163 OFFCURVE",
"363 140 OFFCURVE",
"318 140 CURVE SMOOTH"
);
},
{
closed = 1;
nodes = (
"573 531 LINE",
"598 649 LINE",
"243 649 LINE",
"218 531 LINE"
);
}
);
width = 636;
}
);
leftKerningGroup = a;
note = amacron;
rightKerningGroup = a;
unicode = 0101;
},
{
glyphname = aogonek;
lastChange = "2015-10-29 01:07:26 +0000";
layers = (
{
layerId = "3EB4D4D8-7151-4DFB-AE23-ECE37F7A1310";
name = Bold;
paths = (
{
closed = 1;
nodes = (
"295 -15 OFFCURVE",
"357 6 OFFCURVE",
"405 44 CURVE",
"396 0 LINE",
"589 0 LINE",
"691 480 LINE",
"491 480 LINE",
"483 445 LINE",
"454 475 OFFCURVE",
"403 495 OFFCURVE",
"340 495 CURVE SMOOTH",
"175 495 OFFCURVE",
"63 391 OFFCURVE",
"30 239 CURVE SMOOTH",
"-2 85 OFFCURVE",
"86 -15 OFFCURVE",
"231 -15 CURVE SMOOTH"
);
},
{
closed = 1;
nodes = (
"441 -218 OFFCURVE",
"487 -211 OFFCURVE",
"518 -202 CURVE",
"541 -94 LINE",
"523 -102 OFFCURVE",
"505 -106 OFFCURVE",
"489 -106 CURVE SMOOTH",
"470 -106 OFFCURVE",
"457 -95 OFFCURVE",
"461 -78 CURVE SMOOTH",
"467 -50 OFFCURVE",
"500 -28 OFFCURVE",
"561 0 CURVE",
"379 0 LINE",
"332 -25 OFFCURVE",
"296 -65 OFFCURVE",
"284 -118 CURVE SMOOTH",
"270 -188 OFFCURVE",
"322 -218 OFFCURVE",
"399 -218 CURVE SMOOTH"
);
},
{
closed = 1;
nodes = (
"246 140 OFFCURVE",
"224 175 OFFCURVE",
"237 239 CURVE SMOOTH",
"251 303 OFFCURVE",
"300 339 OFFCURVE",
"361 339 CURVE SMOOTH",
"406 339 OFFCURVE",
"439 316 OFFCURVE",
"448 279 CURVE",
"431 200 LINE",
"406 163 OFFCURVE",
"363 140 OFFCURVE",
"318 140 CURVE SMOOTH"
);
}
);
width = 636;
}
);
leftKerningGroup = a;
note = aogonek;
rightKerningGroup = a;
unicode = 0105;
},
{
glyphname = aring;
lastChange = "2015-10-29 01:07:25 +0000";
layers = (
{
layerId = "3EB4D4D8-7151-4DFB-AE23-ECE37F7A1310";
name = Bold;
paths = (
{
closed = 1;
nodes = (
"295 -15 OFFCURVE",
"357 6 OFFCURVE",
"405 44 CURVE",
"396 0 LINE",
"589 0 LINE",
"691 480 LINE",
"491 480 LINE",
"483 445 LINE",
"454 475 OFFCURVE",
"403 495 OFFCURVE",
"340 495 CURVE SMOOTH",
"175 495 OFFCURVE",
"63 391 OFFCURVE",
"30 239 CURVE SMOOTH",
"-2 85 OFFCURVE",
"86 -15 OFFCURVE",
"231 -15 CURVE SMOOTH"
);
},
{
closed = 1;
nodes = (
"246 140 OFFCURVE",
"224 175 OFFCURVE",
"237 239 CURVE SMOOTH",
"251 303 OFFCURVE",
"300 339 OFFCURVE",
"361 339 CURVE SMOOTH",
"406 339 OFFCURVE",
"439 316 OFFCURVE",
"448 279 CURVE",
"431 200 LINE",
"406 163 OFFCURVE",
"363 140 OFFCURVE",
"318 140 CURVE SMOOTH"
);
},
{
closed = 1;
nodes = (
"492 521 OFFCURVE",
"565 585 OFFCURVE",
"582 667 CURVE SMOOTH",
"600 750 OFFCURVE",
"546 814 OFFCURVE",
"463 814 CURVE SMOOTH",
"371 814 OFFCURVE",
"301 750 OFFCURVE",
"283 667 CURVE SMOOTH",
"267 585 OFFCURVE",
"319 521 OFFCURVE",
"401 521 CURVE SMOOTH"
);
},
{
closed = 1;
nodes = (
"387 616 OFFCURVE",
"375 639 OFFCURVE",
"381 667 CURVE SMOOTH",
"388 697 OFFCURVE",
"415 719 OFFCURVE",
"443 719 CURVE SMOOTH",
"480 719 OFFCURVE",
"491 697 OFFCURVE",
"484 667 CURVE SMOOTH",
"478 639 OFFCURVE",
"451 616 OFFCURVE",
"421 616 CURVE SMOOTH"
);
}
);
width = 636;
}
);
leftKerningGroup = a;
note = aring;
rightKerningGroup = a;
unicode = 00E5;
},
